<?xml version="1.0" encoding="utf-8"?>
<!-- Generator: Adobe Illustrator 22.0.1, SVG Export Plug-In . SVG Version: 6.00 Build 0)  -->
<svg version="1.1" id="Слой_1" xmlns="http://www.w3.org/2000/svg" xmlns:xlink="http://www.w3.org/1999/xlink" x="0px" y="0px"
	 viewBox="0 0 841.9 595.3" style="enable-background:new 0 0 841.9 595.3;" xml:space="preserve">
<style type="text/css">
	.st0{fill:#4D4D4D;}
	.st1{fill:#FFC44A;}
</style>
<g id="Layer_x0020_1">
	<path class="st0" d="M470.5,297.6c0-26.4-22.2-47.7-49.5-47.7c-27.3,0-49.5,21.4-49.5,47.7s22.2,47.7,49.5,47.7
		C448.3,345.4,470.5,324,470.5,297.6z"/>
	<path class="st1" d="M407,285.4h6.3v-3.3c0-3.6,0.4-6.3,1.2-8.1c0.8-1.8,1.7-3.6,3.7-4.9c2-1.3,4-2,7.2-2.2
		c3.5-0.2,5.4-0.1,9.4-0.1l0,9.1c-2.1,0.1-3.6-0.1-5.4,0.2c-1.7,0.2-2.9,1-3.6,1.8c-0.7,0.8-1.1,2.3-1.1,4.5v3.1h8.6v9h-8.6v34.2
		h-11.4v-34.2H407V285.4z"/>
</g>
</svg>
