<?xml version="1.0" standalone="no"?>
<!DOCTYPE svg PUBLIC "-//W3C//DTD SVG 20010904//EN"
 "http://www.w3.org/TR/2001/REC-SVG-20010904/DTD/svg10.dtd">
<svg version="1.0" xmlns="http://www.w3.org/2000/svg"
 width="163.000000pt" height="152.000000pt" viewBox="0 0 163.000000 152.000000"
 preserveAspectRatio="xMidYMid meet">
<metadata>
Created by potrace 1.16, written by Peter Selinger 2001-2019
</metadata>
<g transform="translate(0.000000,152.000000) scale(0.100000,-0.100000)"
fill="#333333" stroke="none">
<path d="M712 1489 c-169 -20 -340 -106 -458 -232 -116 -124 -172 -241 -194
-410 -14 -106 -3 -211 35 -319 38 -108 80 -173 175 -268 68 -68 104 -95 176
-133 135 -69 235 -90 399 -85 112 4 142 9 218 35 124 43 189 85 293 188 74 74
99 106 132 175 59 120 76 193 76 330 1 126 -19 212 -74 320 -139 274 -456 437
-778 399z m284 -259 c23 0 24 -3 24 -70 l0 -70 -53 0 c-73 0 -97 -23 -97 -90
l0 -50 65 0 65 0 0 -70 0 -70 -65 0 -65 0 0 -260 0 -260 -90 0 -90 0 0 260 0
260 -45 0 -45 0 0 70 0 70 44 0 43 0 7 76 c11 137 63 194 186 205 36 3 71 4
78 2 8 -1 25 -3 38 -3z"/>
</g>
</svg>
