<?xml version="1.0" encoding="UTF-8"?>
<!DOCTYPE svg PUBLIC "-//W3C//DTD SVG 1.1//EN" "http://www.w3.org/Graphics/SVG/1.1/DTD/svg11.dtd">
<!-- Creator: CorelDRAW X8 -->
<svg xmlns="http://www.w3.org/2000/svg" xml:space="preserve" width="133.294mm" height="33.9212mm" version="1.1" style="shape-rendering:geometricPrecision; text-rendering:geometricPrecision; image-rendering:optimizeQuality; fill-rule:evenodd; clip-rule:evenodd"
viewBox="0 0 10585 2694"
 xmlns:xlink="http://www.w3.org/1999/xlink">
 <defs>
  <style type="text/css">
   <![CDATA[
    .fil0 {fill:#262624}
    .fil1 {fill:#FFC44A}
    .fil2 {fill:#FFC44A;fill-rule:nonzero}
   ]]>
  </style>
 </defs>
 <g id="Layer_x0020_1">
  <metadata id="CorelCorpID_0Corel-Layer"/>
  <path class="fil0" d="M2773 1356c0,-738 -620,-1337 -1386,-1337 -766,0 -1387,599 -1387,1337 0,739 621,1338 1387,1338 766,0 1386,-599 1386,-1338z"/>
  <path class="fil0" d="M6668 1354c0,-739 -621,-1337 -1386,-1337 -766,0 -1387,598 -1387,1337 0,738 621,1337 1387,1337 765,0 1386,-599 1386,-1337z"/>
  <path class="fil0" d="M10585 1337c0,-738 -621,-1337 -1387,-1337 -766,0 -1387,599 -1387,1337 0,739 621,1337 1387,1337 766,0 1387,-598 1387,-1337z"/>
  <path class="fil0" d="M5766 945c0,-44 -36,-79 -79,-79 -44,0 -79,35 -79,79 0,43 35,79 79,79 43,0 79,-36 79,-79z"/>
  <path class="fil1" d="M5608 945c0,-44 35,-79 79,-79 43,0 79,35 79,79 0,43 -36,79 -79,79 -44,0 -79,-36 -79,-79zm-42 -303l-568 0c-230,0 -418,188 -418,418l0 588c0,230 188,418 418,418l568 0c229,0 417,-188 417,-418l0 -588c0,-230 -188,-418 -417,-418zm-288 417c169,0 307,138 307,307 0,170 -138,308 -307,308 -170,0 -308,-138 -308,-308 0,-169 138,-307 308,-307z"/>
  <path class="fil1" d="M5518 1368c0,-133 -108,-241 -241,-241 -133,0 -241,108 -241,241 0,133 108,241 241,241 133,0 241,-108 241,-241z"/>
  <path class="fil2" d="M8808 994l177 0 0 -92c0,-101 11,-177 33,-227 22,-51 47,-101 104,-139 55,-37 113,-54 202,-60 99,-6 151,-4 263,-3l0 255c-58,2 -101,-2 -151,4 -47,6 -80,28 -100,50 -21,21 -32,63 -32,125l0 87 240 0 0 251 -240 0 0 958 -319 0 0 -958 -177 0 0 -251z"/>
  <path class="fil0" d="M1871 947c0,-44 -36,-79 -79,-79 -44,0 -79,35 -79,79 0,44 35,79 79,79 43,0 79,-35 79,-79z"/>
  <path class="fil1" d="M1713 947c0,-44 35,-79 79,-79 43,0 79,35 79,79 0,44 -36,79 -79,79 -44,0 -79,-35 -79,-79zm-42 -303l-568 0c-230,0 -418,188 -418,418l0 589c0,230 188,418 418,418l568 0c229,0 417,-188 417,-418l0 -589c0,-230 -188,-418 -417,-418zm-288 418c169,0 307,137 307,307 0,169 -138,307 -307,307 -170,0 -307,-138 -307,-307 0,-170 137,-307 307,-307z"/>
  <path class="fil1" d="M1623 1371c0,-133 -107,-241 -241,-241 -133,0 -241,108 -241,241 0,133 108,241 241,241 134,0 241,-108 241,-241z"/>
 </g>
</svg>
