<?xml version="1.0" encoding="UTF-8"?>
<!DOCTYPE svg PUBLIC "-//W3C//DTD SVG 1.1//EN" "http://www.w3.org/Graphics/SVG/1.1/DTD/svg11.dtd">
<!-- Creator: CorelDRAW X8 -->
<svg xmlns="http://www.w3.org/2000/svg" xml:space="preserve" width="139.036mm" height="105.852mm" version="1.1" style="shape-rendering:geometricPrecision; text-rendering:geometricPrecision; image-rendering:optimizeQuality; fill-rule:evenodd; clip-rule:evenodd"
viewBox="0 0 15317 11661"
 xmlns:xlink="http://www.w3.org/1999/xlink">
 <defs>
  <style type="text/css">
   <![CDATA[
    .fil219 {fill:#F9B861}
    .fil232 {fill:black}
    .fil7 {fill:#051C3B}
    .fil218 {fill:#17AFC9}
    .fil191 {fill:#18144E}
    .fil235 {fill:#18B0C8}
    .fil231 {fill:#1A1A1A}
    .fil190 {fill:#1A1A57}
    .fil205 {fill:#1F2060}
    .fil214 {fill:#222349}
    .fil213 {fill:#234D8A}
    .fil236 {fill:#2CC6DE}
    .fil222 {fill:#30B061}
    .fil209 {fill:#391D48}
    .fil239 {fill:#40DE7D}
    .fil226 {fill:#5BD6F1}
    .fil228 {fill:#5F154A}
    .fil12 {fill:#5F154B}
    .fil230 {fill:#74D5A3}
    .fil224 {fill:#92E296}
    .fil237 {fill:#93253E}
    .fil238 {fill:#999999}
    .fil16 {fill:#A4266D}
    .fil180 {fill:#A5266D}
    .fil179 {fill:#A5276E}
    .fil178 {fill:#A6276E}
    .fil177 {fill:#A6276F}
    .fil176 {fill:#A7286F}
    .fil175 {fill:#A82870}
    .fil174 {fill:#A82970}
    .fil173 {fill:#A92971}
    .fil172 {fill:#AA2971}
    .fil171 {fill:#AA2A72}
    .fil225 {fill:#AA64ED}
    .fil170 {fill:#AB2A72}
    .fil169 {fill:#AC2B73}
    .fil168 {fill:#AD2B73}
    .fil167 {fill:#AD2B74}
    .fil166 {fill:#AD2C74}
    .fil165 {fill:#AE2C74}
    .fil164 {fill:#AE2C75}
    .fil163 {fill:#AF2C75}
    .fil162 {fill:#AF2D75}
    .fil161 {fill:#AF2D76}
    .fil160 {fill:#B02D76}
    .fil159 {fill:#B12E77}
    .fil158 {fill:#B22E77}
    .fil157 {fill:#B22E78}
    .fil156 {fill:#B22F78}
    .fil155 {fill:#B32F78}
    .fil154 {fill:#B42F79}
    .fil153 {fill:#B43079}
    .fil152 {fill:#B53079}
    .fil151 {fill:#B5307A}
    .fil17 {fill:#B6256F}
    .fil181 {fill:#B6256F}
    .fil150 {fill:#B6307A}
    .fil149 {fill:#B6317A}
    .fil148 {fill:#B6317B}
    .fil18 {fill:#B72670}
    .fil19 {fill:#B72671}
    .fil147 {fill:#B7317B}
    .fil146 {fill:#B7327C}
    .fil20 {fill:#B82771}
    .fil145 {fill:#B8327C}
    .fil21 {fill:#B92772}
    .fil22 {fill:#B92872}
    .fil23 {fill:#B92873}
    .fil144 {fill:#B9327D}
    .fil143 {fill:#B9337D}
    .fil24 {fill:#BA2873}
    .fil25 {fill:#BA2973}
    .fil26 {fill:#BA2974}
    .fil142 {fill:#BA337D}
    .fil141 {fill:#BA337E}
    .fil27 {fill:#BB2A74}
    .fil28 {fill:#BB2A75}
    .fil140 {fill:#BB337E}
    .fil139 {fill:#BB347E}
    .fil29 {fill:#BC2A75}
    .fil30 {fill:#BC2B75}
    .fil31 {fill:#BC2B76}
    .fil138 {fill:#BC347F}
    .fil32 {fill:#BD2B76}
    .fil33 {fill:#BD2C77}
    .fil137 {fill:#BD357F}
    .fil136 {fill:#BD3580}
    .fil34 {fill:#BE2C77}
    .fil35 {fill:#BE2D78}
    .fil135 {fill:#BE3580}
    .fil134 {fill:#BE3681}
    .fil15 {fill:#BE508A}
    .fil36 {fill:#BF2D78}
    .fil37 {fill:#BF2D79}
    .fil38 {fill:#BF2E79}
    .fil133 {fill:#BF3681}
    .fil132 {fill:#BF3682}
    .fil39 {fill:#C02E79}
    .fil40 {fill:#C02E7A}
    .fil41 {fill:#C02F7A}
    .fil131 {fill:#C03782}
    .fil42 {fill:#C12F7B}
    .fil43 {fill:#C1307B}
    .fil130 {fill:#C13783}
    .fil44 {fill:#C2307C}
    .fil45 {fill:#C2317C}
    .fil129 {fill:#C23883}
    .fil128 {fill:#C23884}
    .fil46 {fill:#C3317D}
    .fil47 {fill:#C3327E}
    .fil127 {fill:#C33884}
    .fil126 {fill:#C33984}
    .fil48 {fill:#C4327E}
    .fil49 {fill:#C4337F}
    .fil125 {fill:#C43985}
    .fil50 {fill:#C5337F}
    .fil51 {fill:#C53380}
    .fil124 {fill:#C53985}
    .fil123 {fill:#C53A86}
    .fil52 {fill:#C63480}
    .fil53 {fill:#C63481}
    .fil122 {fill:#C63A86}
    .fil121 {fill:#C63A87}
    .fil120 {fill:#C63B87}
    .fil54 {fill:#C73581}
    .fil55 {fill:#C73582}
    .fil212 {fill:#C73B55}
    .fil119 {fill:#C73B87}
    .fil118 {fill:#C73B88}
    .fil56 {fill:#C83682}
    .fil57 {fill:#C83683}
    .fil117 {fill:#C83B88}
    .fil116 {fill:#C83C88}
    .fil58 {fill:#C93683}
    .fil59 {fill:#C93784}
    .fil115 {fill:#C93C88}
    .fil114 {fill:#C93C89}
    .fil60 {fill:#CA3784}
    .fil61 {fill:#CA3885}
    .fil113 {fill:#CA3C89}
    .fil112 {fill:#CA3D89}
    .fil111 {fill:#CA3D8A}
    .fil62 {fill:#CB3986}
    .fil110 {fill:#CB3D8A}
    .fil63 {fill:#CC3A87}
    .fil109 {fill:#CC3E8B}
    .fil64 {fill:#CD3A88}
    .fil65 {fill:#CD3B88}
    .fil108 {fill:#CD3E8C}
    .fil107 {fill:#CD3F8C}
    .fil66 {fill:#CE3B89}
    .fil67 {fill:#CE3C89}
    .fil68 {fill:#CE3C8A}
    .fil106 {fill:#CE3F8C}
    .fil105 {fill:#CE3F8D}
    .fil69 {fill:#CF3C8A}
    .fil70 {fill:#CF3D8A}
    .fil104 {fill:#CF3F8D}
    .fil103 {fill:#CF408D}
    .fil102 {fill:#CF408E}
    .fil193 {fill:#CFE9FF}
    .fil71 {fill:#D03D8B}
    .fil72 {fill:#D03E8C}
    .fil101 {fill:#D0408E}
    .fil73 {fill:#D13E8C}
    .fil74 {fill:#D13F8D}
    .fil100 {fill:#D1418E}
    .fil99 {fill:#D1418F}
    .fil201 {fill:#D1D1D1}
    .fil75 {fill:#D23F8D}
    .fil76 {fill:#D23F8E}
    .fil98 {fill:#D2418F}
    .fil97 {fill:#D24290}
    .fil77 {fill:#D3408E}
    .fil78 {fill:#D3418F}
    .fil96 {fill:#D34290}
    .fil95 {fill:#D34291}
    .fil79 {fill:#D4418F}
    .fil80 {fill:#D44190}
    .fil81 {fill:#D44290}
    .fil94 {fill:#D44291}
    .fil93 {fill:#D44391}
    .fil82 {fill:#D54290}
    .fil83 {fill:#D54291}
    .fil84 {fill:#D54391}
    .fil92 {fill:#D54392}
    .fil85 {fill:#D64392}
    .fil91 {fill:#D64492}
    .fil90 {fill:#D64493}
    .fil86 {fill:#D74492}
    .fil87 {fill:#D74493}
    .fil89 {fill:#D74593}
    .fil227 {fill:#D84069}
    .fil88 {fill:#D84594}
    .fil5 {fill:#F987F4}
    .fil221 {fill:#FBEE41}
    .fil223 {fill:#FE4469}
    .fil234 {fill:#FE4569}
    .fil229 {fill:#FEBB86}
    .fil197 {fill:#FEE5E1}
    .fil217 {fill:#FF6D84}
    .fil233 {fill:#FF7086}
    .fil208 {fill:#FFA69B}
    .fil220 {fill:#FFB6D6}
    .fil199 {fill:white}
    .fil189 {fill:#686792;fill-opacity:0.509804}
    .fil200 {fill:white;fill-opacity:0.568627}
    .fil198 {fill:white;fill-opacity:0.619608}
    .fil1 {fill:#ABCEEE}
    .fil4 {fill:#DDDDDD}
    .fil2 {fill:#F0F0F0}
    .fil3 {fill:white}
    .fil210 {fill:url(#id10)}
    .fil182 {fill:url(#id11)}
    .fil6 {fill:url(#id12)}
    .fil183 {fill:url(#id13)}
    .fil10 {fill:url(#id14)}
    .fil0 {fill:url(#id15)}
    .fil11 {fill:url(#id16)}
    .fil211 {fill:url(#id17)}
    .fil207 {fill:url(#id18)}
    .fil192 {fill:url(#id19)}
    .fil215 {fill:url(#id20)}
    .fil14 {fill:url(#id21)}
    .fil195 {fill:url(#id22)}
    .fil188 {fill:url(#id23)}
    .fil216 {fill:url(#id24)}
    .fil203 {fill:url(#id25)}
    .fil194 {fill:url(#id26)}
    .fil186 {fill:url(#id27)}
    .fil204 {fill:url(#id28)}
    .fil185 {fill:url(#id29)}
    .fil184 {fill:url(#id30)}
    .fil206 {fill:url(#id31)}
    .fil8 {fill:url(#id32)}
    .fil9 {fill:url(#id33)}
    .fil187 {fill:url(#id34)}
    .fil196 {fill:url(#id35)}
    .fil13 {fill:url(#id36)}
    .fil202 {fill:url(#id37)}
   ]]>
  </style>
     <clipPath id="id0">
      <path d="M1396 2667l4118 0 0 5901 -4118 0 0 -5901z"/>
     </clipPath>
     <clipPath id="id1">
      <path d="M2184 5559l1306 0 -217 2570 -1305 0 216 -2570z"/>
     </clipPath>
     <clipPath id="id2">
      <path d="M2472 5881l5199 0 0 4989 -5199 0 0 -4989z"/>
     </clipPath>
      <clipPath id="id3">
       <path d="M5579 10244l-231 1c-95,-85 -138,-189 -177,-308l1 -132c33,-2 66,-2 100,2 -2,69 -13,131 3,198 16,59 61,108 101,154l119 8c56,16 128,77 84,77z"/>
      </clipPath>
     <clipPath id="id4">
      <path d="M7532 0l7613 0 0 9479 -7613 0 0 -9479z"/>
     </clipPath>
      <clipPath id="id5">
       <path d="M9796 2413l2399 0 0 5579 -2399 0 0 -5579z"/>
      </clipPath>
      <clipPath id="id6">
       <path d="M9995 3971l1049 0 0 931 -1049 0 0 -931z"/>
      </clipPath>
      <clipPath id="id7">
       <path d="M8126 4184l3495 0 0 5013 -3495 0 0 -5013z"/>
      </clipPath>
      <clipPath id="id8">
       <path d="M8562 1944l540 0 0 1233 -540 0 0 -1233z"/>
      </clipPath>
      <clipPath id="id9">
       <path d="M8563 3623l541 0 0 1232 -541 0 0 -1232z"/>
      </clipPath>
  <linearGradient id="id10" gradientUnits="userSpaceOnUse" x1="11034.1" y1="4917.37" x2="10938.8" y2="4921.18">
   <stop offset="0" style="stop-opacity:1; stop-color:#AD8E80"/>
   <stop offset="1" style="stop-opacity:1; stop-color:#FCFAFA"/>
  </linearGradient>
  <linearGradient id="id11" gradientUnits="userSpaceOnUse" x1="6187.74" y1="8970.72" x2="5509.53" y2="10126.3">
   <stop offset="0" style="stop-opacity:1; stop-color:#FCA094"/>
   <stop offset="1" style="stop-opacity:1; stop-color:#F08F82"/>
  </linearGradient>
  <linearGradient id="id12" gradientUnits="userSpaceOnUse" x1="2374.34" y1="7714.31" x2="2837.04" y2="7670.9">
   <stop offset="0" style="stop-opacity:1; stop-color:#5F154B"/>
   <stop offset="1" style="stop-opacity:1; stop-color:#FE8BDA"/>
  </linearGradient>
  <linearGradient id="id13" gradientUnits="userSpaceOnUse" x1="5483.75" y1="9320.91" x2="5396.24" y2="9537.69">
   <stop offset="0" style="stop-opacity:1; stop-color:#E6958A"/>
   <stop offset="1" style="stop-opacity:1; stop-color:#E0877B"/>
  </linearGradient>
  <linearGradient id="id14" gradientUnits="userSpaceOnUse" x1="2601.72" y1="7389.44" x2="2478.89" y2="5889.16">
   <stop offset="0" style="stop-opacity:1; stop-color:#16AFC9"/>
   <stop offset="1" style="stop-opacity:1; stop-color:#92E296"/>
  </linearGradient>
  <linearGradient id="id15" gradientUnits="userSpaceOnUse" x1="3203.17" y1="2315.12" x2="8304.67" y2="11366.6">
   <stop offset="0" style="stop-opacity:1; stop-color:#FFE672"/>
   <stop offset="0.301961" style="stop-opacity:1; stop-color:#FFBF44"/>
   <stop offset="0.588235" style="stop-opacity:1; stop-color:#FEBB7F"/>
   <stop offset="1" style="stop-opacity:1; stop-color:#FFB6D6"/>
  </linearGradient>
  <linearGradient id="id16" gradientUnits="userSpaceOnUse" x1="2567.95" y1="7234.15" x2="2542.57" y2="6126.5">
   <stop offset="0" style="stop-opacity:1; stop-color:#098FB2"/>
   <stop offset="1" style="stop-opacity:1; stop-color:#76D084"/>
  </linearGradient>
  <linearGradient id="id17" gradientUnits="userSpaceOnUse" x1="9849.44" y1="5643" x2="10561.7" y2="5750.05">
   <stop offset="0" style="stop-opacity:1; stop-color:#FE4469"/>
   <stop offset="1" style="stop-opacity:1; stop-color:#FE7388"/>
  </linearGradient>
  <linearGradient id="id18" gradientUnits="userSpaceOnUse" x1="9819.57" y1="4739.72" x2="9100.45" y2="5847.84">
   <stop offset="0" style="stop-opacity:1; stop-color:#592C66"/>
   <stop offset="1" style="stop-opacity:1; stop-color:#20043C"/>
  </linearGradient>
  <linearGradient id="id19" gradientUnits="userSpaceOnUse" x1="5715.59" y1="8356.62" x2="6273.9" y2="7734.6">
   <stop offset="0" style="stop-opacity:1; stop-color:#150F43"/>
   <stop offset="1" style="stop-opacity:1; stop-color:#24286E"/>
  </linearGradient>
  <linearGradient id="id20" gradientUnits="userSpaceOnUse" x1="13639.9" y1="6271.63" x2="12053.1" y2="6720.13">
   <stop offset="0" style="stop-opacity:1; stop-color:#FFB99A"/>
   <stop offset="0.388235" style="stop-opacity:1; stop-color:#FFC24B"/>
   <stop offset="1" style="stop-opacity:1; stop-color:#FFE672"/>
  </linearGradient>
  <linearGradient id="id21" gradientUnits="userSpaceOnUse" x1="4774.72" y1="9468.32" x2="4832.9" y2="9989.41">
   <stop offset="0" style="stop-opacity:1; stop-color:#5F154A"/>
   <stop offset="0.588235" style="stop-opacity:1; stop-color:#933572"/>
   <stop offset="1" style="stop-opacity:1; stop-color:#BE508A"/>
  </linearGradient>
  <linearGradient id="id22" gradientUnits="userSpaceOnUse" x1="3250.12" y1="8412.88" x2="4083.45" y2="8444.28">
   <stop offset="0" style="stop-opacity:1; stop-color:#FF7489"/>
   <stop offset="1" style="stop-opacity:1; stop-color:#FE4469"/>
  </linearGradient>
  <linearGradient id="id23" gradientUnits="userSpaceOnUse" x1="5138.57" y1="8163.17" x2="4211.37" y2="6664.28">
   <stop offset="0" style="stop-opacity:1; stop-color:#18134C"/>
   <stop offset="1" style="stop-opacity:1; stop-color:#1E2C72"/>
  </linearGradient>
  <linearGradient id="id24" gradientUnits="userSpaceOnUse" x1="12558" y1="4657.2" x2="13377.9" y2="4009.95">
   <stop offset="0" style="stop-opacity:1; stop-color:#D1D1D1"/>
   <stop offset="0.45098" style="stop-opacity:1; stop-color:white"/>
   <stop offset="1" style="stop-opacity:1; stop-color:white"/>
  </linearGradient>
  <linearGradient id="id25" gradientUnits="userSpaceOnUse" x1="10160.7" y1="4317.12" x2="10797.4" y2="4649.79">
   <stop offset="0" style="stop-opacity:1; stop-color:white"/>
   <stop offset="0.54902" style="stop-opacity:1; stop-color:#FEE5E1"/>
   <stop offset="1" style="stop-opacity:1; stop-color:white"/>
  </linearGradient>
  <linearGradient id="id26" gradientUnits="userSpaceOnUse" x1="4977.94" y1="8444.06" x2="5968.4" y2="8452.02">
   <stop offset="0" style="stop-opacity:1; stop-color:#1B1853"/>
   <stop offset="1" style="stop-opacity:1; stop-color:#1E1F5E"/>
  </linearGradient>
  <linearGradient id="id27" gradientUnits="userSpaceOnUse" xlink:href="#id11" x1="4978.66" y1="7142.43" x2="5089.4" y2="7324.67">
  </linearGradient>
  <linearGradient id="id28" gradientUnits="userSpaceOnUse" x1="9645.48" y1="6365.21" x2="10263" y2="7541.57">
   <stop offset="0" style="stop-opacity:1; stop-color:#3873C2"/>
   <stop offset="1" style="stop-opacity:1; stop-color:#222B75"/>
  </linearGradient>
  <linearGradient id="id29" gradientUnits="userSpaceOnUse" x1="4472.31" y1="7441.4" x2="4921.79" y2="8372.19">
   <stop offset="0" style="stop-opacity:1; stop-color:#FBEF41"/>
   <stop offset="1" style="stop-opacity:1; stop-color:#EB9553"/>
  </linearGradient>
  <linearGradient id="id30" gradientUnits="userSpaceOnUse" x1="5565.1" y1="8934.72" x2="4407.66" y2="8827.35">
   <stop offset="0" style="stop-opacity:1; stop-color:#D84069"/>
   <stop offset="1" style="stop-opacity:1; stop-color:#EDED58"/>
  </linearGradient>
  <linearGradient id="id31" gradientUnits="userSpaceOnUse" xlink:href="#id28" x1="9452.49" y1="7652.31" x2="9870.68" y2="7720.66">
  </linearGradient>
  <linearGradient id="id32" gradientUnits="userSpaceOnUse" xlink:href="#id14" x1="2769.41" y1="7420.45" x2="2950.29" y2="6435.48">
  </linearGradient>
  <linearGradient id="id33" gradientUnits="userSpaceOnUse" xlink:href="#id16" x1="2815.95" y1="7095.97" x2="2957.42" y2="6567.6">
  </linearGradient>
  <linearGradient id="id34" gradientUnits="userSpaceOnUse" xlink:href="#id11" x1="5046.6" y1="6793.53" x2="5268.36" y2="7030.21">
  </linearGradient>
  <linearGradient id="id35" gradientUnits="userSpaceOnUse" x1="9856.12" y1="2921.1" x2="11498.4" y2="6952.21">
   <stop offset="0" style="stop-opacity:1; stop-color:#FFE571"/>
   <stop offset="1" style="stop-opacity:1; stop-color:#FFB6D6"/>
  </linearGradient>
  <linearGradient id="id36" gradientUnits="userSpaceOnUse" x1="4735.59" y1="9086.47" x2="4733.59" y2="9267.45">
   <stop offset="0" style="stop-opacity:1; stop-color:#933572"/>
   <stop offset="1" style="stop-opacity:1; stop-color:#BE508A"/>
  </linearGradient>
  <linearGradient id="id37" gradientUnits="userSpaceOnUse" x1="9483.22" y1="1356.14" x2="8515.26" y2="5032.41">
   <stop offset="0" style="stop-opacity:1; stop-color:#FFB8AF"/>
   <stop offset="0.658824" style="stop-opacity:1; stop-color:#FFBF47"/>
   <stop offset="1" style="stop-opacity:1; stop-color:#FFE672"/>
  </linearGradient>
 </defs>
 <g id="Layer_x0020_1">
  <metadata id="CorelCorpID_0Corel-Layer"/>
  <g id="_2204315913632">
   <path class="fil0" d="M10827 123c4083,0 2264,1426 3909,5797 1646,4372 -47,6164 -7166,5372 -2087,-232 -3427,1110 -4773,-247 -1271,-1282 794,-1780 -575,-3118 -4392,-4289 -1371,-4696 1348,-5750 851,-330 6283,-2054 7257,-2054z"/>
   <g>
    <g style="clip-path:url(#id0)">
     <image x="1396" y="2667" width="4118" height="5901" xlink:href="imagecourses_Images\imagecourses_ImgID1.png"/>
    </g>
   </g>
   <g>
    <polygon class="fil1" points="3608,4791 3608,7683 4716,7683 4716,4791 "/>
    <path class="fil2" d="M3367 3266c450,-19 919,79 1260,330 78,57 150,123 212,197l1 1 0 4017 -3 0 -1389 0 -1372 0 0 -3153 0 -864 1 -1c39,-52 87,-102 142,-148 266,-222 698,-359 1148,-379zm1575 4640l0 -4210c-715,-822 -2469,-650 -2968,0l0 4210 2968 0z"/>
    <path class="fil2" d="M4732 3782l0 761 -2539 0 0 -761c686,-528 1784,-594 2539,0zm103 876l0 -862c-63,-74 -134,-139 -212,-196 -339,-250 -807,-348 -1256,-329 -449,20 -879,157 -1144,378 -55,46 -102,95 -141,147l0 862 1367 0 0 0 1386 0z"/>
    <path class="fil2" d="M4833 4658l-1384 0 -1 3148 1387 0 0 -3148 -2 0zm-117 133l-1108 0 0 2892 1108 0 0 -2892z"/>
    <path class="fil2" d="M3448 7806l1 -3148 -1367 0 0 3148 1366 0zm-1235 -3015l1109 0 0 2892 -1109 0 0 -2892z"/>
    <polygon class="fil3" points="4942,7906 1974,7906 1871,8027 5039,8027 "/>
    <polygon class="fil4" points="5039,8027 1871,8027 1871,8093 5039,8093 "/>
    <path class="fil1" d="M2193 4543l2539 0 0 -761c-755,-594 -1853,-528 -2539,0l0 761z"/>
    <polygon class="fil1" points="3322,4791 2213,4791 2213,7683 3322,7683 "/>
   </g>
   <g>
    <g style="clip-path:url(#id1)">
     <image x="1968" y="5559" width="1522" height="2570" xlink:href="imagecourses_Images\imagecourses_ImgID2.png"/>
    </g>
   </g>
   <g>
    <path class="fil5" d="M2323 7520c-10,-18 -12,-38 -11,-56 4,-16 7,-30 17,-42 8,-10 19,-19 32,-28 11,-7 109,-45 124,-48 7,10 -31,42 -78,65 -46,5 -50,31 -55,41 -14,99 155,135 238,137 122,3 232,6 322,-87 10,-18 -12,-36 -18,-56 -333,57 -34,-138 27,-29 128,230 -484,267 -598,103z"/>
    <path class="fil6" d="M2322 7480c99,178 569,186 614,-11 0,-2 0,-4 0,-6 -1,-7 -2,-10 -2,-16 0,0 0,0 0,1 0,1 3,12 4,25 9,210 -107,394 -243,512 -44,6 -95,5 -142,0 -108,-71 -235,-357 -241,-506 -1,-28 3,-47 19,-59 -11,27 -19,39 -9,60z"/>
    <path class="fil7" d="M2339 7467c0,-69 131,-125 293,-125 162,0 293,56 293,125 0,70 -121,129 -293,126 -173,-3 -293,-56 -293,-126z"/>
    <g>
     <g>
      <path class="fil8" d="M2714 6711c77,-44 99,-108 131,-182 14,11 31,12 46,19 -6,-22 -17,-42 -19,-67 105,-214 44,-268 46,-412 41,44 82,88 109,143 -6,16 -14,30 -18,49 17,-2 30,-10 45,-15 6,43 29,74 43,111 -6,17 -15,31 -19,50 15,17 34,24 51,36 12,90 3,156 -18,222 -34,42 -70,27 -103,42 16,23 48,20 71,31 -117,173 -174,268 -119,401 -29,26 -83,44 -87,77 33,5 64,-6 94,-9 -3,43 -17,82 -38,117 -34,-29 -34,6 -21,30 -45,57 -114,104 -198,142 -21,0 -43,9 -65,3 75,-159 300,-266 195,-526 -41,19 -77,45 -123,56 27,-44 53,-92 75,-146 -26,-57 -60,-110 -78,-172z"/>
      <path class="fil9" d="M2725 7045c-10,-53 -34,-105 -35,-170 17,45 30,108 55,130l119 -187c8,-34 -28,-80 -26,-131 13,36 27,88 46,100 99,-119 65,-249 85,-385 -2,94 11,189 -5,282 27,-20 46,-49 80,-60 -38,26 -62,62 -92,93 -37,59 -69,121 -110,176 16,14 68,-19 92,-20 -42,30 -84,41 -126,66 -170,84 -10,506 -83,106z"/>
     </g>
     <g>
      <path class="fil10" d="M2754 6308c-49,137 -68,296 -35,399 19,62 52,115 78,172 -21,55 -47,102 -75,146 46,-11 82,-37 123,-56 105,260 -120,367 -195,526 -44,9 -92,11 -140,4 -69,-249 -351,-443 -380,-686 45,-5 90,2 134,-14 -40,-36 -93,-61 -121,-107 71,-179 193,-310 213,-538 24,0 41,3 70,0 -13,-26 -46,-43 -67,-64 -23,-176 -5,-369 -165,-575 422,138 529,464 573,681 -38,48 -79,79 -119,113 37,9 72,-2 106,-1z"/>
      <path class="fil11" d="M2604 6792c-142,388 70,422 -2,709 -14,2 -27,2 -41,3 3,-83 11,-167 -12,-253 -20,-55 -176,-149 -231,-239 73,65 142,122 217,158 -36,-83 -66,-226 -131,-379 -30,-73 -91,-131 -121,-220 43,55 88,135 131,156l85 -310c-2,-51 -73,-98 -91,-169 34,44 75,109 105,118 87,-206 -15,-372 -46,-568 38,130 97,257 114,391 28,-39 42,-87 85,-116 -41,51 -59,112 -88,168 -26,96 -44,196 -77,289 28,13 86,-54 119,-66 -46,60 -98,93 -147,144 -55,191 14,271 36,395 43,-16 35,-160 95,-211z"/>
     </g>
    </g>
   </g>
   <g>
    <g style="clip-path:url(#id2)">
     <image x="2472" y="5881" width="5200" height="4988" xlink:href="imagecourses_Images\imagecourses_ImgID3.png"/>
    </g>
   </g>
   <g>
    <polygon class="fil12" points="3047,8479 7096,8479 7096,8661 3047,8661 "/>
    <polygon class="fil12" points="6044,10294 6689,8643 6727,8651 6086,10294 "/>
    <polygon class="fil12" points="6864,10294 6218,8639 6180,8647 6823,10294 "/>
    <polygon class="fil12" points="3266,10294 3910,8643 3948,8651 3307,10294 "/>
    <polygon class="fil12" points="4086,10294 3440,8639 3402,8647 4044,10294 "/>
    <path class="fil13" d="M4298 9074l962 0c0,68 0,114 0,182 0,38 6,53 -33,53l-909 0c-20,-1 -20,-23 -20,-42l0 -193z"/>
    <polygon class="fil14" points="4753,10203 4753,9308 4833,9308 4833,10203 "/>
    <polygon class="fil15" points="4426,10178 5178,10178 5178,10218 4426,10218 "/>
    <path class="fil16" d="M6442 10172c53,24 165,92 116,92l-263 -1c-17,-11 -32,-17 -53,-22 -69,-8 -96,6 -164,7l-70 -4 -17 -51c1,-32 5,-60 15,-88 50,21 94,48 149,63 106,14 194,31 287,4z"/>
    <g>
     <g style="clip-path:url(#id3)">
      <polygon class="fil17" points="5360,10199 5535,9827 5506,9821 "/>
      <polygon id="1" class="fil18" points="5360,10199 5511,9822 5486,9817 "/>
      <polygon id="2" class="fil18" points="5360,10199 5491,9818 5467,9813 "/>
      <polygon id="3" class="fil19" points="5360,10199 5472,9814 5447,9810 "/>
      <polygon id="4" class="fil20" points="5360,10199 5452,9811 5427,9806 "/>
      <polygon id="5" class="fil20" points="5360,10199 5432,9807 5408,9803 "/>
      <polygon id="6" class="fil21" points="5360,10199 5412,9804 5388,9801 "/>
      <polygon id="7" class="fil22" points="5360,10199 5393,9801 5368,9798 "/>
      <polygon id="8" class="fil23" points="5360,10199 5373,9799 5348,9796 "/>
      <polygon id="9" class="fil24" points="5360,10199 5353,9796 5328,9794 "/>
      <polygon id="10" class="fil25" points="5360,10199 5333,9794 5309,9792 "/>
      <polygon id="11" class="fil26" points="5360,10199 5314,9792 5289,9790 "/>
      <polygon id="12" class="fil27" points="5360,10199 5294,9791 5269,9789 "/>
      <polygon id="13" class="fil28" points="5360,10199 5274,9789 5250,9788 "/>
      <polygon id="14" class="fil29" points="5360,10199 5254,9788 5230,9787 "/>
      <polygon id="15" class="fil30" points="5360,10199 5235,9787 5210,9786 "/>
      <polygon id="16" class="fil31" points="5360,10199 5215,9787 5191,9786 "/>
      <polygon id="17" class="fil32" points="5360,10199 5196,9786 5172,9786 "/>
      <polygon id="18" class="fil33" points="5360,10199 5177,9786 5153,9786 "/>
      <polygon id="19" class="fil33" points="5360,10199 5157,9786 5133,9787 "/>
      <polygon id="20" class="fil34" points="5360,10199 5138,9787 5115,9787 "/>
      <polygon id="21" class="fil35" points="5360,10199 5119,9787 5096,9788 "/>
      <polygon id="22" class="fil36" points="5360,10199 5100,9788 5077,9789 "/>
      <polygon id="23" class="fil37" points="5360,10199 5082,9789 5059,9791 "/>
      <polygon id="24" class="fil38" points="5360,10199 5063,9790 5040,9792 "/>
      <polygon id="25" class="fil39" points="5360,10199 5045,9792 5022,9794 "/>
      <polygon id="26" class="fil40" points="5360,10199 5027,9794 5004,9796 "/>
      <polygon id="27" class="fil41" points="5360,10199 5009,9796 4987,9799 "/>
      <polygon id="28" class="fil42" points="5360,10199 4991,9798 4969,9801 "/>
      <polygon id="29" class="fil42" points="5360,10199 4974,9801 4952,9804 "/>
      <polygon id="30" class="fil43" points="5360,10199 4956,9804 4935,9807 "/>
      <polygon id="31" class="fil44" points="5360,10199 4939,9807 4918,9811 "/>
      <polygon id="32" class="fil45" points="5360,10199 4923,9810 4902,9814 "/>
      <polygon id="33" class="fil46" points="5360,10199 4906,9813 4886,9818 "/>
      <polygon id="34" class="fil46" points="5360,10199 4890,9817 4870,9822 "/>
      <polygon id="35" class="fil47" points="5360,10199 4874,9821 4854,9826 "/>
      <polygon id="36" class="fil48" points="5360,10199 4858,9825 4839,9831 "/>
      <polygon id="37" class="fil48" points="5360,10199 4843,9830 4824,9836 "/>
      <polygon id="38" class="fil49" points="5360,10199 4828,9834 4810,9840 "/>
      <polygon id="39" class="fil50" points="5360,10199 4813,9839 4795,9846 "/>
      <polygon id="40" class="fil51" points="5360,10199 4799,9844 4781,9851 "/>
      <polygon id="41" class="fil52" points="5360,10199 4785,9850 4768,9857 "/>
      <polygon id="42" class="fil52" points="5360,10199 4771,9855 4754,9862 "/>
      <polygon id="43" class="fil53" points="5360,10199 4758,9861 4741,9868 "/>
      <polygon id="44" class="fil54" points="5360,10199 4745,9867 4729,9874 "/>
      <polygon id="45" class="fil55" points="5360,10199 4732,9873 4717,9881 "/>
      <polygon id="46" class="fil55" points="5360,10199 4720,9879 4705,9887 "/>
      <polygon id="47" class="fil56" points="5360,10199 4708,9886 4694,9894 "/>
      <polygon id="48" class="fil57" points="5360,10199 4697,9892 4683,9901 "/>
      <polygon id="49" class="fil58" points="5360,10199 4685,9899 4672,9908 "/>
      <polygon id="50" class="fil59" points="5360,10199 4675,9906 4662,9915 "/>
      <polygon id="51" class="fil59" points="5360,10199 4665,9914 4652,9923 "/>
      <polygon id="52" class="fil60" points="5360,10199 4655,9921 4643,9931 "/>
      <polygon id="53" class="fil61" points="5360,10199 4645,9929 4634,9938 "/>
      <polygon id="54" class="fil61" points="5360,10199 4636,9936 4626,9946 "/>
      <polygon id="55" class="fil62" points="5360,10199 4628,9944 4618,9954 "/>
      <polygon id="56" class="fil62" points="5360,10199 4620,9952 4610,9963 "/>
      <polygon id="57" class="fil62" points="5360,10199 4612,9961 4603,9971 "/>
      <polygon id="58" class="fil63" points="5360,10199 4605,9969 4597,9980 "/>
      <polygon id="59" class="fil63" points="5360,10199 4598,9977 4590,9988 "/>
      <polygon id="60" class="fil64" points="5360,10199 4592,9986 4585,9997 "/>
      <polygon id="61" class="fil65" points="5360,10199 4586,9995 4579,10006 "/>
      <polygon id="62" class="fil65" points="5360,10199 4581,10004 4575,10015 "/>
      <polygon id="63" class="fil66" points="5360,10199 4576,10013 4570,10024 "/>
      <polygon id="64" class="fil67" points="5360,10199 4571,10022 4567,10033 "/>
      <polygon id="65" class="fil68" points="5360,10199 4568,10031 4563,10043 "/>
      <polygon id="66" class="fil69" points="5360,10199 4564,10040 4560,10052 "/>
      <polygon id="67" class="fil70" points="5360,10199 4561,10050 4558,10062 "/>
      <polygon id="68" class="fil71" points="5360,10199 4559,10059 4556,10071 "/>
      <polygon id="69" class="fil71" points="5360,10199 4557,10069 4555,10081 "/>
      <polygon id="70" class="fil72" points="5360,10199 4555,10078 4554,10091 "/>
      <polygon id="71" class="fil73" points="5360,10199 4554,10088 4553,10100 "/>
      <polygon id="72" class="fil73" points="5360,10199 4554,10098 4553,10110 "/>
      <polygon id="73" class="fil74" points="5360,10199 4553,10108 4554,10120 "/>
      <polygon id="74" class="fil75" points="5360,10199 4554,10118 4555,10130 "/>
      <polygon id="75" class="fil76" points="5360,10199 4555,10128 4556,10140 "/>
      <polygon id="76" class="fil77" points="5360,10199 4556,10138 4558,10150 "/>
      <polygon id="77" class="fil77" points="5360,10199 4558,10148 4561,10160 "/>
      <polygon id="78" class="fil78" points="5360,10199 4560,10158 4564,10170 "/>
      <polygon id="79" class="fil79" points="5360,10199 4563,10168 4567,10181 "/>
      <polygon id="80" class="fil80" points="5360,10199 4567,10178 4571,10191 "/>
      <polygon id="81" class="fil81" points="5360,10199 4570,10188 4576,10201 "/>
      <polygon id="82" class="fil82" points="5360,10199 4575,10198 4580,10211 "/>
      <polygon id="83" class="fil83" points="5360,10199 4579,10208 4586,10221 "/>
      <polygon id="84" class="fil84" points="5360,10199 4585,10219 4592,10231 "/>
      <polygon id="85" class="fil85" points="5360,10199 4590,10229 4598,10241 "/>
      <polygon id="86" class="fil85" points="5360,10199 4596,10239 4605,10251 "/>
      <polygon id="87" class="fil86" points="5360,10199 4603,10249 4612,10261 "/>
      <polygon id="88" class="fil87" points="5360,10199 4610,10259 4619,10271 "/>
      <polygon id="89" class="fil87" points="5360,10199 4618,10269 4627,10281 "/>
      <polygon id="90" class="fil88" points="5360,10199 4625,10279 4636,10291 "/>
      <polygon id="91" class="fil88" points="5360,10199 4634,10289 4645,10301 "/>
      <polygon id="92" class="fil88" points="5360,10199 4643,10299 4654,10311 "/>
      <polygon id="93" class="fil89" points="5360,10199 4652,10308 4664,10321 "/>
      <polygon id="94" class="fil87" points="5360,10199 4662,10318 4674,10330 "/>
      <polygon id="95" class="fil87" points="5360,10199 4672,10328 4685,10340 "/>
      <polygon id="96" class="fil90" points="5360,10199 4682,10337 4696,10349 "/>
      <polygon id="97" class="fil90" points="5360,10199 4693,10347 4707,10359 "/>
      <polygon id="98" class="fil91" points="5360,10199 4705,10356 4719,10368 "/>
      <polygon id="99" class="fil92" points="5360,10199 4716,10366 4732,10377 "/>
      <polygon id="100" class="fil92" points="5360,10199 4728,10375 4744,10386 "/>
      <polygon id="101" class="fil92" points="5360,10199 4741,10384 4757,10395 "/>
      <polygon id="102" class="fil93" points="5360,10199 4754,10393 4770,10404 "/>
      <polygon id="103" class="fil93" points="5360,10199 4767,10402 4784,10413 "/>
      <polygon id="104" class="fil94" points="5360,10199 4781,10411 4798,10422 "/>
      <polygon id="105" class="fil95" points="5360,10199 4795,10419 4813,10430 "/>
      <polygon id="106" class="fil96" points="5360,10199 4809,10428 4827,10438 "/>
      <polygon id="107" class="fil96" points="5360,10199 4824,10436 4842,10447 "/>
      <polygon id="108" class="fil96" points="5360,10199 4839,10445 4858,10455 "/>
      <polygon id="109" class="fil97" points="5360,10199 4854,10453 4873,10463 "/>
      <polygon id="110" class="fil98" points="5360,10199 4869,10461 4889,10470 "/>
      <polygon id="111" class="fil98" points="5360,10199 4885,10468 4905,10478 "/>
      <polygon id="112" class="fil99" points="5360,10199 4901,10476 4922,10485 "/>
      <polygon id="113" class="fil99" points="5360,10199 4918,10483 4939,10492 "/>
      <polygon id="114" class="fil100" points="5360,10199 4934,10491 4956,10500 "/>
      <polygon id="115" class="fil101" points="5360,10199 4951,10498 4973,10506 "/>
      <polygon id="116" class="fil101" points="5360,10199 4969,10505 4990,10513 "/>
      <polygon id="117" class="fil101" points="5360,10199 4986,10511 5008,10520 "/>
      <polygon id="118" class="fil102" points="5360,10199 5004,10518 5026,10526 "/>
      <polygon id="119" class="fil103" points="5360,10199 5022,10524 5044,10532 "/>
      <polygon id="120" class="fil104" points="5360,10199 5040,10530 5062,10538 "/>
      <polygon id="121" class="fil105" points="5360,10199 5058,10536 5081,10544 "/>
      <polygon id="122" class="fil105" points="5360,10199 5076,10542 5100,10549 "/>
      <polygon id="123" class="fil106" points="5360,10199 5095,10548 5118,10554 "/>
      <polygon id="124" class="fil107" points="5360,10199 5114,10553 5137,10559 "/>
      <polygon id="125" class="fil107" points="5360,10199 5133,10558 5157,10564 "/>
      <polygon id="126" class="fil108" points="5360,10199 5152,10563 5176,10569 "/>
      <polygon id="127" class="fil109" points="5360,10199 5171,10568 5195,10573 "/>
      <polygon id="128" class="fil109" points="5360,10199 5190,10572 5214,10578 "/>
      <polygon id="129" class="fil109" points="5360,10199 5210,10576 5234,10581 "/>
      <polygon id="130" class="fil109" points="5360,10199 5229,10580 5254,10585 "/>
      <polygon id="131" class="fil110" points="5360,10199 5249,10584 5273,10589 "/>
      <polygon id="132" class="fil110" points="5360,10199 5268,10588 5293,10592 "/>
      <polygon id="133" class="fil110" points="5360,10199 5288,10591 5313,10595 "/>
      <polygon id="134" class="fil111" points="5360,10199 5308,10594 5333,10598 "/>
      <polygon id="135" class="fil112" points="5360,10199 5328,10597 5352,10600 "/>
      <polygon id="136" class="fil113" points="5360,10199 5347,10600 5372,10603 "/>
      <polygon id="137" class="fil114" points="5360,10199 5367,10602 5392,10605 "/>
      <polygon id="138" class="fil114" points="5360,10199 5387,10604 5412,10607 "/>
      <polygon id="139" class="fil115" points="5360,10199 5407,10606 5431,10608 "/>
      <polygon id="140" class="fil116" points="5360,10199 5426,10608 5451,10609 "/>
      <polygon id="141" class="fil117" points="5360,10199 5446,10609 5471,10610 "/>
      <polygon id="142" class="fil117" points="5360,10199 5466,10610 5490,10611 "/>
      <polygon id="143" class="fil118" points="5360,10199 5485,10611 5510,10612 "/>
      <polygon id="144" class="fil119" points="5360,10199 5505,10612 5529,10612 "/>
      <polygon id="145" class="fil119" points="5360,10199 5524,10612 5549,10612 "/>
      <polygon id="146" class="fil120" points="5360,10199 5544,10612 5568,10612 "/>
      <polygon id="147" class="fil121" points="5360,10199 5563,10612 5587,10612 "/>
      <polygon id="148" class="fil122" points="5360,10199 5582,10612 5606,10611 "/>
      <polygon id="149" class="fil123" points="5360,10199 5601,10611 5625,10610 "/>
      <polygon id="150" class="fil123" points="5360,10199 5620,10610 5643,10609 "/>
      <polygon id="151" class="fil123" points="5360,10199 5639,10609 5662,10608 "/>
      <polygon id="152" class="fil124" points="5360,10199 5657,10608 5680,10606 "/>
      <polygon id="153" class="fil125" points="5360,10199 5675,10606 5698,10604 "/>
      <polygon id="154" class="fil125" points="5360,10199 5693,10604 5716,10602 "/>
      <polygon id="155" class="fil125" points="5360,10199 5711,10602 5734,10600 "/>
      <polygon id="156" class="fil126" points="5360,10199 5729,10600 5751,10597 "/>
      <polygon id="157" class="fil127" points="5360,10199 5747,10598 5768,10594 "/>
      <polygon id="158" class="fil127" points="5360,10199 5764,10595 5785,10591 "/>
      <polygon id="159" class="fil128" points="5360,10199 5781,10592 5802,10588 "/>
      <polygon id="160" class="fil129" points="5360,10199 5798,10588 5818,10584 "/>
      <polygon id="161" class="fil129" points="5360,10199 5814,10585 5834,10580 "/>
      <polygon id="162" class="fil130" points="5360,10199 5830,10581 5850,10576 "/>
      <polygon id="163" class="fil130" points="5360,10199 5846,10577 5866,10572 "/>
      <polygon id="164" class="fil130" points="5360,10199 5862,10573 5881,10567 "/>
      <polygon id="165" class="fil131" points="5360,10199 5877,10569 5896,10563 "/>
      <polygon id="166" class="fil131" points="5360,10199 5892,10564 5911,10558 "/>
      <polygon id="167" class="fil131" points="5360,10199 5907,10559 5925,10553 "/>
      <polygon id="168" class="fil132" points="5360,10199 5921,10554 5939,10547 "/>
      <polygon id="169" class="fil133" points="5360,10199 5936,10549 5953,10542 "/>
      <polygon id="170" class="fil133" points="5360,10199 5949,10543 5966,10536 "/>
      <polygon id="171" class="fil134" points="5360,10199 5963,10537 5979,10530 "/>
      <polygon id="172" class="fil134" points="5360,10199 5976,10531 5991,10524 "/>
      <polygon id="173" class="fil135" points="5360,10199 5988,10525 6003,10517 "/>
      <polygon id="174" class="fil136" points="5360,10199 6000,10519 6015,10511 "/>
      <polygon id="175" class="fil136" points="5360,10199 6012,10513 6027,10504 "/>
      <polygon id="176" class="fil136" points="5360,10199 6024,10506 6038,10497 "/>
      <polygon id="177" class="fil137" points="5360,10199 6035,10499 6048,10490 "/>
      <polygon id="178" class="fil138" points="5360,10199 6045,10492 6058,10483 "/>
      <polygon id="179" class="fil138" points="5360,10199 6056,10485 6068,10475 "/>
      <polygon id="180" class="fil138" points="5360,10199 6066,10477 6077,10468 "/>
      <polygon id="181" class="fil139" points="5360,10199 6075,10470 6086,10460 "/>
      <polygon id="182" class="fil139" points="5360,10199 6084,10462 6095,10452 "/>
      <polygon id="183" class="fil140" points="5360,10199 6092,10454 6103,10444 "/>
      <polygon id="184" class="fil141" points="5360,10199 6100,10446 6110,10436 "/>
      <polygon id="185" class="fil142" points="5360,10199 6108,10438 6117,10427 "/>
      <polygon id="186" class="fil142" points="5360,10199 6115,10429 6124,10419 "/>
      <polygon id="187" class="fil143" points="5360,10199 6122,10421 6130,10410 "/>
      <polygon id="188" class="fil143" points="5360,10199 6128,10412 6136,10401 "/>
      <polygon id="189" class="fil144" points="5360,10199 6134,10404 6141,10392 "/>
      <polygon id="190" class="fil145" points="5360,10199 6139,10395 6146,10383 "/>
      <polygon id="191" class="fil145" points="5360,10199 6144,10386 6150,10374 "/>
      <polygon id="192" class="fil145" points="5360,10199 6149,10377 6154,10365 "/>
      <polygon id="193" class="fil146" points="5360,10199 6153,10367 6157,10356 "/>
      <polygon id="194" class="fil147" points="5360,10199 6156,10358 6160,10346 "/>
      <polygon id="195" class="fil147" points="5360,10199 6159,10349 6162,10337 "/>
      <polygon id="196" class="fil148" points="5360,10199 6162,10339 6164,10327 "/>
      <polygon id="197" class="fil148" points="5360,10199 6164,10330 6166,10318 "/>
      <polygon id="198" class="fil149" points="5360,10199 6165,10320 6166,10308 "/>
      <polygon id="199" class="fil150" points="5360,10199 6166,10310 6167,10298 "/>
      <polygon id="200" class="fil151" points="5360,10199 6167,10300 6167,10288 "/>
      <polygon id="201" class="fil151" points="5360,10199 6167,10291 6166,10278 "/>
      <polygon id="202" class="fil152" points="5360,10199 6166,10281 6165,10268 "/>
      <polygon id="203" class="fil153" points="5360,10199 6166,10271 6164,10258 "/>
      <polygon id="204" class="fil154" points="5360,10199 6164,10261 6162,10248 "/>
      <polygon id="205" class="fil154" points="5360,10199 6162,10251 6159,10238 "/>
      <polygon id="206" class="fil155" points="5360,10199 6160,10241 6156,10228 "/>
      <polygon id="207" class="fil155" points="5360,10199 6157,10230 6153,10218 "/>
      <polygon id="208" class="fil155" points="5360,10199 6154,10220 6149,10208 "/>
      <polygon id="209" class="fil156" points="5360,10199 6150,10210 6145,10198 "/>
      <polygon id="210" class="fil157" points="5360,10199 6146,10200 6140,10187 "/>
      <polygon id="211" class="fil158" points="5360,10199 6141,10190 6134,10177 "/>
      <polygon id="212" class="fil159" points="5360,10199 6136,10180 6129,10167 "/>
      <polygon id="213" class="fil159" points="5360,10199 6130,10170 6122,10157 "/>
      <polygon id="214" class="fil159" points="5360,10199 6124,10160 6116,10147 "/>
      <polygon id="215" class="fil160" points="5360,10199 6117,10149 6109,10137 "/>
      <polygon id="216" class="fil160" points="5360,10199 6110,10139 6101,10127 "/>
      <polygon id="217" class="fil160" points="5360,10199 6103,10129 6093,10117 "/>
      <polygon id="218" class="fil161" points="5360,10199 6095,10119 6084,10107 "/>
      <polygon id="219" class="fil162" points="5360,10199 6086,10110 6075,10097 "/>
      <polygon id="220" class="fil163" points="5360,10199 6078,10100 6066,10087 "/>
      <polygon id="221" class="fil163" points="5360,10199 6068,10090 6056,10078 "/>
      <polygon id="222" class="fil164" points="5360,10199 6059,10080 6046,10068 "/>
      <polygon id="223" class="fil165" points="5360,10199 6048,10070 6035,10058 "/>
      <polygon id="224" class="fil165" points="5360,10199 6038,10061 6024,10049 "/>
      <polygon id="225" class="fil166" points="5360,10199 6027,10051 6013,10040 "/>
      <polygon id="226" class="fil167" points="5360,10199 6016,10042 6001,10030 "/>
      <polygon id="227" class="fil168" points="5360,10199 6004,10033 5989,10021 "/>
      <polygon id="228" class="fil169" points="5360,10199 5992,10023 5976,10012 "/>
      <polygon id="229" class="fil169" points="5360,10199 5979,10014 5963,10003 "/>
      <polygon id="230" class="fil169" points="5360,10199 5966,10005 5950,9994 "/>
      <polygon id="231" class="fil170" points="5360,10199 5953,9996 5936,9985 "/>
      <polygon id="232" class="fil170" points="5360,10199 5940,9988 5922,9977 "/>
      <polygon id="233" class="fil170" points="5360,10199 5926,9979 5908,9968 "/>
      <polygon id="234" class="fil171" points="5360,10199 5911,9970 5893,9960 "/>
      <polygon id="235" class="fil171" points="5360,10199 5897,9962 5878,9952 "/>
      <polygon id="236" class="fil172" points="5360,10199 5882,9954 5863,9944 "/>
      <polygon id="237" class="fil173" points="5360,10199 5866,9946 5847,9936 "/>
      <polygon id="238" class="fil173" points="5360,10199 5851,9938 5831,9928 "/>
      <polygon id="239" class="fil173" points="5360,10199 5835,9930 5815,9920 "/>
      <polygon id="240" class="fil174" points="5360,10199 5819,9922 5798,9913 "/>
      <polygon id="241" class="fil175" points="5360,10199 5802,9915 5782,9906 "/>
      <polygon id="242" class="fil175" points="5360,10199 5786,9908 5765,9899 "/>
      <polygon id="243" class="fil175" points="5360,10199 5769,9901 5747,9892 "/>
      <polygon id="244" class="fil176" points="5360,10199 5752,9894 5730,9885 "/>
      <polygon id="245" class="fil176" points="5360,10199 5734,9887 5712,9879 "/>
      <polygon id="246" class="fil176" points="5360,10199 5717,9880 5694,9872 "/>
      <polygon id="247" class="fil177" points="5360,10199 5699,9874 5676,9866 "/>
      <polygon id="248" class="fil178" points="5360,10199 5681,9868 5658,9860 "/>
      <polygon id="249" class="fil178" points="5360,10199 5662,9862 5639,9855 "/>
      <polygon id="250" class="fil179" points="5360,10199 5644,9856 5621,9849 "/>
      <polygon id="251" class="fil179" points="5360,10199 5625,9851 5602,9844 "/>
      <polygon id="252" class="fil180" points="5360,10199 5607,9845 5583,9839 "/>
      <polygon id="253" class="fil16" points="5360,10199 5588,9840 5564,9834 "/>
      <polygon id="254" class="fil16" points="5360,10199 5569,9835 5545,9829 "/>
      <polygon id="255" class="fil181" points="5360,10199 5549,9831 5530,9826 "/>
     </g>
    </g>
    <path class="fil182" d="M5733 8897c208,374 298,732 426,1114 89,53 196,92 283,161 -93,27 -181,10 -287,-4 -55,-15 -99,-42 -149,-63 16,-43 34,-82 63,-115 -202,-264 -425,-534 -573,-816 -10,-54 -14,-110 -4,-171 -76,7 -152,6 -228,8l374 -314c38,14 77,48 92,64 7,35 8,93 3,136z"/>
    <path class="fil183" d="M5613 9370c-74,144 -132,284 -204,430 -9,95 12,197 6,287 37,27 54,54 82,80l-119 -8c-40,-46 -85,-95 -101,-154 -16,-67 -5,-129 -3,-198 26,-22 50,-48 82,-64 -8,-185 -16,-374 10,-558 18,-38 25,-78 56,-108 -1,-23 -4,-47 -3,-69 25,-1 50,-2 75,-5 -10,61 -6,117 4,171 35,66 73,132 115,196z"/>
    <path class="fil184" d="M5640 8661c1,14 1,28 -2,36 -153,134 -426,376 -449,377l-868 0c-178,-102 -163,-246 -71,-413 463,0 927,0 1390,0z"/>
    <path class="fil185" d="M4480 8331c43,-114 96,-197 185,-326 -116,69 -186,189 -243,293 11,20 33,31 58,33zm686 -940c425,763 -98,626 -177,948 122,19 253,19 376,20l-13 61 -601 -3 0 65c-61,-3 -138,-1 -216,0l-215 0c-60,-3 -104,-10 -112,-27 -95,-349 443,-943 700,-1096 46,52 169,33 258,32z"/>
    <path class="fil186" d="M5216 7126c-60,56 -93,232 -85,266 -77,3 -166,11 -211,-22 43,-1 87,-196 157,-308 22,32 82,43 139,64z"/>
    <path class="fil187" d="M5232 6667c143,88 127,155 171,239 10,108 12,184 -10,205 -33,22 -114,29 -191,13 -29,-10 -59,-18 -82,-29 -15,-7 -29,-16 -40,-26 -2,-2 -3,-4 -4,-5 0,0 0,0 -1,1 -12,-12 -22,-25 -30,-39 -31,37 -88,-8 -96,-62 16,-95 102,-65 104,-18 19,10 52,16 62,2 10,-20 4,-49 -20,-81 -13,-26 -27,-94 3,-110 33,-7 11,-52 30,-63 13,-7 50,5 62,-1 16,-8 25,-28 42,-26z"/>
    <path class="fil188" d="M4949 6964c8,54 65,100 96,62 8,14 18,27 30,39 -69,112 -112,303 -155,305 -5,-3 -9,-7 -12,-11 -223,132 -656,597 -706,945 -173,-27 -443,-382 -232,-803 172,-272 635,-349 865,-754 24,-63 23,-237 308,-290 67,-3 128,23 185,76 8,21 7,43 10,63 12,71 -24,96 -53,108 -15,-12 -32,-24 -53,-37 -17,-2 -26,18 -42,26 -12,6 -49,-6 -62,1 -19,11 3,56 -30,63 -30,16 -16,85 -3,110 24,32 30,61 20,81 -10,14 -43,8 -62,-2 -2,-47 -88,-77 -104,18z"/>
    <path class="fil189" d="M4795 6881l-10 62c-401,352 -1091,798 -658,1168 -19,1 -43,-24 -62,-23 -423,-475 534,-905 730,-1207z"/>
    <path class="fil189" d="M4632 7103l-86 122c-701,490 -470,786 -478,774 -136,-297 315,-542 564,-896z"/>
    <path class="fil190" d="M5261 7132c-109,119 -26,169 -62,318 -10,-19 -21,-39 -33,-59 -11,0 -23,0 -35,1 -8,-34 24,-209 84,-266 16,3 31,5 46,6z"/>
    <path class="fil191" d="M4422 8298c57,-104 127,-224 243,-293 -89,129 -90,131 -146,237 -26,-2 -86,76 -97,56z"/>
    <path class="fil192" d="M5743 7620c308,-1 594,-2 902,-2 18,0 29,8 21,28l-326 775 -988 -1 360 -779c7,-17 13,-21 31,-21z"/>
    <path class="fil193" d="M5996 8016c20,-56 64,-91 98,-79 34,12 45,68 24,124 -20,56 -64,92 -98,79 -34,-12 -45,-68 -24,-124z"/>
    <polygon class="fil194" points="6316,8418 6316,8479 4751,8479 4751,8418 4909,8418 5352,8420 5353,8418 "/>
    <polygon class="fil195" points="3210,8357 3210,8477 4157,8477 4157,8357 "/>
   </g>
   <g id="_2204732095808">
    <g style="clip-path:url(#id4)">
     <image x="7532" y="0" width="7612" height="9479" xlink:href="imagecourses_Images\imagecourses_ImgID4.png"/>
    </g>
   </g>
   <g id="_2204315913504">
    <path class="fil196" d="M11774 8543c167,99 462,125 460,-317l-20 -4641c-1,-195 -124,-573 -292,-671l-2063 -1205c-168,-98 -312,23 -312,219l0 4975c0,196 9,331 176,430l2051 1210z"/>
    <g>
     <g style="clip-path:url(#id5)">
      <image x="9796" y="2413" width="2399" height="5578" xlink:href="imagecourses_Images\imagecourses_ImgID5.png"/>
     </g>
    </g>
    <g>
     <path class="fil197" d="M9996 3940c-3,239 -5,482 -8,725 -3,245 -5,492 -8,741 -3,276 2,592 75,897 37,154 21,325 99,470 248,457 -92,397 506,771 195,106 481,191 637,164 159,-28 493,-222 509,-705 -12,-386 -23,-768 -33,-1145 -11,-371 -22,-741 -32,-1104 -71,-330 -238,-661 -440,-936 -188,-253 -403,-454 -603,-566 -205,-115 -395,-138 -523,-35 -124,99 -198,322 -179,723z"/>
     <path class="fil198" d="M10659 3106c-142,-152 -258,-218 -367,-30 4,299 8,592 13,880 4,288 8,571 12,849 4,270 8,535 11,795 4,260 8,517 12,768 28,224 261,490 307,247 1,-225 2,-454 3,-686 0,-232 1,-468 2,-708 1,-246 2,-496 2,-750 1,-255 2,-515 3,-777 0,-194 1,-390 2,-588z"/>
     <path class="fil199" d="M9960 3982c-2,-330 52,-534 152,-629 50,-48 111,-69 183,-66 73,3 158,33 252,86 146,83 270,158 375,227 105,68 192,132 263,193 221,188 330,378 402,672 71,297 105,702 178,1329 -5,-415 -10,-825 -15,-1231 -7,-651 15,-1048 -319,-1265 -123,-79 -266,-162 -413,-243 -146,-80 -293,-160 -426,-237 -173,-99 -297,-139 -386,-128 -87,10 -143,69 -179,172 -37,104 -53,251 -60,437 -7,188 -5,417 -7,683z"/>
     <path class="fil200" d="M11532 5003c-1,-51 -35,-102 -78,-115 -43,-13 -78,18 -77,68 4,376 8,745 12,1106 4,353 8,701 11,1040 1,45 34,92 74,105 40,13 72,-12 72,-56 -2,-340 -4,-688 -7,-1042 -3,-361 -5,-730 -7,-1106z"/>
    </g>
    <path class="fil12" d="M12315 8167c5,443 -326,544 -493,445l-2050 -1210c-205,-121 -254,-301 -254,-556l0 -4976c0,-196 234,-274 403,-177l2079 1194c168,97 264,455 266,651l49 4629zm118 92l-21 -4779c-1,-201 -132,-590 -310,-691l-2186 -1241c-125,-71 -240,-44 -356,78 -18,19 -8,52 -19,64 -12,14 -43,7 -43,47l0 5125c0,202 77,463 254,564l2173 1247c177,102 510,42 508,-414z"/>
    <path class="fil201" d="M12234 8226c2,442 -293,416 -460,317l-2051 -1210c-167,-99 -176,-234 -176,-430l0 -4975c0,-196 144,-317 312,-219l2063 1205c168,98 291,476 292,671l20 4641zm89 101l-21 -4779c-1,-201 -132,-590 -310,-691l-2186 -1241c-178,-101 -331,23 -331,225l0 5125c0,201 10,341 187,442l2173 1247c177,101 490,128 488,-328z"/>
    <path class="fil12" d="M9187 1799l-506 -309c-63,-39 -179,1 -223,37 -32,28 30,66 29,126l-2 3161c0,179 33,311 173,356l388 125c30,10 -30,54 -1,51 92,-11 258,-31 257,-286l-18 -3022c-1,-87 -23,-193 -97,-239z"/>
    <path class="fil202" d="M9093 1841l-506 -309c-110,-67 -194,22 -194,163l-2 3161c0,179 33,310 173,356l387 125c129,41 257,-34 256,-235l-17 -3022c-1,-87 -24,-194 -97,-239z"/>
    <g>
     <g style="clip-path:url(#id6)">
      <image x="9995" y="3971" width="1049" height="931" xlink:href="imagecourses_Images\imagecourses_ImgID6.png"/>
     </g>
    </g>
    <path class="fil203" d="M10936 4795c19,-311 -783,-406 -832,-716 -11,190 27,308 115,402 227,174 533,95 717,314z"/>
    <g>
     <g style="clip-path:url(#id7)">
      <image x="8126" y="4184" width="3495" height="5012" xlink:href="imagecourses_Images\imagecourses_ImgID7.png"/>
     </g>
    </g>
    <g>
     <g>
      <path class="fil204" d="M9897 7205c2,-91 17,-185 -18,-294 92,104 115,265 165,356 -33,-36 -63,-58 -147,-62zm-266 -13l3 1 -3 -1c0,0 0,0 0,0zm578 -843c-109,23 -343,72 -499,-120 -312,359 -86,484 -79,963l-37 -5 2 1c-32,11 -107,120 -108,167 28,1 70,9 122,23 68,18 152,45 240,78 137,50 286,113 404,176 39,0 79,1 91,-63 25,-384 35,-921 -136,-1220z"/>
      <path class="fil205" d="M9281 7364c45,-163 219,-193 233,-295 -15,-24 -20,-33 -48,-44 21,9 -6,67 -24,91 -138,87 -175,206 -265,302 -34,27 -58,39 -102,42 92,32 156,-46 206,-96z"/>
      <g>
       <path class="fil206" d="M9850 7456c-88,-33 -172,-60 -240,-78 -208,186 -184,545 -292,804 109,19 119,78 139,144 91,-269 237,-588 393,-870z"/>
       <path class="fil207" d="M8726 5869c333,247 521,200 810,174 160,-83 234,-113 267,-438 105,-51 195,-105 175,-227 -11,-47 -56,-57 -33,-141 -11,-22 -50,-173 18,-207 19,-27 13,-63 56,-80 21,-54 34,-177 -17,-251 -20,-41 -245,-175 -450,-75 -191,113 -159,260 -245,263 -96,11 -218,-47 -338,21 -121,71 -22,307 -94,414 -42,112 -172,-23 -305,107 -138,223 118,405 156,440z"/>
       <path class="fil208" d="M11157 5285c2,-8 22,-36 28,-54 16,-47 38,-114 22,-130 -11,-11 -61,-16 -104,-16 -20,0 -33,110 -46,113 39,60 60,26 100,87z"/>
       <path class="fil209" d="M11053 5008c-6,-9 -36,-35 -44,-29 -9,5 7,40 13,49l154 235c5,9 30,29 38,23 9,-5 -2,-35 -7,-43l-154 -235z"/>
       <path class="fil210" d="M10923 4958c13,29 51,34 85,37 -2,-8 -2,-14 1,-16 4,-3 12,1 21,8l20 -75c15,-53 -98,-48 -113,-117 -16,60 -35,116 -14,163z"/>
       <path class="fil208" d="M10015 5232c23,-12 -7,-87 21,-165 8,-23 -11,-54 -23,-79 -6,-12 4,-26 6,-38 -43,17 -37,53 -56,80 -68,34 -29,185 -18,207 30,1 43,5 70,-5z"/>
       <path class="fil208" d="M11057 5116c-59,56 -95,112 -131,146 33,25 44,51 66,76 62,-4 100,-10 151,-30 14,-11 17,-20 25,-44 -15,-33 -42,-54 -76,-76 3,-19 30,-91 20,-104 -19,-10 -40,13 -50,26 -2,2 -4,4 -5,6z"/>
       <path class="fil211" d="M9710 6229c156,192 390,143 499,121 -77,-288 -52,-313 -86,-518 -3,-34 8,-60 62,-100 136,24 243,29 377,18 154,-131 299,-211 430,-411 -22,-26 -33,-51 -66,-76 -164,127 -357,205 -409,292 -141,6 -413,-144 -539,-177 20,123 -70,176 -175,227 -33,326 -107,355 -267,438 18,83 97,147 170,163 8,2 -2,19 4,23z"/>
       <path class="fil212" d="M10188 5730c-106,-25 -205,-30 -306,-135 67,143 143,223 220,303 -19,-62 28,-129 86,-168z"/>
       <path class="fil212" d="M9707 6207c-8,-87 32,-165 -28,-250 -64,57 -29,81 -29,208 1,21 37,34 57,42z"/>
       <path class="fil213" d="M9911 6934c-59,-74 -132,-107 -152,-212 -12,-67 -21,-128 -24,-201 -23,79 -17,125 -29,181 -8,6 -16,9 -37,3 -19,19 -11,56 2,62 19,1 26,5 46,3 102,85 99,251 112,374 -60,-4 -138,3 -199,7 -2,23 0,22 0,41 86,1 172,2 266,13 5,-84 12,-171 -7,-256 -2,-10 -16,-35 22,-15z"/>
       <path class="fil214" d="M9442 7116c18,-24 45,-82 24,-91 -1,0 -1,0 -1,0 -128,-26 -461,398 -390,435 44,-3 68,-15 102,-42 90,-96 127,-215 265,-302z"/>
       <path class="fil214" d="M9457 8755c-20,-49 -75,-170 -118,-224 -10,-67 -2,-149 -2,-223 -17,-53 -63,-82 -121,-57 -46,99 27,165 28,251l-17 89c35,140 220,237 237,191 0,0 -1,-13 -7,-27z"/>
       <path class="fil205" d="M9464 8726c-24,-82 -63,-159 -100,-220 -6,-82 10,-185 -13,-237 -25,-37 -67,-58 -112,-50 -6,4 -10,8 -12,13 -4,7 -8,13 -11,19 58,-25 104,4 121,57 0,74 -8,156 2,223 43,54 98,175 118,224 6,14 7,27 7,27 1,-2 1,-5 1,-8l-1 -48z"/>
       <path class="fil12" d="M9457 8326c-20,-66 -30,-125 -139,-144 -10,18 -55,21 -79,37 45,-8 87,13 112,50 23,52 7,155 13,237 37,61 76,138 100,220l-7 -400z"/>
      </g>
      <path class="fil12" d="M9413 7352l139 -180c-12,-34 -10,-73 -35,-103 -5,-6 -9,-12 -14,-18 3,5 7,11 11,18 -14,102 -188,132 -233,295 -50,50 -114,128 -206,96 61,34 186,-41 241,-79 30,-5 65,-20 97,-29z"/>
     </g>
     <path class="fil208" d="M9552 7172l-139 180c29,-9 56,-12 75,3 1,-47 76,-156 108,-167l-2 -1 -42 -15z"/>
    </g>
    <path class="fil12" d="M13933 6245l-1895 -1077c-33,-19 -86,-10 -106,6 -6,5 49,26 49,35l0 1376c0,105 -6,90 72,135l1837 1071 45 -15c26,-8 40,-5 40,-31l7 -1394c0,-27 -25,-93 -49,-106z"/>
    <path class="fil215" d="M13871 6255l-1896 -1076c-44,-26 -57,4 -57,41l0 1376c0,105 -7,90 72,135l1883 1056c23,13 39,-5 40,-32l6 -1394c0,-26 -25,-93 -48,-106z"/>
    <path class="fil12" d="M13930 4257l-1895 -1077c-33,-18 -86,-9 -106,6 -6,5 49,26 49,35l0 1376c0,106 -6,90 72,135l1837 1071 45 -15c26,-8 40,-5 40,-31l7 -1394c0,-27 -26,-93 -49,-106z"/>
    <path class="fil216" d="M13867 4268l-1895 -1077c-44,-25 -57,4 -57,41l0 1376c0,105 -7,90 72,135l1882 1056c24,13 40,-5 40,-32l7 -1393c0,-27 -25,-93 -49,-106z"/>
    <polygon class="fil217" points="12304,3442 11997,3275 11997,3657 12303,3830 "/>
    <polygon class="fil218" points="12687,3657 12380,3489 12380,3871 12685,4044 "/>
    <polygon class="fil219" points="13080,3890 12772,3722 12772,4104 13078,4278 "/>
    <polygon class="fil220" points="13470,4107 13163,3940 13163,4322 13468,4495 "/>
    <polygon class="fil15" points="13873,4332 13566,4165 13566,4547 13872,4720 "/>
    <polygon class="fil221" points="12294,3934 11987,3767 11987,4149 12293,4322 "/>
    <polygon class="fil222" points="12676,4149 12369,3982 12369,4364 12675,4537 "/>
    <polygon class="fil223" points="13069,4382 12762,4215 12762,4597 13068,4770 "/>
    <polygon class="fil224" points="13459,4600 13152,4432 13152,4814 13458,4987 "/>
    <polygon class="fil225" points="13862,4825 13555,4657 13555,5039 13861,5212 "/>
    <polygon class="fil226" points="12304,4437 11997,4270 11997,4652 12303,4825 "/>
    <polygon class="fil227" points="12687,4652 12380,4484 12380,4866 12685,5040 "/>
    <polygon class="fil228" points="13080,4885 12772,4717 12772,5099 13078,5273 "/>
    <polygon class="fil229" points="13470,5102 13163,4935 13163,5317 13468,5490 "/>
    <polygon class="fil230" points="13873,5328 13566,5160 13566,5542 13872,5715 "/>
    <g>
     <g style="clip-path:url(#id8)">
      <image x="8562" y="1944" width="541" height="1233" xlink:href="imagecourses_Images\imagecourses_ImgID8.png"/>
     </g>
    </g>
    <g>
     <path class="fil231" d="M8837 2549c1,-79 3,-161 4,-243 1,-84 3,-178 4,-264 -83,-39 -115,-59 -115,11 0,78 0,154 -1,229 0,74 0,147 0,219 18,8 36,16 53,24 19,8 37,16 55,24 0,0 0,0 0,0z"/>
     <path class="fil232" d="M8845 2042c-1,87 -3,173 -4,258 -1,83 -3,165 -4,245 19,9 38,17 57,25 18,9 37,17 56,25 2,-69 3,-140 5,-211 2,-72 4,-146 5,-220 2,-54 -16,-76 -59,-96 -22,-11 -39,-19 -56,-26z"/>
     <path class="fil233" d="M8837 2580c-22,-9 -43,-18 -64,-28 -22,-9 -43,-19 -64,-29 -19,-8 -35,0 -37,18 -3,53 -7,104 -11,156 -4,59 -8,118 -12,176 -2,24 14,51 36,60 24,10 48,20 73,31 24,10 48,20 72,30 1,-66 2,-134 3,-202 1,-70 3,-140 4,-212z"/>
     <path class="fil234" d="M8837 2580c-1,72 -3,142 -4,212 -1,68 -2,136 -3,202 1,1 3,1 4,2 25,10 50,21 74,31 25,10 49,21 73,31 21,9 37,-4 36,-29 -3,-60 -7,-121 -10,-182 -3,-54 -6,-107 -9,-162 -1,-19 -17,-41 -35,-48 -21,-10 -42,-19 -63,-28 -21,-10 -42,-19 -63,-28 0,0 0,-1 0,-1z"/>
     <path class="fil201" d="M8837 2543c0,0 0,0 0,0 -18,-8 -35,-16 -53,-24 -17,-7 -35,-15 -52,-23 -14,-6 -27,-12 -41,-18 -21,-10 -40,1 -41,23 -4,63 -8,126 -12,188 -5,72 -10,143 -14,213 -2,28 17,60 41,70 28,12 57,24 85,35 28,12 56,24 84,36 28,11 56,23 83,34 28,12 55,23 83,35 23,9 41,-6 40,-36 -4,-71 -7,-144 -11,-217 -3,-64 -6,-129 -9,-194 -1,-23 -19,-49 -39,-58 -11,-5 -23,-10 -34,-15 -18,-8 -37,-16 -55,-24 -18,-8 -36,-17 -55,-25zm-125 -20c21,9 42,19 63,28 20,9 41,18 62,28 0,0 0,0 0,0 20,9 41,18 62,27 20,9 41,18 61,27 17,8 33,29 34,48 3,55 5,108 8,161 3,61 7,122 10,182 1,24 -14,38 -35,29 -23,-10 -47,-20 -71,-30 -24,-10 -48,-20 -72,-30 -1,-1 -2,-1 -4,-2 -23,-10 -47,-20 -70,-29 -24,-10 -47,-20 -71,-30 -21,-9 -37,-36 -35,-59 4,-58 8,-117 12,-176 4,-51 7,-103 11,-156 1,-18 17,-26 35,-18z"/>
    </g>
    <g>
     <g style="clip-path:url(#id9)">
      <image x="8563" y="3623" width="541" height="1233" xlink:href="imagecourses_Images\imagecourses_ImgID9.png"/>
     </g>
    </g>
    <g>
     <path class="fil231" d="M8839 4228c1,-80 3,-161 4,-244 1,-83 2,-177 4,-264 -83,-38 -115,-59 -115,12 0,77 -1,154 -1,229 0,74 0,147 -1,218 18,9 36,17 54,25 18,8 37,16 55,24 0,0 0,0 0,0z"/>
     <path class="fil232" d="M8847 3720c-2,88 -3,174 -4,258 -2,83 -3,165 -4,246 19,8 38,17 56,25 19,8 38,17 57,25 1,-69 3,-140 5,-211 2,-73 3,-146 5,-221 2,-54 -16,-76 -59,-95 -22,-11 -39,-19 -56,-27z"/>
     <path class="fil235" d="M8838 4259c-21,-9 -42,-19 -63,-28 -22,-10 -43,-19 -65,-29 -18,-8 -34,0 -36,18 -4,52 -7,104 -11,156 -4,59 -8,117 -13,175 -1,24 15,51 37,60 24,11 48,21 73,31 24,10 48,21 72,31 1,-67 2,-135 3,-203 1,-69 2,-140 3,-211z"/>
     <path class="fil236" d="M8838 4259c-1,71 -2,142 -3,211 -1,68 -2,136 -3,203 1,0 3,1 4,2 25,10 49,20 74,31 24,10 49,20 73,31 21,8 37,-5 36,-29 -4,-60 -7,-121 -10,-183 -3,-53 -6,-107 -9,-161 -1,-19 -17,-41 -35,-49 -21,-9 -42,-18 -63,-28 -21,-9 -42,-18 -63,-28 0,0 -1,0 -1,0z"/>
     <path class="fil201" d="M8839 4222c0,0 0,0 0,0 -18,-8 -35,-16 -53,-24 -18,-8 -35,-15 -53,-23 -13,-6 -27,-12 -40,-19 -21,-9 -40,1 -41,23 -4,64 -8,127 -12,189 -5,72 -10,143 -14,212 -2,29 16,60 41,71 28,12 57,23 85,35 28,12 56,24 84,35 28,12 55,24 83,35 28,12 55,23 82,34 24,10 42,-6 41,-35 -4,-71 -7,-144 -11,-217 -3,-64 -6,-129 -9,-195 -1,-22 -19,-48 -39,-57 -12,-5 -23,-10 -34,-15 -19,-9 -37,-17 -55,-25 -18,-8 -37,-16 -55,-24zm-125 -20c21,9 42,18 62,28 21,9 42,18 63,27 0,0 0,0 0,0 20,9 41,19 61,28 21,9 41,18 62,27 17,7 32,29 33,48 3,54 6,108 9,161 3,61 7,122 10,182 1,24 -15,37 -35,29 -23,-10 -47,-20 -71,-30 -24,-10 -48,-20 -72,-30 -1,-1 -3,-2 -4,-2 -23,-10 -47,-20 -70,-30 -24,-10 -48,-20 -71,-30 -21,-8 -37,-35 -35,-59 4,-58 8,-116 12,-176 3,-51 7,-103 11,-155 1,-18 17,-26 35,-18z"/>
    </g>
    <path class="fil237" d="M12349 5581c-70,-37 -141,-75 -212,-113 -2,44 -4,86 -5,129 -1,43 -3,85 -4,127 70,37 140,73 210,109 1,-42 3,-83 5,-125 2,-42 4,-84 6,-127z"/>
    <path class="fil223" d="M12587 5707c-69,-36 -138,-73 -208,-110 -2,42 -4,84 -6,126 -2,42 -4,84 -6,125 69,36 137,71 205,106 3,-41 5,-82 8,-122 2,-42 5,-83 7,-125z"/>
    <path class="fil238" d="M13750 6351c-89,-47 -179,-96 -269,-144 -92,-49 -184,-99 -277,-149 -94,-50 -190,-101 -286,-153 -97,-52 -196,-105 -295,-158 -1,12 -2,25 -2,38 99,53 197,106 294,157 96,52 191,103 285,153 93,50 186,99 277,148 90,48 180,96 268,143 2,-12 3,-23 5,-35z"/>
    <path class="fil238" d="M13730 6521c-88,-47 -178,-93 -267,-141 -91,-47 -183,-96 -275,-144 -93,-50 -188,-99 -283,-150 -97,-50 -195,-102 -293,-154 -1,13 -2,26 -2,38 98,52 195,103 292,154 95,50 189,99 283,148 92,48 184,96 274,144 90,47 179,93 267,139 1,-11 2,-23 4,-34z"/>
    <path class="fil238" d="M13741 6442c-88,-47 -178,-95 -268,-142 -91,-49 -183,-98 -275,-147 -94,-50 -189,-100 -285,-151 -97,-51 -195,-104 -294,-156 -1,13 -2,25 -2,38 98,52 196,104 293,155 95,51 190,101 284,150 93,49 185,98 275,146 90,48 180,95 268,141 1,-11 3,-23 4,-34z"/>
    <path class="fil235" d="M12346 6031c-70,-37 -141,-74 -212,-112 -2,43 -4,86 -5,128 -2,43 -3,85 -4,127 70,37 140,73 209,109 2,-42 4,-83 6,-125 2,-42 4,-84 6,-127z"/>
    <path class="fil236" d="M12584 6158c-69,-37 -139,-74 -208,-111 -2,43 -4,85 -6,126 -2,42 -4,84 -6,125 69,36 137,71 205,106 2,-40 5,-81 7,-122 3,-42 5,-83 8,-124z"/>
    <path class="fil238" d="M13747 6801c-89,-47 -179,-95 -269,-144 -92,-49 -184,-98 -277,-148 -95,-51 -190,-102 -286,-154 -97,-52 -196,-105 -295,-158 -1,13 -2,25 -3,38 100,53 198,106 295,158 96,51 191,102 285,152 93,50 186,99 277,148 90,48 180,96 268,143 1,-11 3,-23 5,-35z"/>
    <path class="fil238" d="M13726 6971c-88,-47 -177,-93 -266,-141 -91,-47 -183,-95 -275,-144 -94,-49 -188,-99 -284,-149 -96,-51 -194,-102 -292,-154 -1,12 -2,25 -3,38 99,51 196,102 292,153 96,50 190,99 283,148 93,48 185,96 275,144 89,47 178,93 266,139 2,-11 3,-23 4,-34z"/>
    <path class="fil238" d="M13738 6892c-88,-47 -178,-95 -268,-142 -91,-49 -183,-97 -276,-147 -94,-50 -189,-100 -284,-151 -97,-51 -195,-103 -294,-156 -1,13 -2,25 -2,38 98,52 196,104 293,155 95,51 190,101 284,151 93,49 184,97 275,145 90,48 179,95 268,142 1,-12 2,-24 4,-35z"/>
    <path class="fil222" d="M12334 6463c-70,-37 -141,-75 -212,-113 -2,44 -4,86 -5,129 -2,42 -3,85 -4,127 70,36 140,73 210,109 1,-42 3,-84 5,-125 2,-42 4,-85 6,-127z"/>
    <path class="fil239" d="M12572 6589c-69,-36 -139,-73 -208,-110 -2,42 -4,84 -6,126 -2,42 -4,84 -6,125 69,36 137,71 205,106 2,-41 5,-82 7,-123 3,-41 6,-82 8,-124z"/>
    <path class="fil238" d="M13735 7233c-89,-47 -179,-96 -269,-144 -92,-49 -184,-99 -277,-149 -95,-50 -190,-101 -286,-153 -97,-52 -196,-105 -295,-158 -1,12 -2,25 -2,38 99,53 197,106 294,157 96,52 191,103 285,153 93,50 186,99 277,148 90,48 180,96 268,143 2,-12 3,-23 5,-35z"/>
    <path class="fil238" d="M13714 7402c-88,-46 -177,-93 -266,-140 -91,-48 -183,-96 -275,-144 -94,-50 -188,-99 -284,-150 -96,-50 -194,-102 -292,-154 -1,13 -2,26 -3,38 99,52 196,103 293,154 95,49 189,99 282,148 93,48 185,96 275,144 90,46 178,93 266,139 2,-12 3,-23 4,-35z"/>
    <path class="fil238" d="M13726 7324c-88,-47 -178,-95 -268,-143 -91,-48 -183,-97 -276,-146 -93,-50 -188,-100 -284,-151 -97,-52 -195,-104 -294,-156 -1,13 -2,25 -2,38 98,52 196,104 293,155 95,51 190,101 284,150 93,49 185,98 275,146 90,48 179,95 268,141 1,-11 2,-23 4,-34z"/>
   </g>
  </g>
 </g>
</svg>
