<?xml version="1.0" encoding="utf-8"?>
<!-- Generator: Adobe Illustrator 22.0.1, SVG Export Plug-In . SVG Version: 6.00 Build 0)  -->
<svg version="1.1" id="Слой_1" xmlns="http://www.w3.org/2000/svg" xmlns:xlink="http://www.w3.org/1999/xlink" x="0px" y="0px"
	 viewBox="0 0 841.9 595.3" style="enable-background:new 0 0 841.9 595.3;" xml:space="preserve">
<style type="text/css">
	.st0{fill:#4D4D4D;}
	.st1{fill:#FFC44A;}
</style>
<g id="Layer_x0020_1">
	<path class="st0" d="M470.5,298.3c0-26.4-22.2-47.7-49.5-47.7c-27.4,0-49.5,21.4-49.5,47.7c0,26.4,22.2,47.7,49.5,47.7
		C448.3,346,470.5,324.6,470.5,298.3z"/>
	<path class="st0" d="M438.2,283.6c0-1.6-1.2-2.8-2.8-2.8s-2.8,1.2-2.8,2.8c0,1.6,1.2,2.8,2.8,2.8S438.2,285.2,438.2,283.6z"/>
	<path class="st1" d="M432.6,283.6c0-1.6,1.2-2.8,2.8-2.8s2.8,1.2,2.8,2.8c0,1.6-1.2,2.8-2.8,2.8S432.6,285.2,432.6,283.6z
		 M431.1,272.8h-20.3c-8.2,0-14.9,6.7-14.9,14.9v21c0,8.2,6.7,14.9,14.9,14.9h20.3c8.2,0,14.9-6.7,14.9-14.9v-21
		C446,279.5,439.3,272.8,431.1,272.8z M420.8,287.7c6,0,10.9,4.9,10.9,11c0,6.1-4.9,11-10.9,11c-6.1,0-11-4.9-11-11
		C409.8,292.6,414.8,287.7,420.8,287.7z"/>
	<path class="st1" d="M429.4,298.8c0-4.7-3.9-8.6-8.6-8.6c-4.7,0-8.6,3.9-8.6,8.6c0,4.8,3.9,8.6,8.6,8.6
		C425.6,307.4,429.4,303.5,429.4,298.8z"/>
</g>
</svg>
