<?xml version="1.0" standalone="no"?>
<!DOCTYPE svg PUBLIC "-//W3C//DTD SVG 20010904//EN"
 "http://www.w3.org/TR/2001/REC-SVG-20010904/DTD/svg10.dtd">
<svg version="1.0" xmlns="http://www.w3.org/2000/svg"
 width="164.000000pt" height="157.000000pt" viewBox="0 0 164.000000 157.000000"
 preserveAspectRatio="xMidYMid meet">
<metadata>
Created by potrace 1.16, written by Peter Selinger 2001-2019
</metadata>
<g transform="translate(0.000000,157.000000) scale(0.100000,-0.100000)"
fill="#000000" stroke="none">
<path d="M615 1460 c-149 -39 -261 -105 -365 -217 -113 -120 -168 -239 -190
-406 -14 -105 -3 -213 34 -318 67 -192 230 -359 427 -438 109 -43 180 -54 326
-49 105 4 142 9 208 32 119 41 209 98 306 195 142 143 203 293 203 496 0 131
-17 206 -73 320 -93 188 -273 331 -485 385 -105 27 -291 27 -391 0z m465 -352
c42 -26 61 -45 82 -87 l28 -53 0 -212 c0 -182 -3 -216 -19 -251 -23 -51 -89
-111 -138 -124 -49 -14 -397 -14 -446 0 -49 13 -115 73 -138 124 -16 35 -19
69 -19 251 l0 212 28 53 c21 42 40 61 82 87 l54 32 216 0 216 0 54 -32z"/>
<path d="M773 910 c-94 -21 -151 -119 -124 -210 14 -48 77 -105 124 -114 73
-14 150 24 181 88 59 124 -50 266 -181 236z m124 -72 c83 -83 27 -218 -90
-218 -74 0 -127 53 -127 127 0 117 134 173 217 91z"/>
</g>
</svg>
