<svg id="Слой_1" data-name="Слой 1" xmlns="http://www.w3.org/2000/svg" viewBox="0 0 448.13 82.44">
  <defs>
    <style>
      .cls-1 {
        fill: #fa0;
      }
    </style>
  </defs>
  <title>logo</title>
  <g>
    <path d="M95.69,205.1v80h-16l-31.3-54q.06,2.06.12,2.7a30.16,30.16,0,0,1,.23,3.45v47.87H34.16v-80h20.2l27.21,47.17c-.24-2.34-.36-4.12-.36-5.33V205.1Z" transform="translate(-34.16 -203.87)"/>
    <path d="M151,205.1l25,80H155.94L151,268.62H125.16l-5,16.46H103.71l25.64-80Zm-21.39,48.75H146.6l-8.4-28.06Z" transform="translate(-34.16 -203.87)"/>
    <path d="M203.38,205.1v80H184.69v-80Z" transform="translate(-34.16 -203.87)"/>
    <path d="M238.42,269.26h31.82v15.82h-50.8v-80h19Z" transform="translate(-34.16 -203.87)"/>
    <path d="M335.1,222.68,319.16,228q-3.21-9.48-13.62-9.49-11.1,0-11.1,7.21a6.49,6.49,0,0,0,2.07,4.86q2.08,2,9.4,3.46,12.22,2.47,17.9,5a23,23,0,0,1,9.57,8.11,21.43,21.43,0,0,1,3.89,12.51q0,10.83-8.34,18.75t-24.74,7.9q-12.29,0-20.93-5.59t-11.38-16.61l17.34-3.93q2.92,11.19,16.26,11.19,6.43,0,9.59-2.49a7.39,7.39,0,0,0,3.16-5.94,6.2,6.2,0,0,0-2.87-5.45q-2.87-1.94-11.06-3.64-15.27-3.16-21.77-8.64t-6.49-16a23.75,23.75,0,0,1,7.75-18q7.77-7.33,21-7.33Q328.38,203.87,335.1,222.68Z" transform="translate(-34.16 -203.87)"/>
    <path class="cls-1" d="M387.76,205.1l25,80H392.66l-4.93-16.46H361.87l-5,16.46H340.43l25.64-80Zm-21.39,48.75h16.95l-8.4-28.06Z" transform="translate(-34.16 -203.87)"/>
    <path class="cls-1" d="M482.29,205.1v49.81q0,12.06-2.75,18t-10.17,9.66q-7.41,3.78-19,3.78T432,282.92a22.83,22.83,0,0,1-10.22-9.67q-3.4-6.27-3.4-18.34V205.1h20.33v49.81c0,4.29.36,7.46,1.09,9.49a8.88,8.88,0,0,0,4.33,4.83,16.34,16.34,0,0,0,8,1.79,18.19,18.19,0,0,0,8.59-1.76,8.81,8.81,0,0,0,4.39-4.65q1.08-2.91,1.08-9.7V205.1Z" transform="translate(-34.16 -203.87)"/>
  </g>
</svg>
