<?xml version="1.0" standalone="no"?>
<!DOCTYPE svg PUBLIC "-//W3C//DTD SVG 20010904//EN"
 "http://www.w3.org/TR/2001/REC-SVG-20010904/DTD/svg10.dtd">
<svg version="1.0" xmlns="http://www.w3.org/2000/svg"
 width="458.000000pt" height="458.000000pt" viewBox="0 0 458.000000 458.000000"
 preserveAspectRatio="xMidYMid meet">
<metadata>
Created by potrace 1.11, written by Peter Selinger 2001-2013
</metadata>
<g transform="translate(0.000000,458.000000) scale(0.100000,-0.100000)"
fill="#000000" stroke="none">
<path d="M2665 2670 c-55 -14 -81 -28 -119 -65 -45 -43 -66 -90 -70 -155 -8
-127 71 -202 259 -245 94 -21 135 -46 135 -82 0 -52 -43 -83 -113 -83 -63 0
-115 25 -140 67 -21 36 -24 37 -119 18 -70 -14 -70 -15 -44 -71 57 -124 212
-183 383 -147 74 15 131 48 169 98 27 36 57 125 49 148 -2 7 -6 27 -9 45 -2
19 -16 51 -30 72 -40 60 -69 74 -279 132 -56 15 -79 37 -79 74 0 39 24 57 84
61 61 5 112 -20 128 -62 12 -30 10 -30 90 -1 57 21 65 27 62 48 -4 38 -54 91
-115 122 -46 23 -72 29 -135 31 -42 1 -90 -1 -107 -5z"/>
<path d="M195 2660 c-1 -3 -3 -173 -4 -377 l0 -373 52 -1 c53 -1 80 1 85 6 2
2 3 112 3 245 0 133 3 240 5 237 10 -10 274 -471 274 -478 0 -10 52 -15 116
-11 l52 4 0 361 c0 199 -2 369 -4 378 -3 12 -18 15 -62 14 -31 0 -61 -3 -67
-7 -6 -4 -10 -83 -9 -207 1 -111 -1 -201 -5 -201 -3 0 -45 69 -93 153 -48 83
-103 177 -121 207 l-33 55 -93 0 c-51 1 -94 -2 -96 -5z"/>
<path d="M1091 2660 c-5 -3 -39 -102 -76 -220 -37 -118 -75 -240 -85 -270 -44
-129 -81 -253 -77 -256 3 -4 102 -7 138 -5 11 1 23 24 38 76 24 84 11 77 141
77 139 0 125 6 145 -69 10 -38 21 -72 25 -76 9 -10 177 -14 186 -5 3 3 -25
102 -61 219 -37 118 -75 241 -85 274 -44 145 -71 231 -79 245 -6 12 -30 15
-105 15 -53 1 -100 -2 -105 -5z m123 -329 c19 -63 33 -118 31 -121 -5 -7 -133
-6 -140 2 -3 3 11 61 32 128 20 67 39 118 40 114 1 -5 18 -61 37 -123z"/>
<path d="M1615 2660 c-7 -11 -5 -750 2 -751 49 -3 165 -1 169 4 4 4 7 174 7
379 l0 373 -87 0 c-48 0 -89 -2 -91 -5z"/>
<path d="M1945 2662 c-3 -3 -5 -173 -5 -379 l0 -373 28 -1 c26 -1 367 0 427 1
l30 0 -1 63 c-1 34 -2 68 -3 75 -1 9 -38 12 -151 12 l-150 0 0 303 0 302 -85
1 c-47 0 -87 -2 -90 -4z"/>
<path d="M3291 2575 c-32 -98 -72 -225 -101 -320 -10 -33 -39 -125 -64 -205
-25 -80 -46 -145 -46 -145 0 0 21 1 47 2 27 0 63 2 80 2 32 1 33 3 55 76 25
85 6 76 171 77 89 0 99 -2 103 -25 1 -7 9 -38 19 -69 18 -64 9 -60 125 -60 22
0 51 1 64 1 l24 1 -50 158 c-91 288 -140 446 -163 522 l-22 75 -107 0 -106 0
-29 -90z m154 -240 c19 -65 32 -121 30 -124 -8 -7 -123 -8 -134 -1 -6 3 6 56
27 127 20 67 38 120 39 119 2 -2 19 -56 38 -121z"/>
<path d="M3819 2650 c-5 -77 0 -525 5 -555 24 -126 122 -196 281 -199 172 -4
280 60 305 180 9 44 18 508 11 579 -1 6 -33 10 -77 10 l-76 0 -2 -275 c-1
-151 -6 -283 -11 -294 -21 -47 -144 -67 -198 -31 -38 25 -44 56 -45 230 -1 88
-1 207 -1 265 l-1 106 -95 -1 c-77 0 -95 -3 -96 -15z"/>
</g>
</svg>
