<?xml version="1.0" encoding="UTF-8" standalone="no"?>
<!-- Creator: CorelDRAW X8 -->

<svg
   xml:space="preserve"
   width="220.18002mm"
   height="165.87334mm"
   version="1.1"
   style="clip-rule:evenodd;fill-rule:evenodd;image-rendering:optimizeQuality;shape-rendering:geometricPrecision;text-rendering:geometricPrecision"
   viewBox="0 0 22018.002 16587.334"
   id="svg724"
   sodipodi:docname="picture_2b.svg"
   inkscape:version="1.1 (ce6663b3b7, 2021-05-25)"
   xmlns:inkscape="http://www.inkscape.org/namespaces/inkscape"
   xmlns:sodipodi="http://sodipodi.sourceforge.net/DTD/sodipodi-0.dtd"
   xmlns:xlink="http://www.w3.org/1999/xlink"
   xmlns="http://www.w3.org/2000/svg"
   xmlns:svg="http://www.w3.org/2000/svg"><sodipodi:namedview
   id="namedview726"
   pagecolor="#ffffff"
   bordercolor="#666666"
   borderopacity="1.0"
   inkscape:pageshadow="2"
   inkscape:pageopacity="0.0"
   inkscape:pagecheckerboard="0"
   inkscape:document-units="mm"
   showgrid="false"
   inkscape:zoom="1.063373"
   inkscape:cx="442.45998"
   inkscape:cy="312.68426"
   inkscape:window-width="1880"
   inkscape:window-height="1016"
   inkscape:window-x="40"
   inkscape:window-y="27"
   inkscape:window-maximized="1"
   inkscape:current-layer="Layer_x0020_1" />
 <defs
   id="defs168">
  <style
   type="text/css"
   id="style2">
   <![CDATA[
    .fil218 {fill:#F9B861}
    .fil231 {fill:black}
    .fil7 {fill:#051C3B}
    .fil217 {fill:#17AFC9}
    .fil190 {fill:#18144E}
    .fil234 {fill:#18B0C8}
    .fil230 {fill:#1A1A1A}
    .fil189 {fill:#1A1A57}
    .fil204 {fill:#1F2060}
    .fil213 {fill:#222349}
    .fil212 {fill:#234D8A}
    .fil235 {fill:#2CC6DE}
    .fil221 {fill:#30B061}
    .fil208 {fill:#391D48}
    .fil238 {fill:#40DE7D}
    .fil225 {fill:#5BD6F1}
    .fil227 {fill:#5F154A}
    .fil12 {fill:#5F154B}
    .fil229 {fill:#74D5A3}
    .fil223 {fill:#92E296}
    .fil236 {fill:#93253E}
    .fil237 {fill:#999999}
    .fil16 {fill:#A4266D}
    .fil180 {fill:#A5266D}
    .fil179 {fill:#A5276E}
    .fil178 {fill:#A6276E}
    .fil177 {fill:#A6276F}
    .fil176 {fill:#A7286F}
    .fil175 {fill:#A82870}
    .fil174 {fill:#A82970}
    .fil173 {fill:#A92971}
    .fil172 {fill:#AA2971}
    .fil171 {fill:#AA2A72}
    .fil224 {fill:#AA64ED}
    .fil170 {fill:#AB2A72}
    .fil169 {fill:#AC2B73}
    .fil168 {fill:#AD2B73}
    .fil167 {fill:#AD2B74}
    .fil166 {fill:#AD2C74}
    .fil165 {fill:#AE2C74}
    .fil164 {fill:#AE2C75}
    .fil163 {fill:#AF2C75}
    .fil162 {fill:#AF2D75}
    .fil161 {fill:#AF2D76}
    .fil160 {fill:#B02D76}
    .fil159 {fill:#B12E77}
    .fil158 {fill:#B22E77}
    .fil157 {fill:#B22E78}
    .fil156 {fill:#B22F78}
    .fil155 {fill:#B32F78}
    .fil154 {fill:#B42F79}
    .fil153 {fill:#B43079}
    .fil152 {fill:#B53079}
    .fil151 {fill:#B5307A}
    .fil17 {fill:#B6256F}
    .fil150 {fill:#B6307A}
    .fil149 {fill:#B6317A}
    .fil148 {fill:#B6317B}
    .fil18 {fill:#B72670}
    .fil19 {fill:#B72671}
    .fil147 {fill:#B7317B}
    .fil146 {fill:#B7327C}
    .fil20 {fill:#B82771}
    .fil145 {fill:#B8327C}
    .fil21 {fill:#B92772}
    .fil22 {fill:#B92872}
    .fil23 {fill:#B92873}
    .fil144 {fill:#B9327D}
    .fil143 {fill:#B9337D}
    .fil24 {fill:#BA2873}
    .fil25 {fill:#BA2973}
    .fil26 {fill:#BA2974}
    .fil142 {fill:#BA337D}
    .fil141 {fill:#BA337E}
    .fil27 {fill:#BB2A74}
    .fil28 {fill:#BB2A75}
    .fil140 {fill:#BB337E}
    .fil139 {fill:#BB347E}
    .fil29 {fill:#BC2A75}
    .fil30 {fill:#BC2B75}
    .fil31 {fill:#BC2B76}
    .fil138 {fill:#BC347F}
    .fil32 {fill:#BD2B76}
    .fil33 {fill:#BD2C77}
    .fil137 {fill:#BD357F}
    .fil136 {fill:#BD3580}
    .fil34 {fill:#BE2C77}
    .fil35 {fill:#BE2D78}
    .fil135 {fill:#BE3580}
    .fil134 {fill:#BE3681}
    .fil15 {fill:#BE508A}
    .fil36 {fill:#BF2D78}
    .fil37 {fill:#BF2D79}
    .fil38 {fill:#BF2E79}
    .fil133 {fill:#BF3681}
    .fil132 {fill:#BF3682}
    .fil39 {fill:#C02E79}
    .fil40 {fill:#C02E7A}
    .fil41 {fill:#C02F7A}
    .fil131 {fill:#C03782}
    .fil42 {fill:#C12F7B}
    .fil43 {fill:#C1307B}
    .fil130 {fill:#C13783}
    .fil44 {fill:#C2307C}
    .fil45 {fill:#C2317C}
    .fil129 {fill:#C23883}
    .fil128 {fill:#C23884}
    .fil46 {fill:#C3317D}
    .fil47 {fill:#C3327E}
    .fil127 {fill:#C33884}
    .fil126 {fill:#C33984}
    .fil48 {fill:#C4327E}
    .fil49 {fill:#C4337F}
    .fil125 {fill:#C43985}
    .fil50 {fill:#C5337F}
    .fil51 {fill:#C53380}
    .fil124 {fill:#C53985}
    .fil123 {fill:#C53A86}
    .fil52 {fill:#C63480}
    .fil53 {fill:#C63481}
    .fil122 {fill:#C63A86}
    .fil121 {fill:#C63A87}
    .fil120 {fill:#C63B87}
    .fil54 {fill:#C73581}
    .fil55 {fill:#C73582}
    .fil211 {fill:#C73B55}
    .fil119 {fill:#C73B87}
    .fil118 {fill:#C73B88}
    .fil56 {fill:#C83682}
    .fil57 {fill:#C83683}
    .fil117 {fill:#C83B88}
    .fil116 {fill:#C83C88}
    .fil58 {fill:#C93683}
    .fil59 {fill:#C93784}
    .fil115 {fill:#C93C88}
    .fil114 {fill:#C93C89}
    .fil60 {fill:#CA3784}
    .fil61 {fill:#CA3885}
    .fil113 {fill:#CA3C89}
    .fil112 {fill:#CA3D89}
    .fil111 {fill:#CA3D8A}
    .fil62 {fill:#CB3986}
    .fil110 {fill:#CB3D8A}
    .fil63 {fill:#CC3A87}
    .fil109 {fill:#CC3E8B}
    .fil64 {fill:#CD3A88}
    .fil65 {fill:#CD3B88}
    .fil108 {fill:#CD3E8C}
    .fil107 {fill:#CD3F8C}
    .fil66 {fill:#CE3B89}
    .fil67 {fill:#CE3C89}
    .fil68 {fill:#CE3C8A}
    .fil106 {fill:#CE3F8C}
    .fil105 {fill:#CE3F8D}
    .fil69 {fill:#CF3C8A}
    .fil70 {fill:#CF3D8A}
    .fil104 {fill:#CF3F8D}
    .fil103 {fill:#CF408D}
    .fil102 {fill:#CF408E}
    .fil192 {fill:#CFE9FF}
    .fil71 {fill:#D03D8B}
    .fil72 {fill:#D03E8C}
    .fil101 {fill:#D0408E}
    .fil73 {fill:#D13E8C}
    .fil74 {fill:#D13F8D}
    .fil100 {fill:#D1418E}
    .fil99 {fill:#D1418F}
    .fil200 {fill:#D1D1D1}
    .fil75 {fill:#D23F8D}
    .fil76 {fill:#D23F8E}
    .fil98 {fill:#D2418F}
    .fil97 {fill:#D24290}
    .fil77 {fill:#D3408E}
    .fil78 {fill:#D3418F}
    .fil96 {fill:#D34290}
    .fil95 {fill:#D34291}
    .fil79 {fill:#D4418F}
    .fil80 {fill:#D44190}
    .fil81 {fill:#D44290}
    .fil94 {fill:#D44291}
    .fil93 {fill:#D44391}
    .fil82 {fill:#D54290}
    .fil83 {fill:#D54291}
    .fil84 {fill:#D54391}
    .fil92 {fill:#D54392}
    .fil85 {fill:#D64392}
    .fil91 {fill:#D64492}
    .fil90 {fill:#D64493}
    .fil86 {fill:#D74492}
    .fil87 {fill:#D74493}
    .fil89 {fill:#D74593}
    .fil226 {fill:#D84069}
    .fil88 {fill:#D84594}
    .fil5 {fill:#F987F4}
    .fil220 {fill:#FBEE41}
    .fil222 {fill:#FE4469}
    .fil233 {fill:#FE4569}
    .fil228 {fill:#FEBB86}
    .fil196 {fill:#FEE5E1}
    .fil216 {fill:#FF6D84}
    .fil232 {fill:#FF7086}
    .fil207 {fill:#FFA69B}
    .fil219 {fill:#FFB6D6}
    .fil198 {fill:white}
    .fil188 {fill:#686792;fill-opacity:0.509804}
    .fil199 {fill:white;fill-opacity:0.568627}
    .fil197 {fill:white;fill-opacity:0.619608}
    .fil1 {fill:#ABCEEE}
    .fil4 {fill:#DDDDDD}
    .fil2 {fill:#F0F0F0}
    .fil3 {fill:white}
    .fil182 {fill:url(#id10)}
    .fil215 {fill:url(#id11)}
    .fil181 {fill:url(#id12)}
    .fil9 {fill:url(#id13)}
    .fil6 {fill:url(#id14)}
    .fil11 {fill:url(#id15)}
    .fil183 {fill:url(#id16)}
    .fil194 {fill:url(#id17)}
    .fil209 {fill:url(#id18)}
    .fil214 {fill:url(#id19)}
    .fil206 {fill:url(#id20)}
    .fil10 {fill:url(#id21)}
    .fil185 {fill:url(#id22)}
    .fil203 {fill:url(#id23)}
    .fil210 {fill:url(#id24)}
    .fil0 {fill:url(#id25)}
    .fil201 {fill:url(#id26)}
    .fil193 {fill:url(#id27)}
    .fil14 {fill:url(#id28)}
    .fil8 {fill:url(#id29)}
    .fil13 {fill:url(#id30)}
    .fil205 {fill:url(#id31)}
    .fil191 {fill:url(#id32)}
    .fil186 {fill:url(#id33)}
    .fil187 {fill:url(#id34)}
    .fil195 {fill:url(#id35)}
    .fil184 {fill:url(#id36)}
    .fil202 {fill:url(#id37)}
   ]]>
  </style>
    <clipPath
   id="id0">
     <path
   d="m 5436,5375 h 5920 v 8483 H 5436 Z"
   id="path4" />
    </clipPath>
    <clipPath
   id="id1">
     <path
   d="m 6570,9532 h 1877 l -312,3694 H 6259 Z"
   id="path7" />
    </clipPath>
    <clipPath
   id="id2">
     <path
   d="m 6983,9996 h 7475 v 7171 H 6983 Z"
   id="path10" />
    </clipPath>
     <clipPath
   id="id3">
      <path
   d="m 11449,16267 -331,1 c -136,-121 -198,-271 -254,-441 l 1,-190 c 47,-4 95,-4 144,2 -3,99 -18,189 4,285 23,84 87,155 145,221 l 171,12 c 81,23 184,110 120,110 z"
   id="path13" />
     </clipPath>
   <clipPath
   id="id4">
    <path
   d="M 14258,1541 H 25201 V 15168 H 14258 Z"
   id="path16" />
   </clipPath>
     <clipPath
   id="id5">
      <path
   d="m 17512,5010 h 3449 v 8020 h -3449 z"
   id="path19" />
     </clipPath>
     <clipPath
   id="id6">
      <path
   d="m 17798,7250 h 1508 v 1338 h -1508 z"
   id="path22" />
     </clipPath>
     <clipPath
   id="id7">
      <path
   d="m 15112,7556 h 5023 v 7206 h -5023 z"
   id="path25" />
     </clipPath>
     <clipPath
   id="id8">
      <path
   d="m 15737,4336 h 778 v 1772 h -778 z"
   id="path28" />
     </clipPath>
     <clipPath
   id="id9">
      <path
   d="m 15740,6749 h 777 v 1772 h -777 z"
   id="path31" />
     </clipPath>
  <linearGradient
   id="id10"
   gradientUnits="userSpaceOnUse"
   x1="11313"
   y1="14940.4"
   x2="11187.2"
   y2="15252">
   <stop
   offset="0"
   style="stop-opacity:1; stop-color:#E6958A"
   id="stop34" />
   <stop
   offset="1"
   style="stop-opacity:1; stop-color:#E0877B"
   id="stop36" />
  </linearGradient>
  <linearGradient
   id="id11"
   gradientUnits="userSpaceOnUse"
   x1="21482.5"
   y1="8236.1504"
   x2="22661"
   y2="7305.71">
   <stop
   offset="0"
   style="stop-opacity:1; stop-color:#D1D1D1"
   id="stop39" />
   <stop
   offset="0.45098"
   style="stop-opacity:1; stop-color:white"
   id="stop41" />
   <stop
   offset="1"
   style="stop-opacity:1; stop-color:white"
   id="stop43" />
  </linearGradient>
  <linearGradient
   id="id12"
   gradientUnits="userSpaceOnUse"
   x1="12325"
   y1="14436.9"
   x2="11350.1"
   y2="16098">
   <stop
   offset="0"
   style="stop-opacity:1; stop-color:#FCA094"
   id="stop46" />
   <stop
   offset="1"
   style="stop-opacity:1; stop-color:#F08F82"
   id="stop48" />
  </linearGradient>
  <linearGradient
   id="id13"
   gradientUnits="userSpaceOnUse"
   x1="7477.9702"
   y1="11741.9"
   x2="7681.3301"
   y2="10982.4">
   <stop
   offset="0"
   style="stop-opacity:1; stop-color:#098FB2"
   id="stop51" />
   <stop
   offset="1"
   style="stop-opacity:1; stop-color:#76D084"
   id="stop53" />
  </linearGradient>
  <linearGradient
   id="id14"
   gradientUnits="userSpaceOnUse"
   x1="6843.1299"
   y1="12630.8"
   x2="7508.2798"
   y2="12568.4">
   <stop
   offset="0"
   style="stop-opacity:1; stop-color:#5F154B"
   id="stop56" />
   <stop
   offset="1"
   style="stop-opacity:1; stop-color:#FE8BDA"
   id="stop58" />
  </linearGradient>
  <linearGradient
   id="id15"
   gradientUnits="userSpaceOnUse"
   xlink:href="#id13"
   x1="7121.46"
   y1="11940.6"
   x2="7084.98"
   y2="10348.3">
  </linearGradient>
  <linearGradient
   id="id16"
   gradientUnits="userSpaceOnUse"
   x1="11429.9"
   y1="14385.2"
   x2="9766.1104"
   y2="14230.8">
   <stop
   offset="0"
   style="stop-opacity:1; stop-color:#D84069"
   id="stop62" />
   <stop
   offset="1"
   style="stop-opacity:1; stop-color:#EDED58"
   id="stop64" />
  </linearGradient>
  <linearGradient
   id="id17"
   gradientUnits="userSpaceOnUse"
   x1="8102.0898"
   y1="13635"
   x2="9300.0303"
   y2="13680.2">
   <stop
   offset="0"
   style="stop-opacity:1; stop-color:#FF7489"
   id="stop67" />
   <stop
   offset="1"
   style="stop-opacity:1; stop-color:#FE4469"
   id="stop69" />
  </linearGradient>
  <linearGradient
   id="id18"
   gradientUnits="userSpaceOnUse"
   x1="19291.801"
   y1="8610.1504"
   x2="19154.801"
   y2="8615.6299">
   <stop
   offset="0"
   style="stop-opacity:1; stop-color:#AD8E80"
   id="stop72" />
   <stop
   offset="1"
   style="stop-opacity:1; stop-color:#FCFAFA"
   id="stop74" />
  </linearGradient>
  <linearGradient
   id="id19"
   gradientUnits="userSpaceOnUse"
   x1="23037.699"
   y1="10556.9"
   x2="20756.699"
   y2="11201.7">
   <stop
   offset="0"
   style="stop-opacity:1; stop-color:#FFB99A"
   id="stop77" />
   <stop
   offset="0.388235"
   style="stop-opacity:1; stop-color:#FFC24B"
   id="stop79" />
   <stop
   offset="1"
   style="stop-opacity:1; stop-color:#FFE672"
   id="stop81" />
  </linearGradient>
  <linearGradient
   id="id20"
   gradientUnits="userSpaceOnUse"
   x1="17545.801"
   y1="8354.7598"
   x2="16512.1"
   y2="9947.7197">
   <stop
   offset="0"
   style="stop-opacity:1; stop-color:#592C66"
   id="stop84" />
   <stop
   offset="1"
   style="stop-opacity:1; stop-color:#20043C"
   id="stop86" />
  </linearGradient>
  <linearGradient
   id="id21"
   gradientUnits="userSpaceOnUse"
   x1="7170"
   y1="12163.8"
   x2="6993.4399"
   y2="10007.1">
   <stop
   offset="0"
   style="stop-opacity:1; stop-color:#16AFC9"
   id="stop89" />
   <stop
   offset="1"
   style="stop-opacity:1; stop-color:#92E296"
   id="stop91" />
  </linearGradient>
  <linearGradient
   id="id22"
   gradientUnits="userSpaceOnUse"
   xlink:href="#id12"
   x1="10586.9"
   y1="11808.7"
   x2="10746.1"
   y2="12070.7">
  </linearGradient>
  <linearGradient
   id="id23"
   gradientUnits="userSpaceOnUse"
   x1="17295.6"
   y1="10691.4"
   x2="18183.301"
   y2="12382.5">
   <stop
   offset="0"
   style="stop-opacity:1; stop-color:#3873C2"
   id="stop95" />
   <stop
   offset="1"
   style="stop-opacity:1; stop-color:#222B75"
   id="stop97" />
  </linearGradient>
  <linearGradient
   id="id24"
   gradientUnits="userSpaceOnUse"
   x1="17588.801"
   y1="9653.2598"
   x2="18612.6"
   y2="9807.1504">
   <stop
   offset="0"
   style="stop-opacity:1; stop-color:#FE4469"
   id="stop100" />
   <stop
   offset="1"
   style="stop-opacity:1; stop-color:#FE7388"
   id="stop102" />
  </linearGradient>
  <linearGradient
   id="id25"
   gradientUnits="userSpaceOnUse"
   x1="8034.6001"
   y1="4869.3501"
   x2="15368.1"
   y2="17881.1">
   <stop
   offset="0"
   style="stop-opacity:1; stop-color:#FFE672"
   id="stop105" />
   <stop
   offset="0.301961"
   style="stop-opacity:1; stop-color:#FFBF44"
   id="stop107" />
   <stop
   offset="0.588235"
   style="stop-opacity:1; stop-color:#FEBB7F"
   id="stop109" />
   <stop
   offset="1"
   style="stop-opacity:1; stop-color:#FFB6D6"
   id="stop111" />
  </linearGradient>
  <linearGradient
   id="id26"
   gradientUnits="userSpaceOnUse"
   x1="17062.301"
   y1="3490.77"
   x2="15670.9"
   y2="8775.5303">
   <stop
   offset="0"
   style="stop-opacity:1; stop-color:#FFB8AF"
   id="stop114" />
   <stop
   offset="0.658824"
   style="stop-opacity:1; stop-color:#FFBF47"
   id="stop116" />
   <stop
   offset="1"
   style="stop-opacity:1; stop-color:#FFE672"
   id="stop118" />
  </linearGradient>
  <linearGradient
   id="id27"
   gradientUnits="userSpaceOnUse"
   x1="10585.9"
   y1="13679.9"
   x2="12009.7"
   y2="13691.3">
   <stop
   offset="0"
   style="stop-opacity:1; stop-color:#1B1853"
   id="stop121" />
   <stop
   offset="1"
   style="stop-opacity:1; stop-color:#1E1F5E"
   id="stop123" />
  </linearGradient>
  <linearGradient
   id="id28"
   gradientUnits="userSpaceOnUse"
   x1="10293.7"
   y1="15152.2"
   x2="10377.4"
   y2="15901.3">
   <stop
   offset="0"
   style="stop-opacity:1; stop-color:#5F154A"
   id="stop126" />
   <stop
   offset="0.588235"
   style="stop-opacity:1; stop-color:#933572"
   id="stop128" />
   <stop
   offset="1"
   style="stop-opacity:1; stop-color:#BE508A"
   id="stop130" />
  </linearGradient>
  <linearGradient
   id="id29"
   gradientUnits="userSpaceOnUse"
   xlink:href="#id21"
   x1="7411.0698"
   y1="12208.4"
   x2="7671.0801"
   y2="10792.5">
  </linearGradient>
  <linearGradient
   id="id30"
   gradientUnits="userSpaceOnUse"
   x1="10237.5"
   y1="14603.3"
   x2="10234.6"
   y2="14863.5">
   <stop
   offset="0"
   style="stop-opacity:1; stop-color:#933572"
   id="stop134" />
   <stop
   offset="1"
   style="stop-opacity:1; stop-color:#BE508A"
   id="stop136" />
  </linearGradient>
  <linearGradient
   id="id31"
   gradientUnits="userSpaceOnUse"
   xlink:href="#id23"
   x1="17018.199"
   y1="12541.7"
   x2="17619.301"
   y2="12640">
  </linearGradient>
  <linearGradient
   id="id32"
   gradientUnits="userSpaceOnUse"
   x1="11646.3"
   y1="13554.1"
   x2="12448.9"
   y2="12660">
   <stop
   offset="0"
   style="stop-opacity:1; stop-color:#150F43"
   id="stop140" />
   <stop
   offset="1"
   style="stop-opacity:1; stop-color:#24286E"
   id="stop142" />
  </linearGradient>
  <linearGradient
   id="id33"
   gradientUnits="userSpaceOnUse"
   xlink:href="#id12"
   x1="10684.6"
   y1="11307.2"
   x2="11003.4"
   y2="11647.4">
  </linearGradient>
  <linearGradient
   id="id34"
   gradientUnits="userSpaceOnUse"
   x1="10816.8"
   y1="13276.1"
   x2="9483.9297"
   y2="11121.4">
   <stop
   offset="0"
   style="stop-opacity:1; stop-color:#18134C"
   id="stop146" />
   <stop
   offset="1"
   style="stop-opacity:1; stop-color:#1E2C72"
   id="stop148" />
  </linearGradient>
  <linearGradient
   id="id35"
   gradientUnits="userSpaceOnUse"
   x1="17598.4"
   y1="5740.4502"
   x2="19959.199"
   y2="11535.3">
   <stop
   offset="0"
   style="stop-opacity:1; stop-color:#FFE571"
   id="stop151" />
   <stop
   offset="1"
   style="stop-opacity:1; stop-color:#FFB6D6"
   id="stop153" />
  </linearGradient>
  <linearGradient
   id="id36"
   gradientUnits="userSpaceOnUse"
   x1="9859.0195"
   y1="12238.5"
   x2="10505.2"
   y2="13576.5">
   <stop
   offset="0"
   style="stop-opacity:1; stop-color:#FBEF41"
   id="stop156" />
   <stop
   offset="1"
   style="stop-opacity:1; stop-color:#EB9553"
   id="stop158" />
  </linearGradient>
  <linearGradient
   id="id37"
   gradientUnits="userSpaceOnUse"
   x1="18036.199"
   y1="7747.27"
   x2="18951.5"
   y2="8225.5">
   <stop
   offset="0"
   style="stop-opacity:1; stop-color:white"
   id="stop161" />
   <stop
   offset="0.54902"
   style="stop-opacity:1; stop-color:#FEE5E1"
   id="stop163" />
   <stop
   offset="1"
   style="stop-opacity:1; stop-color:white"
   id="stop165" />
  </linearGradient>
 <linearGradient
   inkscape:collect="always"
   xlink:href="#id13"
   id="linearGradient2406"
   gradientUnits="userSpaceOnUse"
   x1="7477.9702"
   y1="11741.9"
   x2="7681.3301"
   y2="10982.4" /><linearGradient
   inkscape:collect="always"
   xlink:href="#id21"
   id="linearGradient2408"
   gradientUnits="userSpaceOnUse"
   x1="7170"
   y1="12163.8"
   x2="6993.4399"
   y2="10007.1" /><linearGradient
   inkscape:collect="always"
   xlink:href="#id12"
   id="linearGradient2410"
   gradientUnits="userSpaceOnUse"
   x1="12325"
   y1="14436.9"
   x2="11350.1"
   y2="16098" /><linearGradient
   inkscape:collect="always"
   xlink:href="#id23"
   id="linearGradient2412"
   gradientUnits="userSpaceOnUse"
   x1="17295.6"
   y1="10691.4"
   x2="18183.301"
   y2="12382.5" /></defs>
 <g
   id="Layer_x0020_1"
   inkscape:label="Layer 1"
   inkscape:groupmode="layer"
   transform="translate(-3430.1667,-1717)">
  <metadata
   id="CorelCorpID_0Corel-Layer" />
  <path
   class="fil0"
   d="m 18994,1717 c 5869,0 3254,2051 5620,8335 2366,6284 -69,8861 -10301,7722 -3001,-333 -4928,1595 -6862,-356 C 5623,15575 8593,14860 6624,12937 310,6771 4653,6186 8562,4671 9785,4196 17594,1717 18994,1717 Z"
   id="path171"
   style="fill:url(#id25)" />
  
  <g
   id="_2142269946176">
   <polygon
   class="fil1"
   points="10210,12586 10210,8428 8616,8428 8616,12586 "
   id="polygon178" />
   <path
   class="fil2"
   d="m 8270,6237 c 647,-29 1322,113 1811,473 112,83 215,177 306,284 l 1,1 v 5775 h -4 -1997 -1972 v -4533 -1242 -1 c 57,-76 126,-147 205,-213 382,-318 1003,-516 1650,-544 z m 2264,6669 V 6855 C 9506,5673 6985,5920 6267,6855 v 6051 z"
   id="path180" />
   <path
   class="fil2"
   d="M 10232,6977 V 8072 H 6582 V 6977 c 986,-758 2565,-852 3650,0 z m 148,1261 V 6998 c -90,-106 -192,-200 -304,-282 -487,-359 -1160,-500 -1806,-472 -645,28 -1264,225 -1645,543 -78,65 -146,136 -203,211 v 1239 l 1967,1 v -1 z"
   id="path182" />
   <path
   class="fil2"
   d="M 10377,8238 H 8389 l -2,4525 h 1993 V 8238 Z m -167,190 H 8616 v 4158 h 1594 z"
   id="path184" />
   <path
   class="fil2"
   d="m 8387,12763 2,-4525 -1967,-1 v 4526 z M 6611,8428 h 1594 v 4158 H 6611 Z"
   id="path186" />
   <polygon
   class="fil3"
   points="6119,13080 10673,13080 10534,12906 6267,12906 "
   id="polygon188" />
   <polygon
   class="fil4"
   points="6119,13175 10673,13175 10673,13080 6119,13080 "
   id="polygon190" />
   <path
   class="fil1"
   d="m 6582,8072 h 3650 V 6977 c -1085,-852 -2664,-758 -3650,0 z"
   id="path192" />
   <polygon
   class="fil1"
   points="6611,12586 8205,12586 8205,8428 6611,8428 "
   id="polygon194" />
  </g>
  
  <g
   id="_2142269941088">
   <path
   class="fil5"
   d="m 6769,12351 c -14,-25 -18,-54 -15,-80 5,-23 10,-43 23,-60 12,-15 29,-27 48,-41 15,-9 156,-64 177,-69 10,14 -44,60 -112,93 -66,8 -71,45 -79,60 -20,141 223,194 341,197 177,4 335,9 464,-126 15,-25 -17,-51 -26,-79 -479,81 -48,-199 38,-43 184,331 -694,384 -859,148 z"
   id="path202" />
   <path
   class="fil6"
   d="m 6768,12294 c 143,256 817,267 882,-16 1,-3 0,-5 0,-8 0,-10 -2,-15 -3,-23 0,0 0,0 0,0 1,3 6,19 6,36 14,302 -153,567 -350,737 -63,9 -136,6 -204,-1 -154,-101 -336,-512 -346,-727 -1,-40 5,-67 27,-85 -15,40 -26,56 -12,87 z"
   id="path204"
   style="fill:url(#id14)" />
   <path
   class="fil7"
   d="m 6792,12276 c 0,-100 189,-180 421,-180 233,0 421,80 421,180 0,99 -173,184 -421,180 -248,-4 -421,-81 -421,-180 z"
   id="path206" />
   <g
   id="g220">
    <g
   id="g212">
     <path
   class="fil8"
   d="m 7331,11189 c 111,-64 143,-155 189,-262 20,16 44,18 66,27 -9,-32 -24,-61 -27,-96 151,-307 62,-385 66,-592 58,63 117,125 157,206 -9,23 -21,42 -27,69 24,-2 44,-14 65,-22 8,63 42,107 62,161 -9,24 -22,44 -28,72 23,25 50,35 74,52 17,129 4,224 -26,318 -48,61 -101,39 -148,60 22,34 69,30 103,45 -169,249 -251,386 -172,577 -42,37 -119,63 -126,110 48,8 93,-8 137,-12 -6,62 -25,118 -56,168 -48,-42 -49,9 -30,43 -65,82 -164,149 -284,204 -30,-1 -62,13 -94,4 108,-228 431,-383 281,-756 -59,27 -112,65 -178,80 40,-63 77,-131 108,-209 -37,-82 -85,-159 -112,-247 z"
   id="path208"
   style="fill:url(#id29)" />
     <path
   class="fil9"
   d="m 7347,11669 c -14,-77 -48,-151 -50,-244 24,65 43,154 78,186 l 172,-269 c 12,-49 -41,-114 -38,-187 20,51 40,125 66,142 143,-170 95,-358 123,-553 -3,135 16,272 -7,405 38,-28 65,-70 115,-85 -54,37 -89,89 -133,133 -53,84 -99,174 -158,253 23,20 98,-27 132,-28 -60,43 -120,59 -181,94 -244,121 -14,728 -119,153 z"
   id="path210"
   style="fill:url(#linearGradient2406)" />
    </g>
    <g
   id="g218">
     <path
   class="fil10"
   d="m 7389,10609 c -70,198 -98,426 -50,574 26,89 74,165 112,247 -31,79 -69,147 -108,210 66,-16 118,-54 177,-80 151,373 -172,527 -280,755 -63,14 -133,16 -202,7 -100,-358 -505,-637 -546,-987 64,-7 129,3 193,-20 -58,-51 -134,-88 -174,-154 102,-258 277,-445 306,-773 34,0 58,4 101,-1 -19,-37 -67,-61 -97,-91 -34,-254 -7,-530 -236,-826 606,198 759,667 823,978 -56,69 -114,114 -171,162 52,14 104,-2 152,-1 z"
   id="path214"
   style="fill:url(#linearGradient2408)" />
     <path
   class="fil11"
   d="m 7173,11305 c -203,558 101,606 -3,1019 -19,2 -39,4 -59,4 4,-119 16,-240 -16,-364 -30,-79 -253,-214 -333,-343 105,94 205,176 312,227 -52,-120 -95,-325 -188,-545 -44,-105 -131,-188 -174,-316 62,79 126,195 189,224 l 122,-445 c -4,-73 -105,-141 -132,-243 49,63 108,156 152,169 124,-296 -21,-535 -66,-816 54,187 138,369 163,562 41,-56 60,-124 122,-167 -59,74 -84,161 -127,241 -36,139 -62,283 -110,417 40,17 124,-79 171,-95 -66,85 -141,132 -210,206 -81,276 19,389 50,568 63,-23 51,-230 137,-303 z"
   id="path216"
   style="fill:url(#id15)" />
    </g>
   </g>
  </g>
  
  <g
   id="_2142269933440">
   <polygon
   class="fil12"
   points="13630,13992 7810,13992 7810,13729 13630,13729 "
   id="polygon228" />
   <polygon
   class="fil12"
   points="13100,13978 12178,16339 12119,16339 13045,13966 "
   id="polygon230" />
   <polygon
   class="fil12"
   points="12314,13972 13238,16339 13297,16339 12369,13960 "
   id="polygon232" />
   <polygon
   class="fil12"
   points="9105,13977 8184,16339 8125,16339 9051,13965 "
   id="polygon234" />
   <polygon
   class="fil12"
   points="8320,13972 9244,16339 9303,16339 8375,13960 "
   id="polygon236" />
   <path
   class="fil13"
   d="m 9608,14586 h 1384 c 0,97 0,163 0,260 0,56 8,78 -48,78 H 9637 c -28,-2 -29,-33 -29,-62 z"
   id="path238"
   style="fill:url(#id30)" />
   <polygon
   class="fil14"
   points="10377,14922 10377,16209 10263,16209 10263,14922 "
   id="polygon240"
   style="fill:url(#id28)" />
   <polygon
   class="fil15"
   points="10873,16230 9793,16230 9793,16173 10873,16173 "
   id="polygon242" />
   <path
   class="fil16"
   d="m 12690,16164 c 77,34 238,132 167,132 l -377,-2 c -26,-16 -47,-24 -78,-31 -98,-12 -137,9 -235,10 l -100,-6 -25,-73 c 2,-45 8,-86 22,-127 71,31 135,70 214,92 152,20 278,44 412,5 z"
   id="path244" />
   <g
   id="g505">
    <g
   clip-path="url(#id3)"
   id="g503">
     <polygon
   class="fil17"
   points="11345,15659 11135,16203 11387,15668 "
   id="polygon246" />
     <polygon
   id="1"
   class="fil18"
   points="11317,15653 11135,16203 11352,15660 " />
     <polygon
   id="2"
   class="fil18"
   points="11288,15648 11135,16203 11324,15655 " />
     <polygon
   id="3"
   class="fil19"
   points="11260,15643 11135,16203 11295,15649 " />
     <polygon
   id="4"
   class="fil20"
   points="11232,15638 11135,16203 11267,15644 " />
     <polygon
   id="5"
   class="fil20"
   points="11203,15634 11135,16203 11239,15639 " />
     <polygon
   id="6"
   class="fil21"
   points="11175,15630 11135,16203 11211,15635 " />
     <polygon
   id="7"
   class="fil22"
   points="11147,15626 11135,16203 11182,15631 " />
     <polygon
   id="8"
   class="fil23"
   points="11118,15623 11135,16203 11154,15627 " />
     <polygon
   id="9"
   class="fil24"
   points="11090,15620 11135,16203 11125,15624 " />
     <polygon
   id="10"
   class="fil25"
   points="11061,15617 11135,16203 11097,15621 " />
     <polygon
   id="11"
   class="fil26"
   points="11033,15615 11135,16203 11068,15618 " />
     <polygon
   id="12"
   class="fil27"
   points="11005,15613 11135,16203 11040,15616 " />
     <polygon
   id="13"
   class="fil28"
   points="10976,15612 11135,16203 11012,15614 " />
     <polygon
   id="14"
   class="fil29"
   points="10948,15610 11135,16203 10983,15612 " />
     <polygon
   id="15"
   class="fil30"
   points="10920,15610 11135,16203 10955,15611 " />
     <polygon
   id="16"
   class="fil31"
   points="10892,15609 11135,16203 10927,15610 " />
     <polygon
   id="17"
   class="fil32"
   points="10864,15609 11135,16203 10899,15609 " />
     <polygon
   id="18"
   class="fil33"
   points="10837,15609 11135,16203 10871,15609 " />
     <polygon
   id="19"
   class="fil33"
   points="10809,15610 11135,16203 10844,15609 " />
     <polygon
   id="20"
   class="fil34"
   points="10782,15611 11135,16203 10816,15610 " />
     <polygon
   id="21"
   class="fil35"
   points="10755,15612 11135,16203 10789,15611 " />
     <polygon
   id="22"
   class="fil36"
   points="10728,15614 11135,16203 10762,15612 " />
     <polygon
   id="23"
   class="fil37"
   points="10702,15616 11135,16203 10735,15613 " />
     <polygon
   id="24"
   class="fil38"
   points="10676,15618 11135,16203 10709,15615 " />
     <polygon
   id="25"
   class="fil39"
   points="10650,15621 11135,16203 10682,15618 " />
     <polygon
   id="26"
   class="fil40"
   points="10624,15624 11135,16203 10656,15620 " />
     <polygon
   id="27"
   class="fil41"
   points="10599,15627 11135,16203 10630,15623 " />
     <polygon
   id="28"
   class="fil42"
   points="10573,15631 11135,16203 10605,15626 " />
     <polygon
   id="29"
   class="fil42"
   points="10549,15635 11135,16203 10580,15630 " />
     <polygon
   id="30"
   class="fil43"
   points="10524,15640 11135,16203 10555,15634 " />
     <polygon
   id="31"
   class="fil44"
   points="10500,15644 11135,16203 10530,15639 " />
     <polygon
   id="32"
   class="fil45"
   points="10477,15650 11135,16203 10506,15643 " />
     <polygon
   id="33"
   class="fil46"
   points="10453,15655 11135,16203 10483,15648 " />
     <polygon
   id="34"
   class="fil46"
   points="10431,15661 11135,16203 10459,15654 " />
     <polygon
   id="35"
   class="fil47"
   points="10408,15667 11135,16203 10436,15659 " />
     <polygon
   id="36"
   class="fil48"
   points="10386,15673 11135,16203 10414,15665 " />
     <polygon
   id="37"
   class="fil48"
   points="10365,15680 11135,16203 10392,15672 " />
     <polygon
   id="38"
   class="fil49"
   points="10344,15687 11135,16203 10370,15679 " />
     <polygon
   id="39"
   class="fil50"
   points="10323,15695 11135,16203 10349,15686 " />
     <polygon
   id="40"
   class="fil51"
   points="10303,15702 11135,16203 10328,15693 " />
     <polygon
   id="41"
   class="fil52"
   points="10284,15710 11135,16203 10308,15700 " />
     <polygon
   id="42"
   class="fil52"
   points="10264,15719 11135,16203 10288,15708 " />
     <polygon
   id="43"
   class="fil53"
   points="10246,15727 11135,16203 10269,15717 " />
     <polygon
   id="44"
   class="fil54"
   points="10228,15736 11135,16203 10251,15725 " />
     <polygon
   id="45"
   class="fil55"
   points="10210,15745 11135,16203 10232,15734 " />
     <polygon
   id="46"
   class="fil55"
   points="10194,15755 11135,16203 10215,15743 " />
     <polygon
   id="47"
   class="fil56"
   points="10177,15764 11135,16203 10198,15752 " />
     <polygon
   id="48"
   class="fil57"
   points="10161,15774 11135,16203 10181,15762 " />
     <polygon
   id="49"
   class="fil58"
   points="10146,15785 11135,16203 10165,15772 " />
     <polygon
   id="50"
   class="fil59"
   points="10132,15795 11135,16203 10150,15782 " />
     <polygon
   id="51"
   class="fil59"
   points="10118,15806 11135,16203 10135,15792 " />
     <polygon
   id="52"
   class="fil60"
   points="10104,15817 11135,16203 10121,15803 " />
     <polygon
   id="53"
   class="fil61"
   points="10092,15828 11135,16203 10108,15814 " />
     <polygon
   id="54"
   class="fil61"
   points="10080,15839 11135,16203 10095,15825 " />
     <polygon
   id="55"
   class="fil62"
   points="10068,15851 11135,16203 10083,15836 " />
     <polygon
   id="56"
   class="fil62"
   points="10057,15863 11135,16203 10071,15848 " />
     <polygon
   id="57"
   class="fil62"
   points="10047,15875 11135,16203 10060,15860 " />
     <polygon
   id="58"
   class="fil63"
   points="10038,15887 11135,16203 10050,15872 " />
     <polygon
   id="59"
   class="fil63"
   points="10029,15900 11135,16203 10040,15884 " />
     <polygon
   id="60"
   class="fil64"
   points="10021,15912 11135,16203 10031,15896 " />
     <polygon
   id="61"
   class="fil65"
   points="10013,15925 11135,16203 10023,15909 " />
     <polygon
   id="62"
   class="fil65"
   points="10006,15938 11135,16203 10015,15922 " />
     <polygon
   id="63"
   class="fil66"
   points="10000,15951 11135,16203 10008,15935 " />
     <polygon
   id="64"
   class="fil67"
   points="9995,15964 11135,16203 10002,15948 " />
     <polygon
   id="65"
   class="fil68"
   points="9990,15978 11135,16203 9996,15961 " />
     <polygon
   id="66"
   class="fil69"
   points="9986,15991 11135,16203 9991,15974 " />
     <polygon
   id="67"
   class="fil70"
   points="9982,16005 11135,16203 9987,15988 " />
     <polygon
   id="68"
   class="fil71"
   points="9980,16019 11135,16203 9983,16002 " />
     <polygon
   id="69"
   class="fil71"
   points="9977,16033 11135,16203 9980,16015 " />
     <polygon
   id="70"
   class="fil72"
   points="9976,16047 11135,16203 9978,16029 " />
     <polygon
   id="71"
   class="fil73"
   points="9976,16061 11135,16203 9977,16043 " />
     <polygon
   id="72"
   class="fil73"
   points="9976,16075 11135,16203 9976,16057 " />
     <polygon
   id="73"
   class="fil74"
   points="9976,16089 11135,16203 9976,16071 " />
     <polygon
   id="74"
   class="fil75"
   points="9978,16104 11135,16203 9976,16086 " />
     <polygon
   id="75"
   class="fil76"
   points="9980,16118 11135,16203 9978,16100 " />
     <polygon
   id="76"
   class="fil77"
   points="9983,16133 11135,16203 9980,16114 " />
     <polygon
   id="77"
   class="fil77"
   points="9986,16147 11135,16203 9982,16129 " />
     <polygon
   id="78"
   class="fil78"
   points="9991,16162 11135,16203 9986,16143 " />
     <polygon
   id="79"
   class="fil79"
   points="9996,16176 11135,16203 9990,16158 " />
     <polygon
   id="80"
   class="fil80"
   points="10001,16191 11135,16203 9994,16172 " />
     <polygon
   id="81"
   class="fil81"
   points="10008,16205 11135,16203 10000,16187 " />
     <polygon
   id="82"
   class="fil82"
   points="10015,16220 11135,16203 10006,16202 " />
     <polygon
   id="83"
   class="fil83"
   points="10022,16234 11135,16203 10013,16216 " />
     <polygon
   id="84"
   class="fil84"
   points="10031,16249 11135,16203 10020,16231 " />
     <polygon
   id="85"
   class="fil85"
   points="10040,16263 11135,16203 10029,16245 " />
     <polygon
   id="86"
   class="fil85"
   points="10049,16278 11135,16203 10037,16260 " />
     <polygon
   id="87"
   class="fil86"
   points="10060,16292 11135,16203 10047,16274 " />
     <polygon
   id="88"
   class="fil87"
   points="10070,16307 11135,16203 10057,16289 " />
     <polygon
   id="89"
   class="fil87"
   points="10082,16321 11135,16203 10068,16303 " />
     <polygon
   id="90"
   class="fil88"
   points="10094,16335 11135,16203 10079,16317 " />
     <polygon
   id="91"
   class="fil88"
   points="10107,16349 11135,16203 10091,16332 " />
     <polygon
   id="92"
   class="fil88"
   points="10121,16364 11135,16203 10104,16346 " />
     <polygon
   id="93"
   class="fil89"
   points="10135,16378 11135,16203 10117,16360 " />
     <polygon
   id="94"
   class="fil87"
   points="10149,16391 11135,16203 10131,16374 " />
     <polygon
   id="95"
   class="fil87"
   points="10165,16405 11135,16203 10146,16388 " />
     <polygon
   id="96"
   class="fil90"
   points="10181,16419 11135,16203 10161,16402 " />
     <polygon
   id="97"
   class="fil90"
   points="10197,16432 11135,16203 10177,16415 " />
     <polygon
   id="98"
   class="fil91"
   points="10214,16446 11135,16203 10193,16429 " />
     <polygon
   id="99"
   class="fil92"
   points="10232,16459 11135,16203 10210,16442 " />
     <polygon
   id="100"
   class="fil92"
   points="10250,16472 11135,16203 10227,16456 " />
     <polygon
   id="101"
   class="fil92"
   points="10268,16485 11135,16203 10245,16469 " />
     <polygon
   id="102"
   class="fil93"
   points="10288,16498 11135,16203 10264,16482 " />
     <polygon
   id="103"
   class="fil93"
   points="10307,16510 11135,16203 10283,16494 " />
     <polygon
   id="104"
   class="fil94"
   points="10327,16523 11135,16203 10302,16507 " />
     <polygon
   id="105"
   class="fil95"
   points="10348,16535 11135,16203 10322,16519 " />
     <polygon
   id="106"
   class="fil96"
   points="10369,16547 11135,16203 10343,16532 " />
     <polygon
   id="107"
   class="fil96"
   points="10391,16559 11135,16203 10364,16544 " />
     <polygon
   id="108"
   class="fil96"
   points="10413,16570 11135,16203 10385,16556 " />
     <polygon
   id="109"
   class="fil97"
   points="10435,16581 11135,16203 10407,16567 " />
     <polygon
   id="110"
   class="fil98"
   points="10458,16593 11135,16203 10430,16579 " />
     <polygon
   id="111"
   class="fil98"
   points="10482,16603 11135,16203 10453,16590 " />
     <polygon
   id="112"
   class="fil99"
   points="10505,16614 11135,16203 10476,16601 " />
     <polygon
   id="113"
   class="fil99"
   points="10529,16624 11135,16203 10499,16611 " />
     <polygon
   id="114"
   class="fil100"
   points="10554,16635 11135,16203 10523,16622 " />
     <polygon
   id="115"
   class="fil101"
   points="10579,16645 11135,16203 10548,16632 " />
     <polygon
   id="116"
   class="fil101"
   points="10604,16654 11135,16203 10572,16642 " />
     <polygon
   id="117"
   class="fil101"
   points="10629,16663 11135,16203 10598,16652 " />
     <polygon
   id="118"
   class="fil102"
   points="10655,16673 11135,16203 10623,16661 " />
     <polygon
   id="119"
   class="fil103"
   points="10681,16681 11135,16203 10649,16670 " />
     <polygon
   id="120"
   class="fil104"
   points="10707,16690 11135,16203 10675,16679 " />
     <polygon
   id="121"
   class="fil105"
   points="10734,16698 11135,16203 10701,16688 " />
     <polygon
   id="122"
   class="fil105"
   points="10761,16706 11135,16203 10727,16696 " />
     <polygon
   id="123"
   class="fil106"
   points="10788,16713 11135,16203 10754,16704 " />
     <polygon
   id="124"
   class="fil107"
   points="10815,16721 11135,16203 10781,16712 " />
     <polygon
   id="125"
   class="fil107"
   points="10843,16728 11135,16203 10808,16719 " />
     <polygon
   id="126"
   class="fil108"
   points="10870,16734 11135,16203 10836,16726 " />
     <polygon
   id="127"
   class="fil109"
   points="10898,16741 11135,16203 10863,16733 " />
     <polygon
   id="128"
   class="fil109"
   points="10926,16747 11135,16203 10891,16739 " />
     <polygon
   id="129"
   class="fil109"
   points="10954,16752 11135,16203 10919,16745 " />
     <polygon
   id="130"
   class="fil109"
   points="10982,16758 11135,16203 10947,16751 " />
     <polygon
   id="131"
   class="fil110"
   points="11010,16763 11135,16203 10975,16756 " />
     <polygon
   id="132"
   class="fil110"
   points="11039,16768 11135,16203 11003,16762 " />
     <polygon
   id="133"
   class="fil110"
   points="11067,16772 11135,16203 11032,16766 " />
     <polygon
   id="134"
   class="fil111"
   points="11096,16776 11135,16203 11060,16771 " />
     <polygon
   id="135"
   class="fil112"
   points="11124,16780 11135,16203 11088,16775 " />
     <polygon
   id="136"
   class="fil113"
   points="11153,16783 11135,16203 11117,16779 " />
     <polygon
   id="137"
   class="fil114"
   points="11181,16786 11135,16203 11145,16782 " />
     <polygon
   id="138"
   class="fil114"
   points="11209,16788 11135,16203 11174,16785 " />
     <polygon
   id="139"
   class="fil115"
   points="11238,16791 11135,16203 11202,16788 " />
     <polygon
   id="140"
   class="fil116"
   points="11266,16793 11135,16203 11231,16790 " />
     <polygon
   id="141"
   class="fil117"
   points="11294,16794 11135,16203 11259,16792 " />
     <polygon
   id="142"
   class="fil117"
   points="11322,16795 11135,16203 11287,16794 " />
     <polygon
   id="143"
   class="fil118"
   points="11351,16796 11135,16203 11315,16795 " />
     <polygon
   id="144"
   class="fil119"
   points="11378,16797 11135,16203 11344,16796 " />
     <polygon
   id="145"
   class="fil119"
   points="11406,16797 11135,16203 11371,16796 " />
     <polygon
   id="146"
   class="fil120"
   points="11434,16797 11135,16203 11399,16797 " />
     <polygon
   id="147"
   class="fil121"
   points="11461,16796 11135,16203 11427,16797 " />
     <polygon
   id="148"
   class="fil122"
   points="11488,16795 11135,16203 11454,16796 " />
     <polygon
   id="149"
   class="fil123"
   points="11515,16794 11135,16203 11482,16795 " />
     <polygon
   id="150"
   class="fil123"
   points="11542,16792 11135,16203 11509,16794 " />
     <polygon
   id="151"
   class="fil123"
   points="11569,16790 11135,16203 11535,16792 " />
     <polygon
   id="152"
   class="fil124"
   points="11595,16788 11135,16203 11562,16790 " />
     <polygon
   id="153"
   class="fil125"
   points="11621,16785 11135,16203 11588,16788 " />
     <polygon
   id="154"
   class="fil125"
   points="11647,16782 11135,16203 11614,16786 " />
     <polygon
   id="155"
   class="fil125"
   points="11672,16778 11135,16203 11640,16783 " />
     <polygon
   id="156"
   class="fil126"
   points="11697,16775 11135,16203 11666,16779 " />
     <polygon
   id="157"
   class="fil127"
   points="11722,16770 11135,16203 11691,16776 " />
     <polygon
   id="158"
   class="fil127"
   points="11746,16766 11135,16203 11716,16772 " />
     <polygon
   id="159"
   class="fil128"
   points="11770,16761 11135,16203 11740,16767 " />
     <polygon
   id="160"
   class="fil129"
   points="11794,16756 11135,16203 11764,16762 " />
     <polygon
   id="161"
   class="fil129"
   points="11817,16751 11135,16203 11788,16757 " />
     <polygon
   id="162"
   class="fil130"
   points="11840,16745 11135,16203 11811,16752 " />
     <polygon
   id="163"
   class="fil130"
   points="11862,16739 11135,16203 11834,16746 " />
     <polygon
   id="164"
   class="fil130"
   points="11884,16732 11135,16203 11857,16740 " />
     <polygon
   id="165"
   class="fil131"
   points="11906,16726 11135,16203 11879,16734 " />
     <polygon
   id="166"
   class="fil131"
   points="11927,16718 11135,16203 11900,16727 " />
     <polygon
   id="167"
   class="fil131"
   points="11947,16711 11135,16203 11922,16720 " />
     <polygon
   id="168"
   class="fil132"
   points="11968,16703 11135,16203 11942,16713 " />
     <polygon
   id="169"
   class="fil133"
   points="11987,16695 11135,16203 11962,16705 " />
     <polygon
   id="170"
   class="fil133"
   points="12006,16687 11135,16203 11982,16697 " />
     <polygon
   id="171"
   class="fil134"
   points="12025,16678 11135,16203 12001,16689 " />
     <polygon
   id="172"
   class="fil134"
   points="12043,16670 11135,16203 12020,16681 " />
     <polygon
   id="173"
   class="fil135"
   points="12060,16660 11135,16203 12038,16672 " />
     <polygon
   id="174"
   class="fil136"
   points="12077,16651 11135,16203 12056,16663 " />
     <polygon
   id="175"
   class="fil136"
   points="12093,16641 11135,16203 12073,16653 " />
     <polygon
   id="176"
   class="fil136"
   points="12109,16631 11135,16203 12089,16644 " />
     <polygon
   id="177"
   class="fil137"
   points="12124,16621 11135,16203 12105,16634 " />
     <polygon
   id="178"
   class="fil138"
   points="12139,16611 11135,16203 12120,16624 " />
     <polygon
   id="179"
   class="fil138"
   points="12153,16600 11135,16203 12135,16613 " />
     <polygon
   id="180"
   class="fil138"
   points="12166,16589 11135,16203 12149,16603 " />
     <polygon
   id="181"
   class="fil139"
   points="12179,16578 11135,16203 12163,16592 " />
     <polygon
   id="182"
   class="fil139"
   points="12191,16566 11135,16203 12176,16581 " />
     <polygon
   id="183"
   class="fil140"
   points="12202,16555 11135,16203 12188,16569 " />
     <polygon
   id="184"
   class="fil141"
   points="12213,16543 11135,16203 12200,16558 " />
     <polygon
   id="185"
   class="fil142"
   points="12223,16531 11135,16203 12211,16546 " />
     <polygon
   id="186"
   class="fil142"
   points="12233,16519 11135,16203 12221,16534 " />
     <polygon
   id="187"
   class="fil143"
   points="12242,16506 11135,16203 12231,16522 " />
     <polygon
   id="188"
   class="fil143"
   points="12250,16494 11135,16203 12240,16509 " />
     <polygon
   id="189"
   class="fil144"
   points="12258,16481 11135,16203 12248,16497 " />
     <polygon
   id="190"
   class="fil145"
   points="12264,16468 11135,16203 12256,16484 " />
     <polygon
   id="191"
   class="fil145"
   points="12271,16455 11135,16203 12263,16471 " />
     <polygon
   id="192"
   class="fil145"
   points="12276,16441 11135,16203 12269,16458 " />
     <polygon
   id="193"
   class="fil146"
   points="12281,16428 11135,16203 12275,16445 " />
     <polygon
   id="194"
   class="fil147"
   points="12285,16414 11135,16203 12280,16431 " />
     <polygon
   id="195"
   class="fil147"
   points="12288,16401 11135,16203 12284,16418 " />
     <polygon
   id="196"
   class="fil148"
   points="12291,16387 11135,16203 12287,16404 " />
     <polygon
   id="197"
   class="fil148"
   points="12293,16373 11135,16203 12290,16390 " />
     <polygon
   id="198"
   class="fil149"
   points="12294,16359 11135,16203 12293,16376 " />
     <polygon
   id="199"
   class="fil150"
   points="12295,16345 11135,16203 12294,16362 " />
     <polygon
   id="200"
   class="fil151"
   points="12295,16331 11135,16203 12295,16348 " />
     <polygon
   id="201"
   class="fil151"
   points="12294,16316 11135,16203 12295,16334 " />
     <polygon
   id="202"
   class="fil152"
   points="12293,16302 11135,16203 12294,16320 " />
     <polygon
   id="203"
   class="fil153"
   points="12291,16288 11135,16203 12293,16306 " />
     <polygon
   id="204"
   class="fil154"
   points="12288,16273 11135,16203 12291,16291 " />
     <polygon
   id="205"
   class="fil154"
   points="12284,16259 11135,16203 12288,16277 " />
     <polygon
   id="206"
   class="fil155"
   points="12280,16244 11135,16203 12285,16262 " />
     <polygon
   id="207"
   class="fil155"
   points="12275,16230 11135,16203 12281,16248 " />
     <polygon
   id="208"
   class="fil155"
   points="12269,16215 11135,16203 12276,16233 " />
     <polygon
   id="209"
   class="fil156"
   points="12263,16200 11135,16203 12271,16219 " />
     <polygon
   id="210"
   class="fil157"
   points="12256,16186 11135,16203 12265,16204 " />
     <polygon
   id="211"
   class="fil158"
   points="12248,16171 11135,16203 12258,16190 " />
     <polygon
   id="212"
   class="fil159"
   points="12240,16157 11135,16203 12250,16175 " />
     <polygon
   id="213"
   class="fil159"
   points="12231,16142 11135,16203 12242,16160 " />
     <polygon
   id="214"
   class="fil159"
   points="12221,16128 11135,16203 12233,16146 " />
     <polygon
   id="215"
   class="fil160"
   points="12211,16113 11135,16203 12224,16131 " />
     <polygon
   id="216"
   class="fil160"
   points="12200,16099 11135,16203 12214,16117 " />
     <polygon
   id="217"
   class="fil160"
   points="12189,16085 11135,16203 12203,16103 " />
     <polygon
   id="218"
   class="fil161"
   points="12176,16070 11135,16203 12191,16088 " />
     <polygon
   id="219"
   class="fil162"
   points="12163,16056 11135,16203 12179,16074 " />
     <polygon
   id="220"
   class="fil163"
   points="12150,16042 11135,16203 12167,16060 " />
     <polygon
   id="221"
   class="fil163"
   points="12136,16028 11135,16203 12153,16046 " />
     <polygon
   id="222"
   class="fil164"
   points="12121,16014 11135,16203 12139,16032 " />
     <polygon
   id="223"
   class="fil165"
   points="12106,16001 11135,16203 12125,16018 " />
     <polygon
   id="224"
   class="fil165"
   points="12090,15987 11135,16203 12110,16004 " />
     <polygon
   id="225"
   class="fil166"
   points="12074,15973 11135,16203 12094,15990 " />
     <polygon
   id="226"
   class="fil167"
   points="12057,15960 11135,16203 12078,15977 " />
     <polygon
   id="227"
   class="fil168"
   points="12039,15947 11135,16203 12061,15963 " />
     <polygon
   id="228"
   class="fil169"
   points="12021,15934 11135,16203 12043,15950 " />
     <polygon
   id="229"
   class="fil169"
   points="12002,15921 11135,16203 12025,15937 " />
     <polygon
   id="230"
   class="fil169"
   points="11983,15908 11135,16203 12007,15924 " />
     <polygon
   id="231"
   class="fil170"
   points="11963,15895 11135,16203 11988,15911 " />
     <polygon
   id="232"
   class="fil170"
   points="11943,15883 11135,16203 11968,15899 " />
     <polygon
   id="233"
   class="fil170"
   points="11923,15871 11135,16203 11948,15886 " />
     <polygon
   id="234"
   class="fil171"
   points="11901,15859 11135,16203 11928,15874 " />
     <polygon
   id="235"
   class="fil171"
   points="11880,15847 11135,16203 11907,15862 " />
     <polygon
   id="236"
   class="fil172"
   points="11858,15836 11135,16203 11885,15850 " />
     <polygon
   id="237"
   class="fil173"
   points="11835,15824 11135,16203 11863,15838 " />
     <polygon
   id="238"
   class="fil173"
   points="11812,15813 11135,16203 11841,15827 " />
     <polygon
   id="239"
   class="fil173"
   points="11789,15802 11135,16203 11818,15816 " />
     <polygon
   id="240"
   class="fil174"
   points="11765,15792 11135,16203 11795,15805 " />
     <polygon
   id="241"
   class="fil175"
   points="11741,15781 11135,16203 11771,15794 " />
     <polygon
   id="242"
   class="fil175"
   points="11717,15771 11135,16203 11747,15784 " />
     <polygon
   id="243"
   class="fil175"
   points="11692,15761 11135,16203 11723,15774 " />
     <polygon
   id="244"
   class="fil176"
   points="11667,15752 11135,16203 11698,15764 " />
     <polygon
   id="245"
   class="fil176"
   points="11641,15742 11135,16203 11673,15754 " />
     <polygon
   id="246"
   class="fil176"
   points="11616,15733 11135,16203 11648,15745 " />
     <polygon
   id="247"
   class="fil177"
   points="11590,15724 11135,16203 11622,15735 " />
     <polygon
   id="248"
   class="fil178"
   points="11563,15716 11135,16203 11596,15727 " />
     <polygon
   id="249"
   class="fil178"
   points="11537,15708 11135,16203 11570,15718 " />
     <polygon
   id="250"
   class="fil179"
   points="11510,15700 11135,16203 11543,15710 " />
     <polygon
   id="251"
   class="fil179"
   points="11483,15692 11135,16203 11516,15702 " />
     <polygon
   id="252"
   class="fil180"
   points="11455,15685 11135,16203 11489,15694 " />
     <polygon
   id="253"
   class="fil16"
   points="11428,15678 11135,16203 11462,15687 " />
     <polygon
   id="254"
   class="fil16"
   points="11400,15671 11135,16203 11435,15680 " />
     <polygon
   id="255"
   class="fil17"
   points="11380,15667 11135,16203 11407,15673 " />
    </g>
   </g>
   <path
   class="fil181"
   d="m 11671,14331 c 300,538 429,1052 612,1601 129,77 282,133 407,232 -134,39 -260,15 -412,-5 -79,-22 -143,-61 -214,-92 23,-61 48,-118 91,-165 -291,-379 -612,-767 -824,-1172 -15,-78 -21,-158 -6,-246 -110,9 -219,7 -328,11 l 537,-451 c 55,20 111,69 133,92 10,50 11,133 4,195 z"
   id="path507"
   style="fill:url(#linearGradient2410)" />
   <path
   class="fil182"
   d="m 11499,15011 c -107,208 -190,408 -294,618 -12,137 18,283 9,413 53,38 78,77 118,115 l -171,-12 c -58,-66 -122,-137 -145,-221 -23,-96 -8,-186 -4,-285 37,-32 72,-69 117,-91 -11,-266 -22,-539 14,-803 27,-54 36,-112 82,-155 -2,-33 -7,-68 -6,-100 36,-1 73,-3 109,-6 -15,88 -9,168 6,246 50,95 105,188 165,281 z"
   id="path509"
   style="fill:url(#id10)" />
   <path
   class="fil183"
   d="m 11538,13992 c 1,19 1,40 -4,52 -219,192 -612,539 -645,542 H 9642 c -256,-147 -235,-355 -103,-594 666,0 1333,0 1999,0 z"
   id="path511"
   style="fill:url(#id16)" />
   <path
   class="fil184"
   d="m 9871,13518 c 61,-165 137,-284 265,-469 -166,99 -267,272 -350,420 16,30 48,46 85,49 z m 986,-1352 c 611,1096 -141,899 -255,1363 175,27 364,27 540,29 l -18,87 -865,-4 v 94 c -86,-4 -198,-2 -309,0 h -310 c -87,-4 -149,-15 -161,-40 -136,-501 636,-1356 1006,-1575 67,75 244,48 372,46 z"
   id="path513"
   style="fill:url(#id36)" />
   <path
   class="fil185"
   d="m 10928,11785 c -87,80 -134,334 -122,382 -110,5 -238,16 -304,-32 62,-1 125,-282 226,-443 31,47 118,64 200,93 z"
   id="path515"
   style="fill:url(#id22)" />
   <path
   class="fil186"
   d="m 10951,11125 c 206,127 183,223 246,344 14,156 18,264 -14,295 -48,32 -165,41 -275,18 -42,-14 -84,-26 -119,-41 -21,-11 -40,-24 -57,-38 -2,-3 -4,-5 -5,-7 -1,0 -1,1 -1,1 -18,-16 -33,-35 -43,-56 -45,54 -127,-11 -139,-89 24,-137 146,-93 150,-25 27,13 75,22 89,2 14,-29 6,-71 -29,-117 -19,-36 -38,-135 4,-157 47,-10 16,-75 44,-91 18,-10 72,7 89,-1 22,-12 36,-40 60,-38 z"
   id="path517"
   style="fill:url(#id33)" />
   <path
   class="fil187"
   d="m 10544,11553 c 12,77 94,142 139,88 10,21 25,40 43,56 -100,161 -162,436 -224,438 -6,-4 -12,-9 -17,-15 -320,190 -943,858 -1015,1359 -248,-39 -637,-550 -333,-1154 247,-392 913,-502 1243,-1085 35,-90 33,-341 444,-417 96,-3 183,33 266,109 10,31 9,62 14,91 16,102 -36,138 -77,155 -21,-17 -46,-35 -76,-53 -24,-2 -38,26 -60,38 -17,9 -71,-8 -89,2 -28,15 3,80 -44,90 -42,23 -23,121 -4,157 35,47 43,89 29,118 -14,19 -62,11 -89,-3 -4,-68 -126,-111 -150,26 z"
   id="path519"
   style="fill:url(#id34)" />
   <path
   class="fil188"
   d="m 10323,11433 -15,90 c -576,505 -1568,1146 -946,1679 -27,0 -62,-35 -89,-34 -607,-683 768,-1301 1050,-1735 z"
   id="path521" />
   <path
   class="fil188"
   d="m 10089,11752 -124,175 c -1008,705 -676,1131 -688,1114 -195,-428 453,-781 812,-1289 z"
   id="path523" />
   <path
   class="fil189"
   d="m 10993,11794 c -156,171 -38,243 -90,457 -14,-28 -30,-56 -46,-85 -17,0 -34,0 -51,1 -11,-48 35,-300 121,-381 22,4 45,6 66,8 z"
   id="path525" />
   <path
   class="fil190"
   d="m 9786,13469 c 83,-148 184,-321 350,-420 -128,185 -129,189 -211,341 -36,-4 -123,109 -139,79 z"
   id="path527" />
   <path
   class="fil191"
   d="m 11686,12495 c 442,-1 854,-2 1296,-3 27,1 43,12 31,41 l -469,1114 -1421,-2 518,-1120 c 11,-23 19,-30 45,-30 z"
   id="path529"
   style="fill:url(#id32)" />
   <path
   class="fil192"
   d="m 12049,13065 c 29,-81 92,-132 141,-114 49,18 64,98 35,178 -30,81 -93,132 -141,114 -49,-18 -65,-97 -35,-178 z"
   id="path531" />
   <polygon
   class="fil193"
   points="10259,13729 10259,13642 10487,13642 11124,13645 11125,13642 12510,13642 12510,13729 "
   id="polygon533"
   style="fill:url(#id27)" />
   <polygon
   class="fil194"
   points="9406,13727 9406,13555 8045,13555 8045,13727 "
   id="polygon535"
   style="fill:url(#id17)" />
  </g>
  
  <g
   id="g721">
   <path
   class="fil195"
   d="m 20355,13823 c 240,142 664,179 661,-457 l -28,-6671 c -2,-281 -179,-824 -420,-965 L 17603,3998 c -241,-141 -449,33 -449,314 v 7153 c 0,282 13,476 253,618 z"
   id="path542"
   style="fill:url(#id35)" />
   <g
   id="_2142269932576">
    <g
   clip-path="url(#id5)"
   id="g546">
     
    </g>
   </g>
   <g
   id="_2142269931456">
    <path
   class="fil196"
   d="m 17799,7205 c -3,344 -7,693 -11,1042 -4,352 -7,708 -11,1065 -5,397 3,851 108,1290 52,221 29,468 142,675 356,658 -133,571 727,1108 281,154 691,275 916,236 228,-39 708,-319 731,-1013 -16,-555 -32,-1104 -47,-1645 -15,-534 -31,-1065 -46,-1588 -102,-474 -342,-950 -633,-1345 -269,-365 -578,-652 -866,-813 -295,-166 -568,-199 -753,-51 -178,143 -284,462 -257,1039 z"
   id="path549" />
    <path
   class="fil197"
   d="m 18752,6007 c -204,-219 -370,-314 -527,-44 6,430 12,851 18,1265 7,414 13,821 18,1221 6,387 11,769 16,1143 6,374 11,742 16,1103 41,323 376,705 443,355 1,-323 2,-652 3,-985 1,-333 3,-674 4,-1018 1,-354 2,-713 3,-1079 1,-366 3,-739 4,-1117 0,-278 1,-560 2,-844 z"
   id="path551" />
    <path
   class="fil198"
   d="m 17748,7265 c -4,-474 74,-767 218,-904 72,-69 160,-100 263,-95 105,4 227,47 363,125 210,119 387,226 539,325 151,99 276,190 378,278 318,271 475,543 577,966 103,426 151,1008 257,1910 -8,-596 -15,-1186 -22,-1769 -11,-936 21,-1507 -459,-1818 -176,-115 -383,-234 -594,-350 -209,-116 -421,-230 -612,-340 -249,-143 -427,-201 -555,-185 -124,15 -205,99 -257,248 -53,148 -76,361 -86,627 -10,271 -8,600 -10,982 z"
   id="path553" />
    <path
   class="fil199"
   d="m 20007,8733 c 0,-73 -50,-146 -112,-165 -61,-18 -112,26 -111,97 6,541 12,1071 18,1590 5,509 11,1008 16,1496 1,64 48,131 106,151 57,19 104,-18 104,-81 -3,-489 -7,-989 -10,-1498 -4,-519 -7,-1050 -11,-1590 z"
   id="path555" />
   </g>
   <path
   class="fil12"
   d="m 21133,13282 c 7,636 -468,781 -708,639 l -2948,-1740 c -294,-174 -364,-432 -364,-799 V 4229 c 0,-281 336,-393 578,-254 l 2989,1717 c 242,139 380,654 383,936 z m 170,132 -31,-6870 c -1,-290 -189,-849 -445,-994 L 17684,3766 c -180,-102 -344,-63 -511,112 -26,28 -12,76 -27,93 -18,20 -63,10 -63,68 v 7367 c 0,290 111,665 366,811 l 3124,1792 c 255,146 733,60 730,-595 z"
   id="path558" />
   <path
   class="fil200"
   d="m 21016,13366 c 3,636 -421,599 -661,457 l -2948,-1740 c -240,-142 -253,-336 -253,-618 V 4312 c 0,-281 208,-455 449,-314 l 2965,1732 c 241,141 418,684 420,965 z m 128,146 -30,-6870 c -1,-290 -189,-849 -445,-994 L 17526,3864 c -255,-145 -475,34 -475,324 v 7367 c 0,290 13,490 268,636 l 3124,1792 c 255,146 704,184 701,-471 z"
   id="path560" />
   <path
   class="fil12"
   d="m 16636,4128 -727,-445 c -90,-55 -257,1 -320,54 -46,39 42,94 42,180 l -3,4544 c 0,258 47,447 248,512 l 557,180 c 44,14 -43,78 -1,73 132,-16 371,-44 369,-411 l -25,-4344 c -1,-124 -34,-278 -140,-343 z"
   id="path562" />
   <path
   class="fil201"
   d="m 16501,4188 -728,-445 c -157,-96 -277,32 -278,234 l -3,4544 c 0,258 47,447 249,512 l 557,180 c 184,59 369,-48 368,-338 l -26,-4344 c 0,-124 -33,-278 -139,-343 z"
   id="path564"
   style="fill:url(#id26)" />
   <g
   id="_2142269928416">
    <g
   clip-path="url(#id6)"
   id="g568">
     
    </g>
   </g>
   <path
   class="fil202"
   d="m 19151,8434 c 27,-447 -1126,-583 -1196,-1030 -16,274 39,444 165,579 327,250 767,136 1031,451 z"
   id="path571"
   style="fill:url(#id37)" />
   <g
   id="_2142269929440">
    <g
   clip-path="url(#id7)"
   id="g575">
     
    </g>
   </g>
   <g
   id="_2142260466592">
    <g
   id="g616">
     <path
   class="fil203"
   d="m 17657,11899 c 3,-131 25,-266 -26,-423 133,150 165,381 237,512 -47,-52 -90,-84 -211,-89 z m -382,-19 4,1 h -4 c 0,-1 0,-1 0,-1 z m 830,-1212 c -156,33 -493,103 -717,-173 -448,516 -123,697 -113,1385 l -54,-7 4,1 c -47,16 -154,173 -155,240 40,2 100,14 174,33 98,26 218,65 346,112 197,72 410,163 581,254 55,-1 112,1 130,-91 36,-553 51,-1323 -196,-1754 z"
   id="path578"
   style="fill:url(#linearGradient2412)" />
     <path
   class="fil204"
   d="m 16772,12127 c 64,-234 315,-277 335,-424 -22,-35 -29,-48 -70,-63 30,12 -9,96 -34,131 -199,125 -252,295 -381,433 -49,40 -83,56 -147,61 133,46 224,-66 297,-138 z"
   id="path580" />
     <g
   id="g612">
      <path
   class="fil205"
   d="m 17590,12259 c -128,-47 -248,-86 -346,-112 -299,268 -265,783 -419,1157 157,27 171,111 200,207 130,-388 341,-846 565,-1252 z"
   id="path582"
   style="fill:url(#id31)" />
      <path
   class="fil206"
   d="m 15973,9979 c 479,354 750,286 1165,249 231,-119 337,-162 384,-630 151,-73 281,-150 252,-326 -16,-68 -81,-82 -48,-202 -16,-32 -71,-249 26,-298 27,-38 19,-91 80,-116 31,-77 49,-253 -23,-360 -30,-59 -353,-252 -648,-107 -275,162 -229,374 -352,378 -138,15 -314,-68 -486,30 -174,102 -32,441 -135,595 -60,160 -247,-33 -439,154 -198,321 170,581 224,633 z"
   id="path584"
   style="fill:url(#id20)" />
      <path
   class="fil207"
   d="m 19468,9139 c 4,-12 32,-53 41,-78 23,-68 54,-163 31,-187 -15,-16 -87,-24 -149,-23 -28,1 -48,158 -66,163 56,86 86,37 143,125 z"
   id="path586" />
      <path
   class="fil208"
   d="m 19318,8740 c -8,-12 -50,-50 -63,-42 -12,8 11,59 19,71 l 221,338 c 8,12 44,41 56,33 12,-8 -3,-50 -11,-62 z"
   id="path588" />
      <path
   class="fil209"
   d="m 19132,8669 c 19,42 74,49 122,52 -3,-11 -3,-20 1,-23 6,-3 19,3 31,12 l 29,-108 c 21,-75 -141,-69 -163,-167 -23,85 -50,166 -20,234 z"
   id="path590"
   style="fill:url(#id18)" />
      <path
   class="fil207"
   d="m 17826,9063 c 34,-17 -9,-126 31,-238 12,-32 -16,-77 -33,-113 -9,-17 5,-37 8,-56 -61,25 -53,78 -80,116 -97,49 -42,266 -26,298 43,1 63,6 100,-7 z"
   id="path592" />
      <path
   class="fil207"
   d="m 19325,8895 c -85,81 -136,161 -188,211 47,36 62,73 94,109 89,-6 143,-14 218,-43 19,-16 24,-29 36,-64 -22,-48 -62,-77 -109,-109 3,-27 42,-131 28,-149 -28,-14 -57,18 -73,37 -2,3 -4,6 -6,8 z"
   id="path594" />
      <path
   class="fil210"
   d="m 17388,10496 c 224,276 561,206 717,173 -110,-413 -74,-449 -122,-743 -5,-50 11,-88 88,-145 196,35 350,42 542,26 221,-188 430,-303 618,-591 -32,-36 -47,-74 -94,-109 -236,183 -514,295 -589,420 -202,9 -593,-207 -774,-255 29,177 -101,253 -252,327 -47,468 -153,510 -384,630 27,118 140,211 244,234 12,2 -2,28 6,33 z"
   id="path596"
   style="fill:url(#id24)" />
      <path
   class="fil211"
   d="m 18075,9778 c -152,-36 -295,-43 -439,-194 96,205 205,321 316,436 -27,-89 40,-186 123,-242 z"
   id="path598" />
      <path
   class="fil211"
   d="m 17384,10463 c -12,-125 45,-236 -40,-359 -92,83 -42,117 -41,300 0,30 52,49 81,59 z"
   id="path600" />
      <path
   class="fil212"
   d="m 17678,11509 c -86,-106 -190,-153 -220,-305 -16,-96 -30,-184 -33,-288 -34,113 -26,179 -42,260 -12,8 -24,12 -54,4 -27,27 -16,81 4,89 27,2 36,8 65,4 148,122 143,361 162,538 -86,-6 -199,4 -287,10 -2,34 1,32 1,59 124,1 247,3 382,19 6,-121 16,-247 -10,-369 -3,-13 -23,-49 32,-21 z"
   id="path602" />
      <path
   class="fil213"
   d="m 17003,11771 c 25,-35 64,-119 34,-131 0,0 -1,0 -1,0 -183,-37 -662,572 -561,625 64,-5 98,-21 147,-61 129,-138 182,-308 381,-433 z"
   id="path604" />
      <path
   class="fil213"
   d="m 17025,14127 c -29,-71 -108,-244 -170,-323 -14,-95 -2,-213 -3,-320 -25,-76 -91,-118 -174,-81 -65,141 39,237 40,360 l -25,128 c 52,201 318,340 341,275 0,0 -1,-20 -9,-39 z"
   id="path606" />
      <path
   class="fil204"
   d="m 17035,14085 c -34,-118 -91,-228 -143,-316 -10,-119 13,-266 -20,-341 -36,-52 -96,-84 -161,-71 -8,5 -14,11 -18,18 -5,10 -10,19 -15,28 83,-37 149,5 174,81 1,107 -11,225 3,320 62,79 141,252 170,323 8,19 9,39 9,39 1,-4 2,-7 2,-12 z"
   id="path608" />
      <path
   class="fil12"
   d="m 17025,13511 c -29,-96 -43,-180 -200,-207 -14,25 -80,29 -114,53 65,-13 125,19 161,71 33,75 10,222 20,341 52,88 109,198 143,316 z"
   id="path610" />
     </g>
     <path
   class="fil12"
   d="m 16961,12109 200,-258 c -17,-49 -14,-105 -50,-147 -7,-9 -13,-18 -20,-26 5,7 10,15 16,25 -20,147 -271,190 -335,424 -73,72 -164,184 -297,138 88,50 268,-58 346,-113 44,-7 94,-29 140,-43 z"
   id="path614" />
    </g>
    <path
   class="fil207"
   d="m 17161,11851 -200,258 c 42,-11 80,-16 109,5 1,-67 108,-224 155,-240 l -4,-1 z"
   id="path618" />
   </g>
   <path
   class="fil12"
   d="M 23460,10518 20735,8971 c -48,-27 -124,-14 -152,8 -9,7 70,37 70,51 v 1978 c 0,151 -9,128 104,194 l 2640,1539 65,-21 c 37,-12 58,-7 58,-46 l 9,-2003 c 0,-38 -36,-134 -69,-153 z"
   id="path621" />
   <path
   class="fil214"
   d="M 23369,10533 20645,8986 c -64,-37 -82,6 -82,59 v 1978 c 0,151 -10,130 103,194 l 2706,1518 c 33,18 57,-7 58,-46 l 9,-2003 c 0,-38 -37,-134 -70,-153 z"
   id="path623"
   style="fill:url(#id19)" />
   <path
   class="fil12"
   d="M 23455,7661 20731,6113 c -48,-27 -125,-14 -153,8 -8,7 71,38 71,51 v 1978 c 0,152 -9,129 103,194 l 2641,1539 65,-21 c 36,-12 57,-7 58,-45 l 9,-2004 c 0,-38 -37,-133 -70,-152 z"
   id="path625" />
   <path
   class="fil215"
   d="M 23365,7676 20640,6128 c -64,-36 -82,6 -82,59 v 1978 c 0,152 -10,131 104,194 l 2706,1518 c 33,19 57,-7 57,-45 l 9,-2004 c 1,-38 -36,-133 -69,-152 z"
   id="path627"
   style="fill:url(#id11)" />
   <polygon
   class="fil216"
   points="20676,6798 21116,7047 21118,6489 20676,6249 "
   id="polygon629" />
   <polygon
   class="fil217"
   points="21226,7106 21666,7355 21667,6798 21226,6557 "
   id="polygon631" />
   <polygon
   class="fil218"
   points="21791,7441 22230,7690 22232,7133 21791,6892 "
   id="polygon633" />
   <polygon
   class="fil219"
   points="22351,7754 22791,8003 22793,7446 22351,7205 "
   id="polygon635" />
   <polygon
   class="fil15"
   points="22931,8078 23371,8327 23373,7769 22931,7529 "
   id="polygon637" />
   <polygon
   class="fil220"
   points="20661,7505 21101,7754 21103,7197 20661,6956 "
   id="polygon639" />
   <polygon
   class="fil221"
   points="21211,7814 21650,8063 21652,7506 21211,7265 "
   id="polygon641" />
   <polygon
   class="fil222"
   points="21776,8149 22215,8398 22217,7841 21776,7600 "
   id="polygon643" />
   <polygon
   class="fil223"
   points="22336,8462 22776,8711 22778,8153 22336,7912 "
   id="polygon645" />
   <polygon
   class="fil224"
   points="22916,8785 23356,9034 23358,8477 22916,8236 "
   id="polygon647" />
   <polygon
   class="fil225"
   points="20676,8228 21116,8477 21118,7920 20676,7679 "
   id="polygon649" />
   <polygon
   class="fil226"
   points="21226,8537 21666,8786 21667,8229 21226,7988 "
   id="polygon651" />
   <polygon
   class="fil227"
   points="21791,8872 22230,9121 22232,8564 21791,8323 "
   id="polygon653" />
   <polygon
   class="fil228"
   points="22351,9184 22791,9433 22793,8876 22351,8635 "
   id="polygon655" />
   <polygon
   class="fil229"
   points="22931,9508 23371,9757 23373,9200 22931,8959 "
   id="polygon657" />
   <g
   id="_2107042040912">
    <g
   clip-path="url(#id8)"
   id="g661">
     
    </g>
   </g>
   <g
   id="_2141916536720">
    <path
   class="fil230"
   d="m 16134,5206 c 1,-114 3,-231 5,-350 2,-120 4,-255 6,-380 -119,-55 -165,-84 -165,17 -1,111 -1,221 -1,329 -1,106 -1,211 -1,314 25,12 51,24 77,35 26,12 52,23 78,35 0,0 1,0 1,0 z"
   id="path664" />
    <path
   class="fil231"
   d="m 16145,4476 c -2,126 -4,250 -6,371 -2,120 -4,237 -5,353 27,12 54,24 81,36 27,12 54,24 81,36 2,-100 4,-201 7,-304 3,-104 5,-209 8,-317 2,-77 -24,-108 -85,-137 -32,-15 -57,-27 -81,-38 z"
   id="path666" />
    <path
   class="fil232"
   d="m 16133,5251 c -31,-14 -61,-27 -92,-41 -31,-14 -61,-27 -92,-41 -27,-12 -50,0 -52,26 -6,75 -11,149 -16,223 -6,85 -12,170 -18,253 -3,34 21,73 52,86 35,15 70,30 104,44 35,15 70,30 104,44 2,-95 4,-193 5,-291 2,-99 3,-201 5,-303 z"
   id="path668" />
    <path
   class="fil233"
   d="m 16133,5251 c -2,102 -3,204 -5,303 -1,98 -3,196 -5,291 2,1 4,2 6,3 36,15 71,30 107,45 35,14 70,29 105,44 30,13 53,-6 51,-41 -5,-87 -10,-174 -14,-262 -5,-77 -9,-154 -13,-233 -2,-27 -24,-58 -50,-70 -30,-13 -60,-26 -91,-40 -30,-13 -61,-27 -91,-40 0,0 0,0 0,0 z"
   id="path670" />
    <path
   class="fil200"
   d="m 16134,5197 c 0,0 0,0 0,0 -26,-11 -51,-22 -77,-34 -25,-11 -50,-22 -75,-34 -19,-8 -39,-17 -58,-26 -31,-13 -57,1 -59,33 -6,92 -12,182 -18,271 -7,104 -13,205 -20,306 -2,40 24,86 59,101 41,17 82,34 122,51 41,16 81,33 121,50 40,17 80,34 120,50 39,17 79,33 118,49 34,14 60,-8 58,-50 -5,-103 -10,-207 -15,-313 -5,-92 -9,-185 -14,-279 -1,-33 -27,-70 -56,-83 -16,-7 -32,-14 -49,-22 -26,-11 -52,-23 -78,-35 -26,-11 -53,-23 -79,-35 z m -180,-29 c 30,14 60,27 90,40 30,14 59,27 89,40 0,0 0,0 0,0 30,13 60,26 89,40 29,13 59,25 88,38 25,11 47,43 48,70 5,78 9,155 13,231 5,88 9,175 14,261 2,35 -21,54 -50,42 -34,-14 -68,-29 -102,-43 -34,-14 -69,-29 -103,-43 -2,-1 -4,-2 -6,-3 -34,-14 -68,-28 -101,-42 -34,-14 -68,-29 -102,-43 -31,-13 -53,-51 -51,-85 6,-83 12,-168 18,-253 5,-74 10,-148 15,-223 2,-26 25,-38 51,-27 z"
   id="path672" />
   </g>
   <g
   id="_2141982098544">
    <g
   clip-path="url(#id9)"
   id="g677">
     
    </g>
   </g>
   <g
   id="_2141982097456">
    <path
   class="fil230"
   d="m 16136,7619 c 2,-114 4,-231 6,-350 2,-120 3,-255 6,-380 -119,-55 -166,-84 -166,17 0,112 0,221 -1,329 0,106 0,211 -1,314 26,12 52,24 77,35 27,12 53,24 79,35 0,0 0,0 0,0 z"
   id="path680" />
    <path
   class="fil231"
   d="m 16148,6889 c -2,126 -4,250 -6,371 -2,120 -4,237 -6,353 27,12 54,24 81,36 27,12 54,24 81,36 3,-100 5,-201 8,-304 2,-104 5,-209 7,-316 2,-78 -24,-109 -85,-137 -32,-16 -56,-28 -80,-39 z"
   id="path682" />
    <path
   class="fil234"
   d="m 16135,7664 c -30,-14 -61,-27 -91,-41 -31,-14 -62,-27 -93,-41 -26,-12 -50,0 -52,26 -5,75 -10,149 -16,223 -6,85 -12,170 -18,253 -2,34 21,73 52,86 35,15 70,30 105,44 35,15 69,30 104,44 1,-95 3,-193 5,-291 1,-99 3,-201 4,-303 z"
   id="path684" />
    <path
   class="fil235"
   d="m 16135,7664 c -1,102 -3,204 -4,303 -2,98 -4,196 -5,291 2,1 4,2 6,3 35,15 71,30 106,45 35,14 70,30 105,44 30,13 54,-6 52,-41 -5,-87 -10,-174 -15,-262 -4,-77 -8,-154 -13,-233 -1,-27 -24,-58 -49,-70 -31,-13 -61,-26 -91,-40 -30,-13 -61,-27 -91,-40 0,0 -1,0 -1,0 z"
   id="path686" />
    <path
   class="fil200"
   d="m 16136,7610 c 0,0 0,0 0,0 -25,-11 -51,-22 -76,-34 -25,-11 -50,-22 -75,-34 -20,-8 -39,-17 -59,-26 -30,-13 -57,1 -59,33 -6,92 -12,182 -17,272 -7,103 -14,204 -20,305 -3,40 24,86 59,101 41,17 81,34 122,51 40,16 80,33 121,50 40,17 80,34 119,50 40,17 79,33 119,49 33,14 60,-8 57,-50 -5,-103 -9,-207 -14,-313 -5,-92 -9,-185 -14,-279 -2,-33 -27,-70 -56,-83 -17,-7 -33,-14 -49,-22 -26,-11 -52,-23 -79,-35 -26,-11 -52,-23 -79,-35 z m -180,-29 c 30,14 60,27 90,40 30,14 60,27 90,40 0,0 0,0 0,0 29,13 59,27 89,40 29,13 58,25 88,38 25,11 47,43 48,70 4,78 8,155 12,231 5,88 10,175 14,261 2,35 -20,54 -49,42 -34,-14 -68,-29 -103,-43 -34,-14 -68,-29 -103,-43 -2,-1 -4,-2 -6,-3 -33,-14 -67,-28 -101,-42 -34,-14 -68,-29 -102,-43 -30,-13 -53,-51 -50,-85 5,-83 11,-168 17,-253 5,-73 11,-148 16,-223 2,-26 24,-38 50,-27 z"
   id="path688" />
   </g>
   <path
   class="fil236"
   d="m 21182,9564 c -101,-53 -203,-107 -305,-162 -3,62 -5,124 -7,185 -2,61 -5,122 -6,183 101,52 201,104 302,156 2,-60 5,-120 8,-180 2,-60 5,-121 8,-182 z"
   id="path691" />
   <path
   class="fil222"
   d="m 21524,9746 c -99,-53 -199,-106 -299,-159 -3,61 -6,121 -9,182 -2,60 -5,119 -8,179 99,51 197,102 295,153 3,-59 7,-118 10,-177 4,-59 8,-118 11,-178 z"
   id="path693" />
   <path
   class="fil237"
   d="m 23196,10671 c -128,-68 -257,-137 -387,-207 -132,-71 -264,-142 -398,-214 -136,-72 -273,-146 -411,-220 -140,-75 -282,-151 -424,-228 -1,19 -3,37 -4,56 143,76 284,151 424,226 138,74 275,147 410,219 134,72 266,143 398,213 129,69 258,138 385,206 2,-17 4,-34 7,-51 z"
   id="path695" />
   <path
   class="fil237"
   d="m 23167,10915 c -127,-67 -255,-134 -384,-202 -130,-69 -262,-138 -395,-208 -134,-71 -270,-142 -407,-214 -139,-73 -280,-147 -421,-222 -1,19 -3,37 -3,55 141,74 281,148 419,220 137,72 273,143 407,213 133,70 265,139 395,207 129,67 256,134 383,200 2,-16 4,-33 6,-49 z"
   id="path697" />
   <path
   class="fil237"
   d="m 23183,10801 c -127,-67 -255,-135 -385,-204 -131,-70 -263,-140 -396,-211 -135,-71 -272,-144 -409,-217 -140,-74 -281,-149 -423,-224 -1,18 -2,36 -3,55 142,75 282,149 421,223 138,72 274,144 409,216 133,70 265,140 396,209 129,68 257,136 384,203 2,-16 4,-33 6,-50 z"
   id="path699" />
   <path
   class="fil234"
   d="m 21178,10212 c -101,-54 -203,-108 -306,-162 -2,62 -5,123 -7,184 -2,61 -4,122 -6,183 101,52 202,104 302,156 3,-59 5,-119 8,-180 3,-60 6,-121 9,-181 z"
   id="path701" />
   <path
   class="fil235"
   d="m 21520,10393 c -100,-52 -199,-105 -300,-159 -3,61 -5,121 -8,182 -3,60 -6,120 -9,179 99,51 197,102 295,153 4,-59 7,-118 11,-177 3,-59 7,-118 11,-178 z"
   id="path703" />
   <path
   class="fil237"
   d="m 23191,11318 c -128,-68 -257,-137 -387,-207 -131,-70 -264,-142 -398,-213 -135,-73 -272,-147 -411,-221 -139,-75 -281,-151 -424,-228 -1,19 -2,37 -3,56 142,76 284,151 423,226 138,74 275,147 410,219 134,72 267,143 398,213 130,69 258,138 386,206 2,-17 4,-34 6,-51 z"
   id="path705" />
   <path
   class="fil237"
   d="m 23162,11562 c -126,-67 -255,-134 -383,-202 -131,-68 -263,-138 -396,-208 -134,-70 -270,-142 -407,-214 -139,-73 -279,-147 -421,-221 -1,18 -2,36 -3,54 141,74 281,148 420,220 137,72 273,143 407,213 132,70 264,139 394,207 129,68 257,134 383,200 2,-16 4,-32 6,-49 z"
   id="path707" />
   <path
   class="fil237"
   d="m 23178,11448 c -126,-67 -255,-135 -384,-204 -131,-69 -263,-139 -397,-210 -135,-72 -271,-144 -409,-218 -139,-74 -280,-148 -422,-224 -2,18 -3,37 -4,55 142,75 283,149 422,223 137,73 273,145 408,216 133,70 265,140 396,209 129,69 257,136 384,203 2,-16 4,-33 6,-50 z"
   id="path709" />
   <path
   class="fil221"
   d="m 21161,10832 c -102,-53 -203,-107 -306,-162 -2,62 -5,124 -7,185 -2,61 -4,122 -6,182 101,53 202,105 302,157 3,-60 5,-120 8,-180 3,-60 6,-121 9,-182 z"
   id="path711" />
   <path
   class="fil238"
   d="m 21503,11014 c -100,-53 -200,-106 -300,-159 -3,61 -6,121 -8,181 -3,60 -6,120 -9,180 99,51 197,102 295,152 4,-58 7,-117 11,-176 3,-59 7,-119 11,-178 z"
   id="path713" />
   <path
   class="fil237"
   d="m 23174,11939 c -128,-68 -257,-137 -387,-207 -131,-71 -264,-142 -398,-214 -135,-73 -272,-146 -411,-220 -140,-75 -281,-151 -424,-228 -1,18 -3,37 -3,55 142,77 284,152 423,227 138,73 275,147 410,219 134,71 267,142 398,212 129,70 258,138 386,206 1,-17 4,-33 6,-50 z"
   id="path715" />
   <path
   class="fil237"
   d="m 23145,12183 c -127,-67 -255,-134 -384,-202 -130,-69 -262,-138 -395,-208 -134,-71 -270,-142 -407,-215 -139,-72 -279,-146 -421,-221 -1,18 -2,37 -3,55 141,74 281,147 420,220 137,72 272,143 406,213 133,70 265,139 395,207 129,67 257,134 383,200 2,-16 4,-33 6,-49 z"
   id="path717" />
   <path
   class="fil237"
   d="m 23161,12069 c -127,-67 -255,-136 -385,-204 -131,-70 -263,-140 -396,-211 -135,-71 -271,-144 -409,-217 -139,-74 -280,-149 -423,-224 -1,18 -2,36 -3,55 142,75 283,149 422,223 137,72 273,144 408,215 133,71 265,141 396,210 129,68 257,136 384,203 2,-17 4,-33 6,-50 z"
   id="path719" />
  </g>
 </g>
</svg>
