<?xml version="1.0" encoding="UTF-8" standalone="no"?>
<!-- Creator: CorelDRAW X8 -->

<svg
   xml:space="preserve"
   width="142.75784mm"
   height="107.54199mm"
   version="1.1"
   style="clip-rule:evenodd;fill-rule:evenodd;image-rendering:optimizeQuality;shape-rendering:geometricPrecision;text-rendering:geometricPrecision"
   viewBox="0 0 14275.784 10754.199"
   id="svg244"
   sodipodi:docname="imageshop (3).svg"
   inkscape:version="1.1 (ce6663b3b7, 2021-05-25)"
   xmlns:inkscape="http://www.inkscape.org/namespaces/inkscape"
   xmlns:sodipodi="http://sodipodi.sourceforge.net/DTD/sodipodi-0.dtd"
   xmlns:xlink="http://www.w3.org/1999/xlink"
   xmlns="http://www.w3.org/2000/svg"
   xmlns:svg="http://www.w3.org/2000/svg"><sodipodi:namedview
   id="namedview246"
   pagecolor="#ffffff"
   bordercolor="#666666"
   borderopacity="1.0"
   inkscape:pageshadow="2"
   inkscape:pageopacity="0.0"
   inkscape:pagecheckerboard="0"
   inkscape:document-units="mm"
   showgrid="false"
   inkscape:zoom="1.5037598"
   inkscape:cx="346.7974"
   inkscape:cy="238.40243"
   inkscape:window-width="1880"
   inkscape:window-height="1016"
   inkscape:window-x="40"
   inkscape:window-y="27"
   inkscape:window-maximized="1"
   inkscape:current-layer="Layer_x0020_1" />
 <defs
   id="defs31">
  <style
   type="text/css"
   id="style2">
   <![CDATA[
    .fil36 {fill:#01A59C}
    .fil37 {fill:#1A1A1A}
    .fil34 {fill:#3185AB}
    .fil24 {fill:#470236}
    .fil33 {fill:#4B92A1}
    .fil29 {fill:#5BD6F1}
    .fil25 {fill:#5F154A}
    .fil5 {fill:#5F154B}
    .fil14 {fill:#666666}
    .fil35 {fill:#69C9DB}
    .fil27 {fill:#7D4930}
    .fil20 {fill:gray}
    .fil11 {fill:#8D2764}
    .fil7 {fill:#93253E}
    .fil26 {fill:#933572}
    .fil13 {fill:#999999}
    .fil10 {fill:#A5324D}
    .fil16 {fill:#B3B3B3}
    .fil23 {fill:#BE508A}
    .fil15 {fill:#C1C1C1}
    .fil18 {fill:#CCCCCC}
    .fil2 {fill:#D1D1D1}
    .fil8 {fill:#D33D5E}
    .fil43 {fill:#DEDEDE}
    .fil1 {fill:#E6E6E6}
    .fil9 {fill:#E6E7E9}
    .fil32 {fill:#EE9962}
    .fil39 {fill:#EE9962}
    .fil19 {fill:#F1F1F1}
    .fil31 {fill:#F6F6E2}
    .fil40 {fill:#F9F8E2}
    .fil12 {fill:#FE4469}
    .fil21 {fill:#FE7388}
    .fil30 {fill:#FF6600}
    .fil6 {fill:#FF7489}
    .fil28 {fill:#FFB042}
    .fil42 {fill:white}
    .fil38 {fill:white}
    .fil3 {fill:white}
    .fil41 {fill:white;fill-rule:nonzero}
    .fil22 {fill:#4D4D4D;fill-opacity:0.231373}
    .fil4 {fill:url(#id0)}
    .fil0 {fill:url(#id1)}
    .fil45 {fill:url(#id2)}
    .fil17 {fill:url(#id3)}
    .fil44 {fill:url(#id4)}
   ]]>
  </style>
  <linearGradient
   id="id0"
   gradientUnits="userSpaceOnUse"
   x1="12052"
   y1="5717.3701"
   x2="13650.9"
   y2="6326.7402">
   <stop
   offset="0"
   style="stop-opacity:1; stop-color:#F5A844"
   id="stop4" />
   <stop
   offset="0.709804"
   style="stop-opacity:1; stop-color:#FECC85"
   id="stop6" />
   <stop
   offset="1"
   style="stop-opacity:1; stop-color:#FDC272"
   id="stop8" />
  </linearGradient>
  <linearGradient
   id="id1"
   gradientUnits="userSpaceOnUse"
   x1="7510.7402"
   y1="4334.3301"
   x2="12265.6"
   y2="12770.7">
   <stop
   offset="0"
   style="stop-opacity:1; stop-color:#FFE672"
   id="stop11" />
   <stop
   offset="0.301961"
   style="stop-opacity:1; stop-color:#FFBF44"
   id="stop13" />
   <stop
   offset="0.588235"
   style="stop-opacity:1; stop-color:#FEBB7F"
   id="stop15" />
   <stop
   offset="1"
   style="stop-opacity:1; stop-color:#FFB6D6"
   id="stop17" />
  </linearGradient>
  <radialGradient
   id="id2"
   gradientUnits="userSpaceOnUse"
   gradientTransform="matrix(1.00199,0.0298201,-0.0303589,1.01985,283,-562)"
   cx="12116.8"
   cy="10112"
   r="39.84"
   fx="12116.8"
   fy="10112">
   <stop
   offset="0"
   style="stop-opacity:1; stop-color:white"
   id="stop20" />
   <stop
   offset="1"
   style="stop-opacity:1; stop-color:#666666"
   id="stop22" />
  </radialGradient>
  <radialGradient
   id="id3"
   gradientUnits="userSpaceOnUse"
   gradientTransform="matrix(1.00199,0.0298201,-0.0303589,1.01985,235,-531)"
   xlink:href="#id2"
   cx="12139"
   cy="8524.04"
   r="39.84"
   fx="12139"
   fy="8524.04">
  </radialGradient>
  <radialGradient
   id="id4"
   gradientUnits="userSpaceOnUse"
   gradientTransform="matrix(1.12518,-0.0676791,0.015282,0.536749,-1280,3224)"
   cx="9548.4004"
   cy="5564.02"
   r="5003.9199"
   fx="9548.4004"
   fy="5564.02">
   <stop
   offset="0"
   style="stop-opacity:1; stop-color:white"
   id="stop26" />
   <stop
   offset="1"
   style="stop-opacity:1; stop-color:white"
   id="stop28" />
  </radialGradient>
 <radialGradient
   inkscape:collect="always"
   xlink:href="#id2"
   id="radialGradient248"
   gradientUnits="userSpaceOnUse"
   gradientTransform="matrix(1.00199,0.0298201,-0.0303589,1.01985,283,-562)"
   cx="12116.8"
   cy="10112"
   fx="12116.8"
   fy="10112"
   r="39.84" /></defs>
 <g
   id="Layer_x0020_1"
   inkscape:label="Layer 1"
   inkscape:groupmode="layer"
   transform="translate(-4525.1362,-2291)">
  <metadata
   id="CorelCorpID_0Corel-Layer" />
  <g
   id="_2574401268688">
   <path
   class="fil0"
   d="m 14616,2291 c 3806,0 2110,1329 3644,5404 1534,4074 -44,5744 -6679,5007 C 9636,12485 8386,13736 7132,12470 5947,11276 7873,10812 6596,9565 2502,5567 5318,5188 7853,4205 8646,3898 13709,2291 14616,2291 Z"
   id="path34"
   style="fill:url(#id1)" />
   <polygon
   class="fil1"
   points="14219,7357 11535,7532 11537,11056 14219,11279 "
   id="polygon36" />
   <path
   class="fil2"
   d="m 11618,5386 2451,-349 c 194,-27 446,148 446,380 l -16,6462 c -1,112 -166,369 -412,336 l -2405,-324 c -147,-20 -317,-219 -317,-365 l 2,-5862 c 0,-111 142,-263 251,-278 z"
   id="path38" />
   <polygon
   class="fil3"
   points="11533,11056 14214,11284 14215,7350 11530,7504 "
   id="polygon40" />
   <path
   class="fil4"
   d="m 14014,5302 c -825,84 -1467,180 -2239,284 -192,15 -255,65 -246,230 l 3,749 2684,-245 1,-824 c 0,-102 -77,-207 -203,-194 z"
   id="path42"
   style="fill:url(#id0)" />
   <path
   class="fil5"
   d="m 14197,11533 c -24,357 -401,451 -588,427 l -1819,-234 c -134,-18 -257,-154 -257,-300 l -2,-5612 c 0,-89 38,-202 172,-219 l 2260,-285 c 153,-19 253,30 253,312 l -2,5662 z m 195,340 15,-6407 c 1,-207 -152,-353 -321,-330 l -2464,334 c -92,12 -188,129 -188,221 l -4,5812 c 0,152 128,296 279,315 l 2405,301 c 127,16 277,-124 278,-246 z"
   id="path44" />
   <polygon
   class="fil6"
   points="14132,6467 14131,6281 11451,6537 11451,6708 "
   id="polygon46" />
   <polygon
   class="fil7"
   points="14216,6503 14132,6467 11451,6708 11517,6730 "
   id="polygon48" />
   <polygon
   class="fil8"
   points="14131,6466 14216,6503 14216,6321 14130,6281 "
   id="polygon50" />
   <polygon
   class="fil9"
   points="14216,6957 14216,6802 11531,6997 11531,7113 "
   id="polygon52" />
   <polygon
   class="fil10"
   points="11531,7014 14216,6820 14216,6802 14211,6534 11531,6759 11518,6998 "
   id="polygon54" />
   <polygon
   class="fil11"
   points="11776,9354 12484,9377 12484,8164 11776,8166 "
   id="polygon56" />
   <polygon
   class="fil12"
   points="14216,6802 14216,6503 11517,6730 11518,6998 "
   id="polygon58" />
   <polygon
   class="fil9"
   points="14215,7330 14216,7061 11530,7216 11531,7497 "
   id="polygon60" />
   <polygon
   class="fil10"
   points="14216,6957 14216,7076 11531,7231 11499,7218 11506,7128 14207,6953 "
   id="polygon62" />
   <polygon
   class="fil3"
   points="11838,9291 12409,9308 12406,8233 11838,8234 "
   id="polygon64" />
   <path
   class="fil13"
   d="m 12175,8478 -18,-14 -7,5 h -17 l -11,-13 v -14 l 5,-6 -7,-65 c -8,13 -15,26 -20,39 -4,16 -4,29 -4,42 l 7,88 3,31 24,14 c 12,6 22,16 28,27 13,42 29,83 44,124 3,7 6,15 9,22 23,61 46,120 63,177 22,52 46,110 46,148 0,0 -5,77 -10,95 0,2 -5,11 -8,13 22,-8 34,-29 41,-47 6,-21 10,-55 1,-83 -39,-169 -134,-366 -171,-518 v -9 z"
   id="path66" />
   <polygon
   class="fil14"
   points="12095,8571 12130,8585 12106,8571 12103,8540 "
   id="polygon68" />
   <path
   class="fil15"
   d="m 12202,8736 c 34,140 -248,142 -276,359 6,14 13,0 17,-9 5,-58 24,-88 78,-143 50,-46 199,-94 190,-185 -3,-7 -6,-15 -9,-22 0,0 0,0 0,0 z"
   id="path70" />
   <path
   class="fil13"
   d="m 12301,9057 c -1,48 -4,89 -2,133 0,2 1,2 3,1 3,-2 8,-11 8,-13 5,-18 10,-95 10,-95 0,-38 -24,-96 -46,-148 13,43 23,83 27,122 z"
   id="path72" />
   <path
   class="fil13"
   d="m 12173,8534 c 11,-47 14,-88 13,-123 -4,-13 -10,-26 -21,-39 l -8,66 3,6 -1,22 16,12 z"
   id="path74" />
   <path
   class="fil16"
   d="m 12130,8585 -35,-14 c -46,135 -123,270 -178,419 -20,49 -24,93 -19,131 5,32 21,47 36,58 -7,-17 -15,-47 -8,-84 4,-31 13,-57 26,-81 l 4,-20 c 45,-136 157,-387 174,-409 z"
   id="path76" />
   <path
   class="fil14"
   d="m 11934,9179 c 12,-10 6,-62 9,-93 -4,9 -11,23 -17,9 -7,37 1,67 8,84 z"
   id="path78" />
   <path
   class="fil17"
   d="m 12139,8507 c 10,0 17,8 17,18 -1,9 -8,16 -18,16 -9,0 -16,-8 -16,-17 1,-10 8,-17 17,-17 z"
   id="path80"
   style="fill:url(#id3)" />
   <path
   class="fil18"
   d="m 12102,8574 c -52,190 -207,390 -189,551 34,-172 109,-350 209,-543 z"
   id="path82" />
   <polygon
   class="fil18"
   points="12127,8436 12123,8398 12117,8439 12096,8452 12122,8442 "
   id="polygon84" />
   <path
   class="fil19"
   d="m 12314,9043 c -18,-100 -64,-195 -104,-291 0,2 1,4 1,6 23,61 46,120 63,177 16,36 31,75 40,108 z"
   id="path86" />
   <polygon
   class="fil14"
   points="12122,8442 12096,8452 12096,8455 12122,8456 "
   id="polygon88" />
   <polygon
   class="fil14"
   points="12179,8452 12157,8438 12160,8444 12159,8459 "
   id="polygon90" />
   <path
   class="fil20"
   d="m 12196,8624 c 45,181 173,403 130,550 7,-9 13,-20 17,-30 6,-21 10,-55 1,-83 -32,-140 -103,-299 -148,-437 z"
   id="path92" />
   <polygon
   class="fil21"
   points="14208,7062 14207,6953 11499,7115 11499,7218 "
   id="polygon94" />
   <polygon
   class="fil22"
   points="11950,8504 14180,8538 14400,8115 14400,7476 14212,7337 11535,7496 "
   id="polygon96" />
   <polygon
   class="fil11"
   points="11185,7765 11835,7477 11531,7497 10853,7774 "
   id="polygon98" />
   <polygon
   class="fil23"
   points="11550,7752 12232,7452 11835,7477 11185,7765 "
   id="polygon100" />
   <polygon
   class="fil11"
   points="11928,7738 12582,7431 12232,7452 11550,7752 "
   id="polygon102" />
   <polygon
   class="fil23"
   points="12332,7725 12966,7405 12582,7431 11928,7738 "
   id="polygon104" />
   <polygon
   class="fil11"
   points="12745,7714 13348,7381 12966,7405 12332,7725 "
   id="polygon106" />
   <polygon
   class="fil23"
   points="13196,7700 13749,7356 13348,7381 12745,7714 "
   id="polygon108" />
   <polygon
   class="fil24"
   points="14215,7356 13697,7696 13220,7714 13775,7369 14215,7326 "
   id="polygon110" />
   <polygon
   class="fil11"
   points="13671,7682 14215,7326 13749,7356 13196,7700 "
   id="polygon112" />
   <path
   class="fil25"
   d="m 11185,7765 -332,9 c 0,60 0,119 -1,179 6,191 306,199 334,-5 z"
   id="path114" />
   <path
   class="fil26"
   d="m 11550,7752 -365,13 c 0,60 1,123 1,183 32,183 317,223 362,-8 z"
   id="path116" />
   <path
   class="fil25"
   d="m 11928,7738 -378,14 c 0,60 -2,129 -2,188 33,183 335,222 380,-8 z"
   id="path118" />
   <path
   class="fil26"
   d="m 12332,7725 -404,13 c 0,59 0,134 0,194 26,194 361,225 402,-3 z"
   id="path120" />
   <path
   class="fil25"
   d="m 12745,7714 -413,11 c 0,60 -2,144 -2,204 30,201 375,230 418,-10 z"
   id="path122" />
   <path
   class="fil26"
   d="m 13196,7700 -451,14 c 0,60 2,145 3,205 33,208 407,239 451,-5 z"
   id="path124" />
   <path
   class="fil24"
   d="m 13211,7915 c -1,-70 -3,-141 -3,-211 v 0 l 489,-18 4,221 c -9,49 -33,91 -74,122 -53,39 -122,53 -187,48 -101,-7 -206,-61 -229,-162 z"
   id="path126" />
   <path
   class="fil25"
   d="m 13671,7682 -475,18 c 0,60 2,154 3,214 47,209 435,232 477,-9 z"
   id="path128" />
   <polygon
   class="fil27"
   points="12197,7392 12177,7380 12197,6800 13314,6711 13335,6723 13338,7338 "
   id="polygon130" />
   <polygon
   class="fil28"
   points="12177,7380 12198,7379 13317,7326 13314,6711 12177,6789 "
   id="polygon132" />
   <path
   class="fil26"
   d="m 14214,11284 c 46,440 -121,682 -607,697 -587,-73 -1110,-225 -1698,-298 -161,-59 -275,-167 -333,-329 -21,-58 -32,-120 -38,-182 -2,-25 -3,-50 -4,-75 0,-19 17,41 3,54 l -15,13 z"
   id="path134" />
   <polygon
   class="fil21"
   points="11383,11114 14062,11359 14214,11284 11532,11056 "
   id="polygon136" />
   <path
   class="fil23"
   d="m 14062,11359 -2679,-245 c 0,124 -12,501 375,643 587,73 1175,146 1763,219 550,39 543,-401 541,-617 z"
   id="path138" />
   <path
   class="fil11"
   d="m 13609,8706 -733,-11 c -25,0 -46,21 -46,46 0,87 0,173 0,260 0,26 24,57 46,57 l 734,19 c 31,1 63,-21 63,-47 v -271 c 0,-25 -11,-53 -64,-53 z"
   id="path140" />
   <polygon
   class="fil29"
   points="12849,9219 12948,9222 12948,9128 12849,9125 "
   id="polygon142" />
   <polygon
   class="fil30"
   points="12962,9223 13060,9226 13061,9132 12961,9128 "
   id="polygon144" />
   <polygon
   class="fil13"
   points="13078,9154 13659,9177 13659,9162 13078,9140 "
   id="polygon146" />
   <polygon
   class="fil13"
   points="13078,9188 13659,9211 13659,9196 13078,9174 "
   id="polygon148" />
   <polygon
   class="fil13"
   points="13078,9226 13659,9248 13659,9233 13078,9211 "
   id="polygon150" />
   <path
   class="fil11"
   d="m 13616,10157 -732,-40 c -25,-2 -46,19 -47,44 -4,86 -7,173 -11,259 -1,26 22,58 43,60 l 733,48 c 31,2 64,-19 65,-44 l 11,-272 c 1,-24 -9,-52 -62,-55 z"
   id="path152" />
   <polygon
   class="fil12"
   points="12838,10625 12936,10631 12939,10537 12841,10531 "
   id="polygon154" />
   <polygon
   class="fil7"
   points="12950,10632 13049,10638 13052,10544 12953,10538 "
   id="polygon156" />
   <polygon
   class="fil13"
   points="13069,10567 13648,10605 13649,10590 13069,10552 "
   id="polygon158" />
   <polygon
   class="fil13"
   points="13068,10601 13647,10639 13648,10624 13069,10586 "
   id="polygon160" />
   <polygon
   class="fil13"
   points="13067,10638 13647,10676 13647,10662 13068,10623 "
   id="polygon162" />
   <polygon
   class="fil13"
   points="11845,9584 12425,9614 12425,9599 11846,9569 "
   id="polygon164" />
   <polygon
   class="fil13"
   points="11845,9618 12425,9648 12425,9633 11845,9603 "
   id="polygon166" />
   <polygon
   class="fil13"
   points="11845,9655 12424,9685 12425,9670 11845,9641 "
   id="polygon168" />
   <polygon
   class="fil13"
   points="11839,10909 12417,10960 12418,10946 11840,10894 "
   id="polygon170" />
   <polygon
   class="fil13"
   points="11837,10943 12416,10994 12416,10980 11838,10928 "
   id="polygon172" />
   <polygon
   class="fil13"
   points="11836,10980 12414,11031 12415,11017 11836,10965 "
   id="polygon174" />
   <polygon
   class="fil11"
   points="11806,10863 12466,10925 12466,10795 11806,10743 "
   id="polygon176" />
   <polygon
   class="fil12"
   points="11806,9542 12461,9581 12462,9449 11806,9423 "
   id="polygon178" />
   <path
   class="fil31"
   d="m 12628,8844 c 59,-5 118,-10 178,-15 42,-4 152,-19 164,41 2,11 -25,4 -31,13 -8,10 -19,17 -32,20 l -131,38 -1,214 c 0,17 -11,27 -27,29 l -249,38 v 0 c -42,-47 112,-228 -32,-286 -6,-8 -21,-13 -32,-18 l 7,-4 c 14,-11 26,-25 36,-40 15,-21 25,-44 32,-68 14,-45 19,-92 23,-138 0,-10 2,-54 8,-60 13,-2 23,-3 39,1 62,43 55,168 48,235 z"
   id="path180" />
   <path
   class="fil32"
   d="m 12829,8850 c -58,5 -111,10 -177,16 8,-80 12,-247 -83,-259 -22,29 9,237 -102,329 29,17 13,86 17,289 l 22,-1 c 4,7 10,13 17,19 l 249,-38 c 17,-2 26,-14 27,-29 v -214 l 30,-9 102,-29 c 50,-12 63,-85 -21,-80 -29,2 -55,4 -81,6 z"
   id="path182" />
   <path
   class="fil29"
   d="m 12231,9274 v -260 c 0,-27 -23,-50 -51,-50 h -5 c -28,0 -51,23 -51,50 v 260 c 0,27 23,50 51,50 h 5 c 28,0 51,-23 51,-50 z"
   id="path184" />
   <path
   class="fil33"
   d="m 12231,9014 v 260 c 0,22 -15,41 -35,47 l 271,-58 c 12,-3 17,-8 17,-21 v -17 c 0,-5 3,-225 -1,-262 -4,-24 -33,-50 -58,-45 -84,17 -176,30 -260,47 1,0 9,-1 10,-1 h 5 c 28,0 51,23 51,50 z"
   id="path186" />
   <path
   class="fil34"
   d="m 15334,10596 c 37,4 64,21 64,63 0,106 -1,212 3,319 1,19 4,55 -11,69 -11,10 -68,35 -101,36 -75,2 -153,-57 -187,-62 -44,-7 -53,-37 -53,-78 l -1,-314 c 0,-8 -65,-22 -57,-29 14,-12 58,-39 95,-34 z"
   id="path188" />
   <path
   class="fil35"
   d="m 15259,10623 -223,-26 c -43,-5 -60,-5 -60,58 v 314 c 0,43 11,70 54,77 l 225,35 c 72,12 75,-26 73,-78 -4,-110 -3,-209 -3,-318 0,-38 -23,-57 -66,-62 z"
   id="path190" />
   <polygon
   class="fil36"
   points="14263,10777 14733,10832 14722,10397 14262,10360 "
   id="polygon192" />
   <polygon
   class="fil37"
   points="14262,10444 14725,10484 14723,10433 14262,10396 "
   id="polygon194" />
   <polygon
   class="fil38"
   points="14262,10484 14724,10530 14724,10511 14262,10467 "
   id="polygon196" />
   <path
   class="fil39"
   d="m 14874,10841 c -36,-24 -77,-42 -107,-75 l -159,-236 c -8,-13 -39,7 -35,-8 5,-19 -15,-46 54,-57 6,0 30,0 39,15 46,75 125,218 177,219 l -68,-181 -52,-55 v -30 c 83,6 138,8 225,28 l 81,116 v 0 c -44,24 -48,26 -52,52 -18,117 -19,227 -53,262 -18,19 44,22 -22,-3 v 0 0 c -12,-14 -21,-30 -28,-47 z"
   id="path198" />
   <polygon
   class="fil11"
   points="11769,10671 12476,10730 12481,9754 11776,9719 "
   id="polygon200" />
   <polygon
   class="fil3"
   points="11834,10618 12404,10665 12409,9827 11838,9801 "
   id="polygon202" />
   <path
   class="fil40"
   d="m 14723,10463 2,114 70,151 -144,-223 c -50,-79 -117,7 -87,56 l 153,264 c 30,33 71,51 107,75 7,18 16,33 27,47 40,15 84,18 126,28 0,-4 0,-7 0,-11 l -1,-313 c 0,-9 1,-16 1,-22 l -96,-147 c -54,-15 -103,-18 -158,-19 z"
   id="path204" />
   <path
   class="fil27"
   d="m 12505,6947 c 1,5 3,12 3,17 l 3,66 -34,2 -7,-135 39,-2 35,47 c 5,7 10,15 14,23 -3,-11 -4,-22 -5,-33 l -2,-40 35,-2 7,136 -34,1 -41,-57 c -5,-7 -9,-15 -13,-23 z m 176,47 -36,2 -7,27 -34,2 35,-137 44,-3 49,133 -42,2 z m 98,-114 7,135 -42,3 -7,-135 z m 70,98 53,-3 1,34 -95,5 -7,-135 42,-2 z m 52,-9 38,-9 v 1 c 5,11 14,15 26,14 5,0 15,-1 14,-8 0,-3 -1,-5 -3,-6 -4,-2 -9,-3 -13,-4 -13,-2 -37,-6 -47,-15 -7,-7 -11,-16 -11,-26 -1,-12 4,-23 13,-32 11,-11 26,-14 41,-15 25,-2 45,7 56,30 v 0 l -34,13 v 0 c -4,-10 -12,-13 -22,-13 -6,1 -13,2 -13,9 0,2 1,4 3,5 3,2 9,3 12,4 11,1 24,3 35,7 7,2 13,6 18,12 5,7 7,14 8,23 0,13 -5,25 -15,34 -12,10 -28,14 -43,15 -30,2 -53,-9 -63,-38 z m -587,274 -36,2 -7,27 -34,1 35,-137 44,-2 50,133 -43,2 z m 162,-118 5,90 c 1,13 -2,28 -13,37 -11,9 -25,12 -39,13 -14,1 -29,-1 -42,-8 -12,-8 -16,-21 -17,-34 l -5,-92 43,-2 4,86 c 1,5 2,11 5,14 4,3 9,4 13,4 4,-1 9,-2 12,-4 2,-2 5,-4 5,-7 1,-5 1,-12 0,-16 l -4,-79 z m 13,95 38,-9 v 0 c 4,12 14,16 26,15 5,0 15,-1 14,-8 0,-3 -1,-5 -4,-7 -3,-2 -9,-3 -12,-3 -13,-2 -37,-6 -47,-16 -7,-7 -11,-15 -11,-25 -1,-13 3,-24 13,-33 10,-10 26,-14 41,-14 25,-2 45,6 56,30 v 0 l -34,13 v -1 c -5,-9 -12,-12 -22,-12 -6,0 -13,2 -13,9 0,2 1,4 3,5 3,2 9,3 12,3 11,2 24,4 35,7 7,3 13,7 18,13 5,7 7,14 8,22 0,14 -5,26 -15,35 -12,10 -28,14 -43,15 -30,1 -53,-9 -63,-38 z m 190,-72 5,102 -39,2 -6,-102 -28,1 -1,-33 95,-5 2,33 z m 96,45 -12,1 2,51 -42,3 -7,-135 71,-4 c 12,-1 26,1 36,9 10,7 14,17 15,28 0,7 -1,15 -4,21 -3,8 -11,13 -18,17 l 28,57 -47,3 z m 153,17 -36,2 -7,27 -34,2 35,-137 44,-3 49,133 -43,2 z m 103,-12 53,-3 2,33 -95,6 -8,-136 42,-2 z m 103,-108 7,136 -42,2 -7,-135 z m 95,104 -36,2 -6,27 -35,2 35,-137 44,-3 50,133 -43,2 z m -578,-228 20,-1 -12,-37 z m -367,248 21,-1 -13,-37 z m 477,-49 17,-1 c 4,0 9,-1 12,-4 3,-2 5,-6 4,-10 0,-9 -7,-12 -16,-11 l -18,1 z m 137,17 20,-1 -12,-37 z m 301,-16 21,-1 -13,-37 z"
   id="path206" />
   <path
   class="fil41"
   d="m 12587,7021 -34,2 -40,-57 c -5,-7 -10,-16 -16,-27 3,8 4,16 5,22 l 3,65 -33,2 -7,-135 39,-2 34,48 c 6,9 11,18 15,25 -3,-12 -4,-23 -5,-35 l -2,-40 34,-2 z m 97,-5 -9,-26 -36,2 -7,27 -33,2 34,-137 44,-2 49,132 z m -39,-54 21,-1 -13,-38 z m 128,-85 7,134 -42,2 -7,-134 z m 122,95 2,33 -94,5 -7,-134 41,-2 6,101 z m 0,-6 38,-9 c 4,11 13,16 26,15 10,0 15,-3 15,-9 0,-3 -1,-5 -4,-6 -2,-2 -7,-3 -13,-4 -24,-3 -39,-8 -46,-15 -7,-7 -11,-16 -12,-25 0,-13 4,-24 13,-33 9,-9 23,-14 41,-15 27,-1 46,9 56,31 l -34,12 c -4,-9 -11,-13 -22,-13 -9,1 -13,4 -13,9 0,3 1,5 3,6 2,1 6,2 12,3 17,3 28,5 35,7 7,3 13,7 18,13 5,6 7,13 8,22 0,14 -5,25 -15,34 -11,9 -25,14 -43,15 -33,2 -53,-11 -63,-38 z m -578,299 -9,-26 -36,2 -7,26 -33,2 34,-136 44,-3 49,132 z m -39,-54 21,-1 -13,-39 z m 192,-89 5,89 c 1,17 -4,29 -13,37 -10,8 -23,12 -39,13 -17,1 -30,-2 -41,-8 -11,-7 -16,-18 -17,-34 l -5,-91 42,-2 4,86 c 1,6 2,11 5,14 3,2 7,4 13,3 5,0 9,-1 13,-4 3,-2 4,-4 5,-7 0,-3 0,-8 0,-16 l -4,-78 z m 13,95 38,-9 c 4,11 13,16 26,15 10,-1 15,-4 15,-9 0,-3 -2,-5 -4,-7 -3,-1 -7,-2 -13,-3 -24,-4 -39,-9 -46,-16 -7,-7 -11,-15 -12,-25 0,-12 4,-23 13,-32 9,-9 23,-14 41,-15 27,-1 46,9 56,30 l -34,12 c -4,-8 -11,-13 -22,-12 -9,0 -13,4 -13,9 0,3 1,4 3,6 2,1 6,2 12,3 16,2 28,5 35,7 7,2 13,6 18,13 4,6 7,13 7,22 1,13 -4,25 -14,34 -11,9 -25,14 -43,15 -33,1 -54,-11 -63,-38 z m 190,-74 5,103 -39,2 -5,-102 -28,1 -2,-32 95,-5 2,32 z m 164,94 -45,3 -23,-51 -13,1 3,51 -41,3 -7,-135 70,-4 c 15,0 28,3 37,9 8,7 13,17 14,28 0,8 -1,15 -4,21 -3,6 -9,12 -18,17 z m -82,-76 18,-1 c 5,0 9,-1 12,-3 3,-3 4,-6 4,-10 0,-9 -6,-13 -16,-12 l -19,1 z m 176,71 -9,-26 -36,2 -7,27 -33,2 34,-137 44,-2 49,132 z m -39,-54 21,-1 -13,-38 z m 186,13 1,33 -94,5 -7,-134 41,-2 6,101 z m 50,-104 7,134 -41,3 -7,-135 z m 104,129 -8,-26 -37,2 -6,27 -34,2 35,-137 43,-2 49,132 z m -39,-54 21,-1 -12,-38 z"
   id="path208" />
   <path
   class="fil42"
   d="m 12328,9237 c 0,-19 -14,-34 -31,-34 -17,0 -31,15 -31,34 0,19 14,34 31,34 17,0 31,-15 31,-34 z"
   id="path210" />
   <path
   class="fil42"
   d="m 15099,10971 c 0,-19 -16,-36 -37,-36 -20,0 -36,17 -36,36 0,20 16,37 36,37 21,0 37,-17 37,-37 z"
   id="path212" />
   <path
   class="fil41"
   d="m 13062,10393 9,-160 25,1 c 14,1 25,3 32,5 9,3 16,8 22,15 5,8 7,16 7,25 0,6 -2,12 -5,17 -3,4 -7,9 -13,13 9,5 16,11 20,18 4,7 6,15 5,25 0,9 -3,17 -8,24 -5,7 -11,12 -19,15 -7,4 -18,5 -31,4 z m 37,-129 -2,33 7,1 c 8,0 13,-1 17,-4 4,-3 6,-7 6,-12 1,-5 -1,-9 -4,-13 -4,-3 -9,-5 -16,-5 z m -3,61 -3,40 8,1 c 13,1 22,-1 26,-3 5,-3 7,-8 8,-14 0,-7 -2,-12 -7,-17 -5,-4 -14,-6 -26,-7 z m 103,-85 30,2 -6,103 c 0,9 0,15 1,19 2,4 4,7 8,9 3,3 7,4 12,5 6,0 11,-1 15,-3 4,-3 6,-6 8,-9 2,-4 3,-11 4,-22 l 5,-99 31,1 -6,95 c -1,17 -2,28 -4,34 -3,6 -6,12 -12,17 -5,6 -11,10 -18,12 -7,2 -15,3 -24,3 -11,-1 -21,-4 -29,-10 -9,-6 -14,-13 -18,-21 -3,-8 -4,-22 -3,-41 z m 132,8 32,2 26,59 33,-56 33,2 -52,88 -4,69 -31,-2 4,-69 z"
   id="path214" />
   <path
   class="fil41"
   d="m 13076,8964 5,-160 25,1 c 15,0 25,1 32,3 9,3 17,8 22,15 6,7 9,15 8,25 0,6 -1,11 -4,16 -3,5 -7,10 -13,14 10,5 16,11 21,18 4,7 6,15 6,24 0,9 -3,17 -8,24 -5,8 -11,13 -18,16 -8,4 -18,5 -31,5 z m 34,-130 -1,34 h 7 c 7,0 13,-1 17,-4 4,-3 6,-8 6,-13 0,-5 -2,-9 -5,-12 -4,-3 -9,-5 -16,-5 z m -2,61 -1,41 h 8 c 13,0 21,-1 26,-4 4,-3 7,-8 7,-14 0,-7 -2,-12 -7,-16 -5,-4 -14,-7 -26,-7 z m 101,-87 30,1 -3,103 c 0,9 1,15 2,19 2,4 4,7 8,9 3,2 7,3 12,4 6,0 11,-1 14,-4 4,-2 7,-5 9,-9 1,-4 2,-11 3,-22 l 3,-99 30,1 -3,95 c 0,16 -1,27 -3,33 -2,7 -6,12 -11,18 -6,6 -12,10 -18,12 -7,3 -15,4 -24,4 -11,0 -21,-3 -30,-9 -8,-5 -14,-12 -18,-20 -3,-8 -4,-22 -4,-41 z m 132,3 32,1 29,59 31,-57 32,1 -49,89 -2,69 h -31 l 2,-70 z"
   id="path216" />
   <path
   class="fil18"
   d="m 12114,10516 10,-330 15,-28 1,172 c 3,12 9,15 17,19 l 63,6 c 70,17 61,47 69,70 l -1,96 c -6,32 -24,47 -48,64 -30,15 -60,9 -82,1 -24,-12 -44,-39 -44,-70 z m 81,-148 c -46,2 -73,35 -67,109 5,73 -1,95 68,102 68,7 70,-42 73,-93 4,-56 3,-121 -74,-118 z"
   id="path218" />
   <path
   class="fil20"
   d="m 12276,10476 c -9,73 -4,96 -73,100 -68,3 -68,-45 -69,-96 -2,-56 3,-121 79,-115 46,4 72,39 63,111 z m -49,-120 c -23,-4 -47,-5 -70,-7 -7,-2 -14,-9 -17,-18 l 4,-291 c -3,-57 -9,-114 -24,-171 -13,52 -26,113 -31,167 v 113 l 30,37 -5,330 c 10,65 57,75 95,75 46,-1 77,-38 80,-80 l 1,-87 c -2,-27 -16,-59 -63,-68 z"
   id="path220" />
   <path
   class="fil43"
   d="m 12120,9869 -12,52 c 0,0 0,0 0,0 15,28 20,60 31,89 -1,-46 -8,-93 -19,-141 z"
   id="path222" />
   <path
   class="fil18"
   d="m 12108,10508 6,-321 -25,-30 -3,162 c -3,12 -6,14 -14,18 l -64,2 c -59,14 -66,46 -72,70 l -2,88 c 4,33 19,52 42,70 29,16 60,13 83,6 24,-11 49,-35 49,-65 z m -78,-156 c 46,4 72,39 63,111 -9,73 -4,96 -73,100 -68,3 -68,-45 -69,-96 -2,-56 3,-121 79,-115 z"
   id="path224" />
   <path
   class="fil20"
   d="m 12108,10519 5,-334 -24,-29 -4,174 c -3,12 -6,14 -14,18 l -64,2 c -58,14 -65,46 -71,69 l -2,89 c 4,33 18,52 41,70 29,16 61,13 83,6 25,-11 49,-35 50,-65 z m -78,-156 c 46,4 71,39 62,111 -9,73 -3,96 -72,100 -69,3 -68,-45 -70,-96 -1,-56 3,-121 80,-115 z"
   id="path226" />
   <path
   class="fil16"
   d="m 12110,9926 c -4,24 -7,46 -8,67 6,34 25,58 42,71 v -24 c -3,-57 -9,-114 -24,-171 11,48 18,95 19,141 -10,-28 -15,-57 -29,-84 z"
   id="path228" />
   <path
   class="fil44"
   d="m 8826,6114 c 236,337 801,543 1398,105 643,436 1542,-356 728,-879 350,-606 -704,-1599 -1549,-597 -148,-97 -1032,-252 -1194,459 -805,107 -521,1520 617,912 z"
   id="path230"
   style="fill:url(#id4)" />
   <path
   class="fil42"
   d="m 7774,8472 c 158,225 536,363 935,70 431,291 1032,-238 488,-588 234,-405 -471,-1070 -1036,-400 -100,-64 -691,-168 -799,308 -539,71 -349,1017 412,610 z"
   id="path232" />
   <path
   class="fil42"
   d="m 14667,5146 c 176,251 597,404 1042,78 480,325 1151,-266 544,-656 261,-452 -526,-1193 -1156,-446 -110,-71 -770,-187 -890,343 -601,80 -389,1134 460,681 z"
   id="path234" />
   <path
   class="fil42"
   d="m 15983,6612 c 120,172 407,276 711,54 326,221 783,-181 370,-447 178,-308 -358,-813 -787,-304 -76,-49 -525,-128 -607,234 -410,54 -265,773 313,463 z"
   id="path236" />
   <path
   class="fil20"
   d="m 12148,10112 c 0,-17 -14,-31 -31,-31 -17,0 -31,14 -31,31 0,17 14,31 31,31 17,0 31,-14 31,-31 z"
   id="path238" />
   <path
   class="fil45"
   d="m 12117,10095 c 9,0 17,8 16,18 0,9 -8,16 -17,16 -9,0 -16,-8 -16,-17 0,-10 8,-17 17,-17 z"
   id="path240"
   style="fill:url(#radialGradient248)" />
  </g>
 </g>
</svg>
